<?xml version="1.0" encoding="UTF-8"?>
<svg version="1.1" xmlns="http://www.w3.org/2000/svg" width="512" height="512">
<path d="M0 0 C2.375 1.5625 2.375 1.5625 4 4 C4.55852776 6.775541 4.72907902 9.25523194 4 12 C0.26404601 17.35760435 -6.45434711 18.3677233 -12.3828125 20.1796875 C-20.35360817 22.76481042 -27.1512685 26.40558573 -31.375 33.9375 C-31.83648437 34.73027344 -32.29796875 35.52304687 -32.7734375 36.33984375 C-36.39552957 44.19540012 -36.27317018 51.30798186 -36.1875 59.875 C-36.18685547 61.1228125 -36.18621094 62.370625 -36.18554688 63.65625 C-36.69850427 69.19756199 -36.69850427 69.19756199 -35 74 C-32.86106733 74.09692063 -30.71887033 74.12186803 -28.57774353 74.12025452 C-27.89901941 74.12110894 -27.2202953 74.12196337 -26.52100378 74.12284368 C-24.23004074 74.12450041 -21.93914974 74.118974 -19.64819336 74.11352539 C-18.01259869 74.11324353 -16.3770039 74.11340122 -14.7414093 74.1139679 C-10.28705414 74.11425593 -5.83272566 74.10835824 -1.37837672 74.10139394 C3.27146474 74.09516139 7.92130674 74.09455668 12.57115173 74.09336853 C21.38261702 74.09025492 30.19406997 74.08204113 39.00552982 74.07201904 C49.03438108 74.06085882 59.06323291 74.05534768 69.09208882 74.05032361 C89.72806611 74.03985854 110.36403228 74.02225853 131 74 C130.95536735 69.90995644 130.88504917 65.82117973 130.79248047 61.73193359 C130.76452356 60.34533524 130.74318529 58.958585 130.72900391 57.57177734 C130.60391155 46.02158279 129.25268406 36.38742494 121.01953125 27.73828125 C116.29260251 23.66964819 110.70733113 21.60214133 104.90625 19.50390625 C104.19009521 19.24367676 103.47394043 18.98344727 102.73608398 18.71533203 C101.31112324 18.20539999 99.88096422 17.70971881 98.44555664 17.22998047 C94.50551835 15.84863923 91.98681024 14.7675809 90 11 C89.43737485 7.22237397 89.70533033 5.51000521 91.625 2.1875 C94.60935252 -0.56124574 95.96152662 -0.76843616 100 -1 C103.0558958 -0.3661224 105.94001764 0.63649213 108.875 1.6875 C109.63941406 1.94466797 110.40382813 2.20183594 111.19140625 2.46679688 C126.99012257 7.92526677 137.3353089 16.34167624 144.921875 31.3125 C147.46114924 37.64228506 148.32088953 43.62453622 148.37109375 50.375 C148.38012222 51.14376465 148.3891507 51.9125293 148.39845276 52.70458984 C148.4128567 54.31799482 148.42181721 55.93145689 148.42553711 57.54492188 C148.43747318 59.9944958 148.48678313 62.44157783 148.53710938 64.890625 C148.69458882 80.16389135 148.69458882 80.16389135 143 86 C137.66414817 91.19903512 132.17385668 92.24766735 124.88517761 92.26742554 C124.19219725 92.27195665 123.4992169 92.27648776 122.78523713 92.28115618 C120.47548966 92.29376265 118.16597912 92.29218227 115.85620117 92.29052734 C114.19506021 92.29651496 112.53392202 92.30332105 110.87278748 92.31088257 C106.36853497 92.32852638 101.86435849 92.33323728 97.36007476 92.33451414 C94.54345586 92.33593725 91.7268562 92.3402099 88.91024208 92.34550858 C79.07678631 92.36400374 69.2433847 92.37217986 59.40991211 92.37060547 C50.25537945 92.36940432 41.10108266 92.39050274 31.94660968 92.4220928 C24.07718748 92.44827708 16.20784222 92.45897186 8.33837682 92.45769465 C3.64266209 92.45718564 -1.05284298 92.46283529 -5.74851418 92.48405075 C-10.16698942 92.50346936 -14.58505577 92.50353297 -19.00354576 92.48901749 C-20.62039668 92.48693275 -22.23727343 92.49161026 -23.8540802 92.5037384 C-42.00716601 92.63103442 -42.00716601 92.63103442 -49.15625 86 C-49.5996875 85.34 -50.043125 84.68 -50.5 84 C-50.9640625 83.34 -51.428125 82.68 -51.90625 82 C-55.11399191 76.1344148 -54.22273016 69.17961012 -54.24023438 62.68554688 C-54.24984474 60.53474818 -54.28084486 58.38494581 -54.3125 56.234375 C-54.43499189 40.59386826 -51.17296275 27.32207167 -40.1875 15.625 C-32.91972208 8.96172535 -24.93048766 5.39204306 -15.75 2.0625 C-14.88600586 1.74337646 -14.02201172 1.42425293 -13.13183594 1.09545898 C-8.40048707 -0.54164634 -4.95673075 -1.5403994 0 0 Z " fill="#ffffff" transform="translate(209,267)"/>
<path d="M0 0 C12.37884463 10.43259569 18.80192888 22.98548183 21 39 C22.07720243 54.7644432 18.54429498 69.66372556 8.10742188 81.80419922 C-2.9728683 94.06186548 -16.35994525 100.76172687 -32.796875 102.25390625 C-48.4740479 102.91065268 -62.81315405 97.47376226 -74.6875 87.4375 C-85.98645123 76.65507226 -92.21179798 62.66333839 -93.03125 47.09375 C-92.86121993 30.26077347 -87.35984469 16.05834057 -75.90625 3.75 C-55.48770716 -15.7807801 -22.3993436 -16.2255633 0 0 Z M-64.4375 16.75 C-72.73663255 25.77379693 -75.47067589 36.49947834 -75.2421875 48.5078125 C-74.52290801 58.87935865 -70.13365691 68.30061014 -62.4140625 75.3671875 C-56.95054417 79.54517211 -51.69486328 82.41832151 -45 84 C-44.154375 84.226875 -43.30875 84.45375 -42.4375 84.6875 C-31.68174609 86.06644281 -21.42774797 83.72305133 -12.3203125 77.79296875 C-3.11368148 70.67875387 1.3865617 62.49674283 3.375 51.1875 C4.7833076 39.4008535 2.34294635 29.41496701 -4.6015625 19.77734375 C-11.8748736 10.89327654 -21.14679638 6.57100875 -32.4375 5.1875 C-44.34042676 4.42703524 -55.66413092 8.58795796 -64.4375 16.75 Z " fill="#ffffff" transform="translate(292,168)"/>
<path d="M0 0 C1.07509323 -0.01606293 2.15018646 -0.03212585 3.25785828 -0.04867554 C8.17954832 -0.09323192 13.10110448 -0.13419966 18.02294922 -0.15722656 C20.61548854 -0.17377158 23.20798253 -0.20104193 25.80029297 -0.23925781 C29.54394124 -0.29414652 33.28652056 -0.31592151 37.03051758 -0.33056641 C38.18287399 -0.35323578 39.33523041 -0.37590515 40.52250671 -0.39926147 C47.51538937 -0.38099141 52.3959793 0.47042798 57.73754883 5.19287109 C61.28226951 9.76670423 61.85237118 14.46658633 61.89868164 20.1315918 C61.90828918 21.08640945 61.91789673 22.04122711 61.92779541 23.02497864 C61.93204529 24.04589096 61.93629517 25.06680328 61.94067383 26.11865234 C61.9463739 27.18021042 61.95207397 28.24176849 61.95794678 29.335495 C61.96737946 31.57887785 61.97392387 33.82227446 61.9777832 36.06567383 C61.98748438 39.48266987 62.01852303 42.89906306 62.05004883 46.31591797 C62.05657998 48.50015921 62.06183001 50.68440472 62.06567383 52.86865234 C62.07802063 53.88349197 62.09036743 54.8983316 62.10308838 55.94392395 C62.08197655 62.72730279 61.51666662 68.79473866 57.05395508 74.25146484 C56.47516602 74.70650391 55.89637695 75.16154297 55.30004883 75.63037109 C54.72383789 76.10345703 54.14762695 76.57654297 53.55395508 77.06396484 C50.11948803 79.19850458 46.70141099 79.32293248 42.72875977 79.35400391 C41.73382507 79.36361145 40.73889038 79.37321899 39.71380615 79.38311768 C38.64398499 79.38736755 37.57416382 79.39161743 36.47192383 79.39599609 C35.36455872 79.40169617 34.2571936 79.40739624 33.11627197 79.41326904 C30.77275547 79.42271255 28.42922572 79.42925045 26.08569336 79.43310547 C22.5149799 79.44279664 18.94484564 79.47382105 15.37426758 79.50537109 C13.09432307 79.51190297 10.81437445 79.51715271 8.53442383 79.52099609 C7.47269958 79.5333429 6.41097534 79.5456897 5.31707764 79.55841064 C-1.15161482 79.5391428 -7.75731748 79.3857465 -12.81768799 74.77618408 C-16.50949719 70.54740223 -17.3840016 67.27122812 -17.43945312 61.80688477 C-17.45228836 60.7053154 -17.4651236 59.60374603 -17.47834778 58.46879578 C-17.48573471 57.27817032 -17.49312164 56.08754486 -17.50073242 54.86083984 C-17.50880417 53.63633621 -17.51687592 52.41183258 -17.52519226 51.15022278 C-17.53903144 48.55695003 -17.54975433 45.96365908 -17.55761719 43.37036133 C-17.57483744 39.40654998 -17.61872797 35.44357094 -17.6628418 31.47998047 C-17.67296805 28.9611064 -17.68148436 26.44222523 -17.68823242 23.92333984 C-17.70574051 22.73878708 -17.7232486 21.55423431 -17.74128723 20.33378601 C-17.72455511 13.97952511 -17.61234133 9.98178209 -13.26245117 5.19287109 C-8.88931826 1.24638529 -5.82592293 0.07917737 0 0 Z M-0.26245117 17.19287109 C-0.26245117 32.04287109 -0.26245117 46.89287109 -0.26245117 62.19287109 C14.58754883 62.19287109 29.43754883 62.19287109 44.73754883 62.19287109 C44.73754883 47.34287109 44.73754883 32.49287109 44.73754883 17.19287109 C29.88754883 17.19287109 15.03754883 17.19287109 -0.26245117 17.19287109 Z " fill="#ffffff" transform="translate(234.262451171875,32.80712890625)"/>
<path d="M0 0 C2.84610137 2.31245736 2.9706247 3.7980448 3.5 7.4375 C2.99272389 11.0518423 2.43173928 12.2227399 -0.16699219 14.65893555 C-4.32410193 17.70035854 -9.19990727 19.58165522 -13.875 21.6875 C-23.93309922 26.37348769 -33.11184605 31.375662 -42 38 C-42.56654297 38.41008301 -43.13308594 38.82016602 -43.71679688 39.24267578 C-66.41287103 55.72860366 -82.31774159 76.82176253 -96 101 C-95.28714844 100.6390625 -94.57429688 100.278125 -93.83984375 99.90625 C-83.50530869 94.89893826 -83.50530869 94.89893826 -78 96 C-74.30813458 98.59216083 -73.17116239 100.04149064 -72.375 104.5 C-73.16951825 108.94930218 -74.62609415 110.05769697 -78 113 C-81.98125919 115.37735274 -86.14738841 117.35878118 -90.32788086 119.35864258 C-92.30595541 120.30935451 -94.26892467 121.28718061 -96.23242188 122.26757812 C-97.50438734 122.88450807 -98.77714987 123.49979791 -100.05078125 124.11328125 C-101.19200439 124.66798096 -102.33322754 125.22268066 -103.5090332 125.79418945 C-107.8238019 127.2845484 -110.45849453 127.512296 -115 127 C-118.45471874 124.5218442 -120.05441293 121.37544217 -121.91015625 117.60546875 C-122.42513672 116.56712891 -122.94011719 115.52878906 -123.47070312 114.45898438 C-123.99599609 113.37939453 -124.52128906 112.29980469 -125.0625 111.1875 C-125.59166016 110.11951172 -126.12082031 109.05152344 -126.66601562 107.95117188 C-134.90907395 91.22717524 -134.90907395 91.22717524 -134 86 C-131.39210172 82.36474785 -129.9297642 81.16602932 -125.5 80.375 C-121.00181914 81.17824658 -119.77478536 82.40027845 -117 86 C-116.25609804 87.38056588 -115.5417376 88.77739811 -114.85546875 90.1875 C-114.50508545 90.90292969 -114.15470215 91.61835938 -113.79370117 92.35546875 C-113.53177979 92.89816406 -113.2698584 93.44085938 -113 94 C-112.71914551 93.49774902 -112.43829102 92.99549805 -112.14892578 92.47802734 C-98.18147391 67.61992944 -81.6803104 45.64024142 -59 28 C-58.45102051 27.56929199 -57.90204102 27.13858398 -57.33642578 26.69482422 C-44.63525423 16.7971126 -30.93838619 9.13401738 -16.375 2.3125 C-15.6533667 1.96098877 -14.9317334 1.60947754 -14.18823242 1.24731445 C-8.99367661 -1.09147232 -5.5770941 -1.25212416 0 0 Z " fill="#ffffff" transform="translate(195,77)"/>
<path d="M0 0 C3.35782267 1.00672151 4.87002732 2.97138402 7.09765625 5.62890625 C8.31391706 8.07537582 9.35913562 10.41089239 10.34765625 12.94140625 C19.23918901 34.25554719 32.58199197 52.53672054 49.09765625 68.62890625 C49.57460937 69.16257812 50.0515625 69.69625 50.54296875 70.24609375 C61.01143078 81.55954375 75.30794979 90.836655 89.09765625 97.62890625 C89.75765625 97.62890625 90.41765625 97.62890625 91.09765625 97.62890625 C90.80890625 97.07203125 90.52015625 96.51515625 90.22265625 95.94140625 C87.59765657 90.54557358 86.28337452 86.63423398 87.09765625 80.62890625 C88.59765625 78.12890625 88.59765625 78.12890625 91.09765625 76.62890625 C93.87753904 76.08204406 96.34974212 75.89899156 99.09765625 76.62890625 C102.30310064 79.42677309 104.13766009 82.22419179 106.0078125 86.0234375 C106.7802832 87.58094727 106.7802832 87.58094727 107.56835938 89.16992188 C108.09365234 90.24951172 108.61894531 91.32910156 109.16015625 92.44140625 C109.68931641 93.50939453 110.21847656 94.57738281 110.76367188 95.67773438 C119.0067302 112.40173101 119.0067302 112.40173101 118.09765625 117.62890625 C114.80697728 121.40730021 111.57471198 123.69511884 107.09765625 125.890625 C105.96328125 126.45201172 104.82890625 127.01339844 103.66015625 127.59179688 C102.48453125 128.16091797 101.30890625 128.73003906 100.09765625 129.31640625 C98.92203125 129.89712891 97.74640625 130.47785156 96.53515625 131.07617188 C81.90342935 138.26733311 81.90342935 138.26733311 75.09765625 136.62890625 C72.20285988 134.89202843 72.08429744 133.57737943 71.22265625 130.25390625 C71.07522225 125.97832031 71.20686531 124.76747927 74.09765625 121.62890625 C77.33681826 119.73852713 80.66764179 118.14120156 84.09765625 116.62890625 C80.8337879 114.02577223 77.37997781 112.07081933 73.72265625 110.06640625 C50.60442713 97.06240237 30.86859058 78.8514406 15.09765625 57.62890625 C14.16179687 56.38560547 14.16179687 56.38560547 13.20703125 55.1171875 C5.49143879 44.49923432 -1.05226085 32.98312856 -6.52734375 21.06640625 C-6.87015381 20.34130859 -7.21296387 19.61621094 -7.56616211 18.86914062 C-9.76930631 13.89041329 -10.35950117 10.07376832 -9.90234375 4.62890625 C-7.4168839 0.48647317 -4.70555012 0.1590345 0 0 Z " fill="#ffffff" transform="translate(84.90234375,315.37109375)"/>
<path d="M0 0 C5.58718089 4.76145945 8.25795263 10.84622623 11.35864258 17.32788086 C12.30935451 19.30595541 13.28718061 21.26892467 14.26757812 23.23242188 C14.88450807 24.50438734 15.49979791 25.77714987 16.11328125 27.05078125 C16.66798096 28.19200439 17.22268066 29.33322754 17.79418945 30.5090332 C19.25185654 34.72915501 19.32697885 37.56118201 19 42 C17.5 44.5 17.5 44.5 15 46 C10.17793561 46.68886634 8.20138346 46.87373342 4.25 44 C1.63816795 40.51755727 -0.23796914 36.96703036 -2 33 C-2.44988281 33.8971875 -2.89976562 34.794375 -3.36328125 35.71875 C-23.54003545 75.17385005 -56.70948276 105.81051106 -96.875 124.25 C-97.7009668 124.63309326 -98.52693359 125.01618652 -99.37792969 125.41088867 C-104.48480361 127.66215311 -108.72057916 129.09314028 -114.25 127.25 C-116.51275631 125.63374549 -117.20297288 124.68090941 -118 122 C-117.67685092 115.86016753 -117.67685092 115.86016753 -115.77856445 113.44775391 C-113.56542728 111.64625721 -111.32799195 110.58274289 -108.73046875 109.3984375 C-107.68342773 108.91294434 -106.63638672 108.42745117 -105.55761719 107.92724609 C-104.44547852 107.41500488 -103.33333984 106.90276367 -102.1875 106.375 C-92.58732448 101.8531782 -83.61413325 97.20967608 -75 91 C-74.46552246 90.61666504 -73.93104492 90.23333008 -73.38037109 89.83837891 C-50.10619432 72.99749041 -31.84979178 51.69958356 -19 26 C-19.6290625 26.3609375 -20.258125 26.721875 -20.90625 27.09375 C-26.56159637 30.15990165 -30.55038926 32.00080167 -37 31 C-40.06458538 28.95694308 -40.82153128 27.55920198 -41.9375 24.0625 C-42.01600417 20.21579571 -41.34366466 19.04354095 -39 16 C-36.5506766 14.26756997 -33.93534139 12.9533838 -31.25 11.625 C-30.4986377 11.24287354 -29.74727539 10.86074707 -28.97314453 10.46704102 C-26.6557922 9.29668317 -24.32832247 8.14834248 -22 7 C-20.5962645 6.28793716 -19.19261465 5.57570542 -17.7890625 4.86328125 C-16.48547552 4.21912224 -15.18083647 3.57708657 -13.875 2.9375 C-12.71742188 2.36902344 -11.55984375 1.80054688 -10.3671875 1.21484375 C-6.54041213 -0.16581418 -4.03208369 -0.59131019 0 0 Z " fill="#ffffff" transform="translate(432,311)"/>
<path d="M0 0 C1.86556446 3.00563162 1.54050755 5.36972313 1.125 8.8125 C-1.74020877 14.04462036 -6.72355741 16.22577135 -11.875 18.8125 C-10.98941406 19.25078125 -10.10382813 19.6890625 -9.19140625 20.140625 C28.93719432 39.4760064 58.69145384 71.56176152 77.1875 109.875 C77.7429248 111.01654541 77.7429248 111.01654541 78.30957031 112.18115234 C80.63503726 117.17445272 82.58674258 122.28963165 83.125 127.8125 C81.94561933 130.89199398 80.90867606 132.21798712 78.3125 134.1875 C75.21185996 135.07339715 73.20883471 134.71195179 70.125 133.8125 C65.93300148 130.51401511 64.45422132 126.41668351 62.5 121.625 C56.48688107 107.54906296 48.7762942 94.71157118 39.125 82.8125 C38.45645996 81.98371338 38.45645996 81.98371338 37.77441406 81.13818359 C21.76213538 61.42780485 2.56540933 46.64415996 -19.875 34.8125 C-19.441875 35.60914063 -19.00875 36.40578125 -18.5625 37.2265625 C-18.005625 38.28617188 -17.44875 39.34578125 -16.875 40.4375 C-16.318125 41.48164062 -15.76125 42.52578125 -15.1875 43.6015625 C-13.79746086 47.00219396 -13.51281857 49.18048341 -13.875 52.8125 C-15.3125 55.6875 -15.3125 55.6875 -17.875 57.8125 C-21.04791202 58.59980839 -23.75725386 58.83772849 -26.875 57.8125 C-31.94726142 52.94378037 -34.56042144 46.80313479 -37.5 40.5 C-37.97695313 39.50548828 -38.45390625 38.51097656 -38.9453125 37.48632812 C-46.15127461 22.2437166 -46.15127461 22.2437166 -45.5625 17.0625 C-40.61356918 10.46392558 -30.81105144 7.12929925 -23.625 3.5625 C-22.54992187 3.02109375 -21.47484375 2.4796875 -20.3671875 1.921875 C-19.33335937 1.40625 -18.29953125 0.890625 -17.234375 0.359375 C-16.30077148 -0.10629883 -15.36716797 -0.57197266 -14.40527344 -1.05175781 C-8.83697623 -3.55115174 -5.32082507 -3.36985588 0 0 Z " fill="#ffffff" transform="translate(354.875,65.1875)"/>
<path d="M0 0 C7.56918559 6.7051441 11.6947603 19.31000094 16.13867188 28.26293945 C17.44593033 30.89591003 18.75972062 33.52554477 20.07446289 36.15478516 C20.91012963 37.83102792 21.74542961 39.50745359 22.58032227 41.18408203 C23.16774956 42.36060585 23.16774956 42.36060585 23.76704407 43.56089783 C24.12799667 44.28918289 24.48894928 45.01746796 24.86083984 45.76782227 C25.33666252 46.72518532 25.33666252 46.72518532 25.82209778 47.70188904 C28.42029248 53.33189644 28.86994033 59.91940797 26.78735352 65.79736328 C23.90783453 70.93798107 20.1902063 73.47295183 14.62329102 75.43798828 C10.65869005 75.99921284 6.74756638 75.99947201 2.74829102 75.96923828 C1.62438965 75.97306519 0.50048828 75.97689209 -0.6574707 75.98083496 C-3.02417908 75.98354644 -5.39091782 75.97623912 -7.75756836 75.95947266 C-11.36567443 75.93805379 -14.97178933 75.9593022 -18.57983398 75.98486328 C-20.88713002 75.98221987 -23.19442481 75.97709463 -25.50170898 75.96923828 C-27.10828369 75.98138367 -27.10828369 75.98138367 -28.74731445 75.99377441 C-36.07490306 75.90271775 -41.65767056 74.84710683 -47.25170898 69.71923828 C-50.98390234 63.80993214 -51.16898553 58.28498956 -50.37670898 51.43798828 C-49.1565766 47.51648143 -47.40124048 44.00464699 -45.48608398 40.37939453 C-44.98506165 39.3872142 -44.48403931 38.39503387 -43.96783447 37.37278748 C-42.37637612 34.23673564 -40.75166321 31.11928972 -39.12670898 28.00048828 C-38.05040906 25.88240392 -36.97617079 23.76327059 -35.90405273 21.64306641 C-34.87075454 19.61672722 -33.83565997 17.59130285 -32.79858398 15.56689453 C-32.3161322 14.62415176 -31.83368042 13.681409 -31.33660889 12.71009827 C-27.56446775 5.4814544 -24.23319749 -0.66261004 -16.06420898 -3.31201172 C-10.2963382 -3.84855784 -4.94922745 -3.1771626 0 0 Z M-12.37670898 14.43798828 C-15.37301254 20.3800147 -18.36312041 26.32512793 -21.34887695 32.27246094 C-22.36599534 34.2966208 -23.38454648 36.32006137 -24.40454102 38.34277344 C-25.86776161 41.24504091 -27.32586279 44.14982973 -28.78295898 47.05517578 C-29.24230835 47.96355194 -29.70165771 48.8719281 -30.17492676 49.80783081 C-30.80558044 51.06891159 -30.80558044 51.06891159 -31.44897461 52.35546875 C-32.00856873 53.46799515 -32.00856873 53.46799515 -32.57946777 54.60299683 C-33.50953625 56.41026425 -33.50953625 56.41026425 -33.37670898 58.43798828 C-18.85670898 58.43798828 -4.33670898 58.43798828 10.62329102 58.43798828 C9.38570208 54.72522149 8.36130586 51.66417777 6.65209961 48.26855469 C6.27185638 47.5082193 5.89161316 46.74788391 5.49984741 45.96450806 C4.89192856 44.76415421 4.89192856 44.76415421 4.27172852 43.53955078 C3.85283356 42.70459076 3.4339386 41.86963074 3.00234985 41.0093689 C1.67142665 38.35866395 0.33494996 35.71080475 -1.00170898 33.06298828 C-1.90832779 31.25978824 -2.81458178 29.45640474 -3.72045898 27.65283203 C-5.93499082 23.24574869 -8.15450557 18.84120799 -10.37670898 14.43798828 C-11.03670898 14.43798828 -11.69670898 14.43798828 -12.37670898 14.43798828 Z " fill="#ffffff" transform="translate(82.376708984375,221.56201171875)"/>
<path d="M0 0 C6.77384021 6.39940683 12.52305102 16.0507929 12.79296875 25.53125 C13.08346599 38.33136586 12.05585842 48.29200418 3.5390625 58.46484375 C-4.25586461 66.33649258 -14.52967247 70.52100719 -25.5703125 70.71875 C-36.33713141 70.57422894 -46.14174912 67.10878039 -54.2265625 59.875 C-60.92700206 52.62758578 -64.9526972 43.30874057 -65.4453125 33.46875 C-64.99252508 22.16038424 -62.90382561 11.6171646 -55.08984375 2.91015625 C-39.80742902 -10.48464431 -16.54790218 -12.98495674 0 0 Z M-42.4453125 15.46875 C-46.63968757 20.86151795 -48.80449644 26.03319998 -48.3203125 32.90625 C-47.29153491 39.70311769 -44.98120327 44.57863606 -39.5078125 48.84375 C-33.58956466 52.8472706 -28.6170388 54.54677848 -21.4453125 53.46875 C-15.14717887 51.42944468 -10.2508845 48.33166661 -6.57421875 42.76953125 C-3.74484856 37.00309858 -2.65820265 31.0329607 -4.3828125 24.78125 C-6.83236085 18.74408881 -10.95572006 14.14651882 -16.3203125 10.53125 C-25.84714516 7.2921269 -35.03650788 8.05994538 -42.4453125 15.46875 Z " fill="#ffffff" transform="translate(467.4453125,226.53125)"/>
<path d="M0 0 C1.0709919 -0.01210762 1.0709919 -0.01210762 2.16362 -0.02445984 C3.67407825 -0.03827755 5.18456743 -0.04901004 6.69506836 -0.05688477 C8.2342244 -0.06840127 9.77334061 -0.08884823 11.31225586 -0.1184082 C13.54177862 -0.16122384 15.77011643 -0.17727197 18 -0.1875 C19.02218376 -0.21376213 19.02218376 -0.21376213 20.0650177 -0.24055481 C25.06680903 -0.21806136 27.82684422 1.152902 31.69921875 4.23828125 C35.87684061 8.69550773 38.84977263 14.12833158 41.94921875 19.36328125 C42.50351562 20.25015625 43.0578125 21.13703125 43.62890625 22.05078125 C47.44702483 28.53970199 48.79324884 33.72925657 47.69921875 41.23828125 C46.66796875 44.48046875 46.66796875 44.48046875 45.19921875 47.11328125 C44.65265625 48.10199219 44.10609375 49.09070313 43.54296875 50.109375 C42.93453125 51.14191406 42.32609375 52.17445313 41.69921875 53.23828125 C41.04953125 54.38425781 40.39984375 55.53023438 39.73046875 56.7109375 C32.18226925 69.74393108 32.18226925 69.74393108 24.69921875 72.23828125 C20.21603979 72.51268362 15.73087353 72.55168214 11.24047852 72.58837891 C9.76342958 72.60488225 8.28645866 72.63209829 6.80981445 72.67041016 C-8.35491682 73.06120995 -8.35491682 73.06120995 -13.76733398 68.84765625 C-16.59072814 65.8844634 -18.56680071 62.64710335 -20.48828125 59.05078125 C-20.90899902 58.29482666 -21.3297168 57.53887207 -21.76318359 56.76000977 C-22.58873655 55.26675366 -23.40519284 53.76842366 -24.21142578 52.26464844 C-25.12981486 50.55630478 -26.08435398 48.86746721 -27.046875 47.18359375 C-29.82247789 42.13561343 -31.09041386 38.08683581 -30.30078125 32.23828125 C-29.39285145 29.46943926 -28.12625556 26.98265909 -26.73828125 24.42578125 C-26.19627075 23.3908252 -26.19627075 23.3908252 -25.64331055 22.33496094 C-13.85663176 0.14887819 -13.85663176 0.14887819 0 0 Z M-9.61328125 25.48828125 C-12.07797656 30.08904583 -13.54012505 33.58626913 -12.78125 38.82421875 C-11.23688049 41.99445483 -9.48321816 44.47126302 -7.30078125 47.23828125 C-6.81242798 48.26538208 -6.81242798 48.26538208 -6.31420898 49.31323242 C-5.16375879 51.65132802 -4.14098697 53.38559404 -2.30078125 55.23828125 C1.36641436 56.4553749 4.80170023 56.40415782 8.63671875 56.30078125 C10.10141602 56.35975586 10.10141602 56.35975586 11.59570312 56.41992188 C15.75991092 56.38886677 18.58124233 56.35128826 21.62158203 53.32446289 C23.16318601 51.02443164 24.45484636 48.70968007 25.69921875 46.23828125 C26.56546875 44.93310547 26.56546875 44.93310547 27.44921875 43.6015625 C28.06796875 42.58642578 28.06796875 42.58642578 28.69921875 41.55078125 C29.13234375 40.86628906 29.56546875 40.18179688 30.01171875 39.4765625 C31.18029829 35.67203935 29.53564269 32.861342 27.77636719 29.44750977 C26.74066956 27.56579457 25.66677137 25.71251343 24.57421875 23.86328125 C24.20167969 23.22261719 23.82914062 22.58195312 23.4453125 21.921875 C22.53487873 20.35779648 21.61773684 18.79762591 20.69921875 17.23828125 C2.9752757 14.60593959 2.9752757 14.60593959 -9.61328125 25.48828125 Z " fill="#ffffff" transform="translate(247.30078125,406.76171875)"/>
</svg>
