<?xml version="1.0" encoding="UTF-8"?>
<svg version="1.1" xmlns="http://www.w3.org/2000/svg" width="512" height="512">
<path d="M0 0 C168.96 0 337.92 0 512 0 C512 6.5882445 511.9779116 12.86836633 511.36248112 19.37461376 C511.25909553 20.53224183 511.25909553 20.53224183 511.15362135 21.71325633 C510.92382835 24.27284148 510.6870336 26.83172726 510.45021057 29.39067078 C510.28138454 31.25470964 510.11299365 33.11878796 509.9449982 34.98290187 C509.48391597 40.08512597 509.01667522 45.18676989 508.54839647 50.28833783 C508.043761 55.79790715 507.54486778 61.30799681 507.04525757 66.81802368 C506.06641574 77.6033508 505.08231782 88.38819216 504.09647603 99.17288145 C502.94859612 111.7325922 501.80610508 124.29279138 500.66387974 136.85301743 C498.62585679 159.26183247 496.5832175 181.67022432 494.5378418 204.07836914 C492.55304419 225.82288583 490.57109383 247.56765939 488.5925293 269.31274414 C488.53155607 269.98285206 488.47058284 270.65295998 488.40776194 271.34337421 C488.10064523 274.71865295 487.7935329 278.09393209 487.48642158 281.46921133 C487.39551305 282.46833145 487.39551305 282.46833145 487.30276799 283.48763581 C487.18055663 284.83079104 487.05834623 286.17394635 486.93613679 287.51710176 C484.98952029 308.91141581 483.0406807 330.3055274 481.09134616 351.69959396 C480.52092366 357.96007527 479.95059579 364.22056518 479.38048673 370.48107505 C478.18180561 383.6439056 476.98238985 396.80666834 475.78053994 409.96920999 C475.2835682 415.41210905 474.78700631 420.85504462 474.29159737 426.29808617 C473.83812734 431.28012843 473.383406 436.26205483 472.9276787 441.2438911 C472.76299742 443.04647664 472.59876665 444.8491034 472.435031 446.65177508 C472.21238151 449.10226851 471.98807641 451.55260504 471.76336002 454.00290966 C471.70020887 454.70230902 471.63705772 455.40170839 471.5719929 456.12230167 C471.14398058 460.76337518 470.59719942 465.37839308 470 470 C463.22400963 471.3700455 456.44796164 472.73980575 449.671875 474.109375 C448.60870119 474.32426197 447.54552738 474.53914894 446.45013618 474.76054764 C433.29899378 477.41843533 420.14737624 480.07395151 406.99487305 482.72509766 C405.75865424 482.97428766 404.52243544 483.22347767 403.24875546 483.48021889 C398.17204191 484.50351035 393.09531785 485.52674954 388.01854515 486.54974747 C372.86139195 489.60412368 357.70573431 492.66565654 342.55304146 495.74208832 C333.27063431 497.62640252 323.98692264 499.50418853 314.70219231 501.37702179 C309.22689364 502.48176955 303.75234621 503.58997936 298.27941895 504.7064209 C293.14596273 505.75354535 288.01075845 506.79161591 282.87408257 507.82282639 C281.00154091 508.2004184 279.12966117 508.5813111 277.25853157 508.96583939 C274.70247878 509.49063417 272.14426953 510.0033086 269.58520508 510.51318359 C268.49302485 510.74193491 268.49302485 510.74193491 267.37878036 510.97530746 C258.77377636 512.65881248 250.58799371 512.22294593 242.04177856 510.45021057 C241.19892835 510.28349049 240.35607813 510.11677041 239.48768699 509.9449982 C236.69317543 509.38982727 233.90161781 508.82105653 231.10986328 508.25219727 C229.09536422 507.84906047 227.08069572 507.44676959 225.06587219 507.04525757 C219.6162603 505.95675905 214.16910119 504.85641674 208.72232294 503.75383878 C203.0174062 502.60106591 197.31032865 501.45909114 191.60348511 500.31590271 C182.02768228 498.39615174 172.45329108 496.4694971 162.87988281 494.5378418 C149.37248229 491.81241725 135.86269606 489.09897451 122.3523562 486.38816369 C104.26077904 482.75755676 86.16993468 479.12325394 68.08179283 475.47556686 C66.12265844 475.08059474 64.16346167 474.68593187 62.20419884 474.29159737 C59.53472265 473.7542258 56.8654876 473.21567292 54.19631958 472.67677307 C53.41714774 472.52015703 52.6379759 472.36354099 51.8351928 472.20217901 C48.53668369 471.53495949 45.26045227 470.83272989 42 470 C37.10516411 419.28878003 32.45322252 368.55608441 27.83149964 317.81935441 C27.33856172 312.40854861 26.84535647 306.99776718 26.3521843 301.58698273 C24.7090094 283.55797957 23.06642679 265.52892262 21.42576027 247.49969101 C21.00601175 242.88716347 20.58626194 238.27463605 20.16650391 233.66210938 C20.06223478 232.51633794 19.95796566 231.3705665 19.85053687 230.19007471 C18.14720451 211.47413507 16.43955693 192.75859169 14.73019226 174.04320213 C12.96346956 154.69906976 11.20047121 135.35460083 9.44116437 116.00979257 C8.45779582 105.19796995 7.47282429 94.38629878 6.48366165 83.57500458 C5.64565291 74.41565512 4.81101969 65.25600605 3.98080833 56.0959464 C3.55797109 51.43174826 3.13354165 46.76770974 2.70476532 42.1040535 C2.31213481 37.833129 1.92412494 33.56181025 1.53971712 29.29013804 C1.40030999 27.74995515 1.2592435 26.20992131 1.11630102 24.67006251 C0.92140154 22.56777304 0.73272312 20.46500828 0.54546547 18.36202621 C0.43935845 17.19739971 0.33325143 16.0327732 0.22392905 14.83285499 C-0.06447483 9.8964242 0 4.9448484 0 0 Z M47 43 C50.98022937 89.29933483 50.98022937 89.29933483 55.0872997 135.58701551 C55.37324574 138.75412756 55.65829903 141.92131979 55.94338676 145.08850919 C56.95330251 156.30792506 57.96648146 167.52704523 58.98046875 178.74609375 C59.0607476 179.63442041 59.14102645 180.52274707 59.22373798 181.43799272 C60.82785953 199.18821198 62.43326474 216.93831497 64.04157543 234.68815517 C64.3893079 238.52606986 64.73702278 242.36398613 65.0847168 246.2019043 C65.17108311 247.15522115 65.25744943 248.10853801 65.3464329 249.09074325 C66.75989243 264.69473709 68.16648889 280.29934233 69.57053419 295.90418576 C71.02205482 312.03528183 72.47999602 328.16578766 73.94418603 344.29573876 C74.76231946 353.31041851 75.57757845 362.3253382 76.38548851 371.34094048 C77.06918104 378.97030935 77.75858578 386.59913375 78.45565697 394.22729241 C78.8106628 398.11417859 79.16284653 402.00126773 79.50761795 405.88907623 C79.88059216 410.0940767 80.26671082 414.29776378 80.65422058 418.50144958 C80.76171275 419.73716105 80.86920492 420.97287252 80.97995442 422.24602979 C81.08535489 423.36575495 81.19075536 424.4854801 81.29934978 425.63913631 C81.38701286 426.60901861 81.47467594 427.57890091 81.56499547 428.57817358 C81.87875602 431.25023832 81.87875602 431.25023832 84 434 C86.9928811 434.99529038 86.9928811 434.99529038 90.63380432 435.65826416 C91.32336698 435.80037378 92.01292964 435.9424834 92.72338814 436.08889937 C95.04323638 436.5637397 97.36627054 437.02055598 99.68969727 437.47753906 C101.35045498 437.81353974 103.01099834 438.15060147 104.67134094 438.48864746 C109.19003202 439.40512438 113.71176641 440.30565468 118.23434949 441.20270252 C122.00988952 441.95315936 125.78381436 442.71156113 129.55774635 443.4700563 C138.46573848 445.26038335 147.37617827 447.03812161 156.28833008 448.80761719 C165.47541328 450.63187835 174.658604 452.47480776 183.83999592 454.32748246 C191.72434485 455.91787917 199.61075262 457.49774023 207.49894184 459.06897902 C212.20920739 460.00724587 216.91865822 460.94917988 221.62625313 461.90076447 C226.05860083 462.7961327 230.49339345 463.67821951 234.93037224 464.55033875 C236.55459799 464.87181393 238.17793325 465.19782822 239.80024719 465.52881622 C251.34598091 467.92687216 251.34598091 467.92687216 263 467 C264.12057014 466.79459343 265.24114027 466.58918686 266.39566708 466.37755585 C270.65113707 465.59559479 274.89325348 464.75028067 279.13647461 463.90478516 C280.76009511 463.58409711 282.38377432 463.26370616 284.00750732 462.94358826 C288.39411444 462.0775538 292.77970217 461.20646593 297.16498256 460.33374071 C299.90521024 459.78849213 302.64560515 459.24409169 305.38604927 458.6999321 C313.96282756 456.99656515 322.53896037 455.28999936 331.11420816 453.57894385 C341.01119082 451.60420432 350.91023466 449.6402521 360.81117433 447.68545115 C368.47168127 446.1723144 376.1302549 444.64964802 383.78741843 443.11968267 C388.35920653 442.20642578 392.93172473 441.29729197 397.50629997 440.39809036 C401.80049455 439.55373438 406.09217547 438.6976282 410.38218689 437.8322773 C411.95917587 437.51631576 413.53703347 437.2046556 415.11577034 436.89754677 C417.26501126 436.47878372 419.41062715 436.04485185 421.55601501 435.60684204 C422.7592488 435.36755289 423.96248259 435.12826374 425.202178 434.8817234 C428.30193825 434.22617682 428.30193825 434.22617682 430 431 C430.52692072 428.047986 430.52692072 428.047986 430.79270363 424.60813808 C430.8541044 423.9535635 430.91550516 423.29898892 430.97876656 422.62457874 C431.18375235 420.41659906 431.37642751 418.20771519 431.56924438 415.99864197 C431.71460686 414.40523833 431.86072163 412.81190317 432.00752676 411.2186318 C432.40978485 406.82893736 432.80130562 402.43834034 433.19113588 398.04752719 C433.61301032 393.31687537 434.04474686 388.58712277 434.47529602 383.85725403 C435.317574 374.58716759 436.15077699 365.3162865 436.98108484 356.04512113 C437.94756401 345.2580103 438.92354565 334.47176579 439.90009587 323.6855628 C441.64167093 304.44650093 443.37545368 285.20674501 445.10449219 265.96655273 C446.78394245 247.27832221 448.46748436 228.59046729 450.15625 209.90307617 C450.2602694 208.75201486 450.3642888 207.60095354 450.4714603 206.41501158 C450.88953111 201.78887041 451.3076251 197.16273133 451.7257512 192.53659516 C454.92802517 157.10576508 458.12671614 121.67460608 461.31253624 86.2422924 C461.64755784 82.5164746 461.98298486 78.79069365 462.31877708 75.06494522 C462.70438228 70.78623712 463.08914452 66.50745411 463.47320156 62.22860677 C463.61280616 60.67480764 463.75271226 59.12103557 463.89293869 57.56729244 C464.08244329 55.46694163 464.27085894 53.36649601 464.45897865 51.26602077 C464.5642162 50.09583005 464.66945375 48.92563933 464.77788031 47.71998829 C465.02713036 45.12261302 465.02713036 45.12261302 465 43 C327.06 43 189.12 43 47 43 Z " fill="#ffffff" transform="translate(0,0)"/>
<path d="M0 0 C107.58 0 215.16 0 326 0 C324.8358209 19.79104478 324.8358209 19.79104478 324 28.75 C323.9175 29.68070313 323.835 30.61140625 323.75 31.5703125 C323.28125 36.68261719 323.28125 36.68261719 323 39 C322.92756073 39.81324234 322.85512146 40.62648468 322.78048706 41.46437073 C322 44 322 44 319.95755005 45.55900574 C319.05777435 45.99739273 318.15799866 46.43577972 317.23095703 46.88745117 C316.2112381 47.3953569 315.19151917 47.90326263 314.14089966 48.42655945 C313.0244809 48.95997452 311.90806213 49.49338959 310.7578125 50.04296875 C308.99572096 50.91246245 307.23363002 51.78195738 305.47157097 52.65151691 C302.988551 53.8709987 300.49745325 55.07350183 298.00646973 56.27661133 C294.32733172 58.05781731 290.65948589 59.86210087 286.99070549 61.6645174 C284.11705038 63.07598873 281.24132461 64.48265998 278.36013794 65.87870789 C271.86118318 69.04026707 265.44692948 72.32558835 259.06201172 75.71020508 C249.25824766 80.90312347 239.35355455 85.88167004 229.42266846 90.82624817 C226.28126459 92.39042294 223.14121914 93.95729718 220.00146484 95.52478027 C212.21116781 99.41333202 204.4186678 103.29746086 196.6262207 107.18170166 C190.00875922 110.4804743 183.39217193 113.78098898 176.77667236 117.08369446 C173.72092951 118.6083851 170.66396984 120.13061471 167.60693359 121.65270996 C158.01688622 126.43532722 148.4607967 131.26665971 139.00942993 136.31900787 C131.40844613 140.36727092 123.71474639 144.1426268 116 148 C180.68 148.33 245.36 148.66 312 149 C312 162.5 312 162.5 311.46850586 168.25152588 C311.29180862 170.20731819 311.29180862 170.20731819 311.11154175 172.20262146 C310.97941196 173.6041662 310.84717583 175.00570091 310.71484375 176.40722656 C310.57644597 177.91632369 310.43853061 179.42546511 310.30105591 180.93464661 C309.92990742 184.99418449 309.55209123 189.05307626 309.17299271 193.1118784 C308.77667526 197.36757881 308.38660674 201.62385202 307.99584961 205.88006592 C307.25649083 213.9230408 306.51158647 221.96549182 305.76464367 230.00776553 C304.9138919 239.17071116 304.06939196 248.33422967 303.2253933 257.4977994 C301.49050696 276.33250797 299.74784683 295.16648996 298 314 C281.22517921 317.40176706 264.44815113 320.79239915 247.66843605 324.16993713 C239.87668308 325.73858292 232.08568526 327.31080909 224.29638672 328.89160156 C217.50410016 330.2700467 210.71047057 331.64163508 203.91516912 333.00514317 C200.32000911 333.72677344 196.72559464 334.45172648 193.13277054 335.18490601 C189.11354726 336.00496584 185.09139736 336.80969677 181.06884766 337.61328125 C179.88920441 337.85640045 178.70956116 338.09951965 177.49417114 338.3500061 C165.89392662 340.64126007 156.4790575 339.99325289 144.93115234 337.61328125 C143.02701569 337.232892 143.02701569 337.232892 141.08441162 336.84481812 C137.63292541 336.15509042 134.1839274 335.45360159 130.73527861 334.7498436 C127.11988793 334.01419119 123.50228877 333.28956253 119.88491821 332.5637207 C113.04839519 331.19022089 106.21389128 329.80693604 99.38007224 328.42005253 C91.59434446 326.8404867 83.80640741 325.27195178 76.01827312 323.70430183 C60.00970655 320.48173095 44.00394605 317.24544132 28 314 C27.08570211 304.14279144 26.17287653 294.28544777 25.26194 284.42792797 C24.83892774 279.85089146 24.41540493 275.27390337 23.99072266 270.69702148 C23.58104205 266.28161258 23.17269297 261.86608239 22.76527405 257.45046425 C22.60945739 255.76429145 22.45315776 254.07816322 22.29637146 252.39208031 C22.07716866 250.03388192 21.85967028 247.67553217 21.64257812 245.31713867 C21.54439537 244.26733322 21.54439537 244.26733322 21.44422913 243.19631958 C21.19287099 240.44968878 21 237.76018016 21 235 C35.52 235 50.04 235 65 235 C66.31445638 244.85842286 67.45487689 254.5415979 68.125 264.4375 C68.28076595 266.67848915 68.43687604 268.9194544 68.59326172 271.16040039 C68.72884115 273.10693359 68.86442057 275.0534668 69 277 C69.6418222 277.11546173 70.28364441 277.23092346 70.94491577 277.34988403 C84.13905178 279.73389515 97.30225822 282.22691024 110.43369293 284.93340302 C112.54719418 285.36886293 114.6610793 285.80241093 116.77508545 286.2354126 C128.48299577 288.63481917 128.48299577 288.63481917 134.03320312 289.79589844 C137.62164935 290.54616061 141.21262623 291.28301806 144.80561447 292.01120377 C146.79325255 292.41776062 148.77799044 292.83841665 150.76260376 293.25949097 C151.97612518 293.50369781 153.18964661 293.74790466 154.43994141 293.99951172 C156.01988388 294.32663651 156.01988388 294.32663651 157.63174438 294.66036987 C164.77485034 295.38062815 171.81232882 293.75422517 178.79272461 292.32592773 C179.61987976 292.15997101 180.44703491 291.99401428 181.29925537 291.82302856 C184.00101445 291.28010477 186.70165582 290.73181847 189.40234375 290.18359375 C191.29033118 289.80348527 193.17839913 289.42377659 195.06654358 289.04444885 C200.01308691 288.0498428 204.95875219 287.05094314 209.9041748 286.05078125 C217.84365027 284.44556878 225.78419184 282.84565896 233.72522163 281.24815559 C236.49874163 280.68935641 239.27172363 280.12794389 242.04466248 279.56626892 C243.73410308 279.22565118 245.42356037 278.88511619 247.11303711 278.54467773 C247.88651993 278.38728622 248.66000275 278.22989471 249.45692444 278.06773376 C254.77273495 277 254.77273495 277 257 277 C257.07074989 276.00142723 257.07074989 276.00142723 257.14292908 274.98268127 C258.34238093 258.16430945 259.7025674 241.36600801 261.23217773 224.57446289 C261.57019493 220.85277615 261.90137234 217.13051544 262.23242188 213.40820312 C262.44750841 211.03121302 262.66298717 208.65425837 262.87890625 206.27734375 C262.97683975 205.16930893 263.07477325 204.06127411 263.17567444 202.91966248 C263.26924728 201.90581985 263.36282013 200.89197723 263.45922852 199.84741211 C263.53979996 198.95622177 263.6203714 198.06503143 263.7033844 197.14683533 C264 195 264 195 265 193 C183.16 193 101.32 193 17 193 C15 160 15 160 15 149 C26.55564229 142.86618224 38.15928674 136.8512058 49.87341309 131.02571106 C52.34273939 129.79762741 54.81066835 128.5667714 57.27832031 127.33532715 C63.39909122 124.28150788 69.52207681 121.23213993 75.64501953 118.18267822 C80.85329512 115.58853411 86.06067502 112.99260683 91.26696777 110.39448547 C94.32436716 108.86982529 97.38352284 107.34870655 100.44317627 105.82857513 C110.71469523 100.68741901 120.82527186 95.35512007 131 90 C161.36 74.82 191.72 59.64 223 44 C150.73 43.67 78.46 43.34 4 43 C2.86089532 39.58268595 2.56076515 36.29637032 2.24609375 32.734375 C2.18092056 32.02275208 2.11574738 31.31112915 2.04859924 30.57794189 C1.91158206 29.07181419 1.77636731 27.56552158 1.64282227 26.05908203 C1.43945376 23.7719722 1.22895133 21.48560106 1.01757812 19.19921875 C0.88498539 17.73180974 0.75281071 16.26436288 0.62109375 14.796875 C0.55860947 14.12058044 0.49612518 13.44428589 0.43174744 12.74749756 C0.05629234 8.45040444 0 4.34243041 0 0 Z " fill="#ffffff" transform="translate(93,85)"/>
</svg>
