<?xml version="1.0" encoding="UTF-8"?>
<svg version="1.1" xmlns="http://www.w3.org/2000/svg" width="512" height="512">
<path d="M0 0 C5.94 0 11.88 0 18 0 C18 5.61 18 11.22 18 17 C20.32675781 16.95359375 22.65351562 16.9071875 25.05078125 16.859375 C27.3412051 16.82804897 29.63160375 16.80383599 31.92211914 16.78027344 C33.49612365 16.76033916 35.07005589 16.73318129 36.64379883 16.69824219 C51.11260742 16.38540308 62.96095471 18.54411892 73.9375 28.8125 C82.60435662 38.07707087 86.10797113 48.73225049 86.4609375 61.23046875 C85.87995368 64.72129526 84.74881135 65.8416373 82 68 C78.77141906 69.07619365 76.45460721 69.12052496 73.05981445 69.11352539 C71.83877518 69.11344986 70.6177359 69.11337433 69.35969543 69.11329651 C68.04087875 69.10813522 66.72206207 69.10297394 65.36328125 69.09765625 C63.99993441 69.0957908 62.63658689 69.0943675 61.27323914 69.09336853 C57.68771509 69.08955332 54.10223165 69.07973155 50.51672363 69.06866455 C46.8568578 69.05842901 43.1969854 69.05386632 39.53710938 69.04882812 C32.35805442 69.03810838 25.1790329 69.02104393 18 69 C18.05220703 70.97033203 18.05220703 70.97033203 18.10546875 72.98046875 C18.13361466 74.71613301 18.16091396 76.45181115 18.1875 78.1875 C18.21263672 79.05181641 18.23777344 79.91613281 18.26367188 80.80664062 C18.36111912 89.28455128 18.36111912 89.28455128 15 93 C12.13671875 94.66918945 12.13671875 94.66918945 8.6875 96.11328125 C8.07737061 96.37255905 7.46724121 96.63183685 6.83862305 96.89897156 C5.55404148 97.44142551 4.26626382 97.97636569 2.97558594 98.50415039 C0.99987804 99.3125499 -0.96519183 100.1432859 -2.9296875 100.97851562 C-12.5127992 105 -12.5127992 105 -16 105 C-16 137.67 -16 170.34 -16 204 C-8.08 204 -0.16 204 8 204 C7.98428955 202.24937256 7.9685791 200.49874512 7.95239258 198.69506836 C7.90389161 192.89167422 7.8694888 187.08828705 7.84456348 181.28475094 C7.82895022 177.76825002 7.80779235 174.2519697 7.77368164 170.7355957 C7.73465665 166.68699095 7.72025499 162.63861561 7.70703125 158.58984375 C7.69154739 157.33541977 7.67606354 156.08099579 7.66011047 154.78855896 C7.65791656 143.35685135 7.65791656 143.35685135 11 138 C13.90033554 136.16064921 16.14460352 135.74708051 19.54747009 135.73257446 C20.45447159 135.72404449 21.36147308 135.71551453 22.29595947 135.70672607 C23.28360291 135.70763245 24.27124634 135.70853882 25.28881836 135.70947266 C26.33475662 135.70275543 27.38069489 135.69603821 28.45832825 135.68911743 C31.91888161 135.67010567 35.3792414 135.66621177 38.83984375 135.6640625 C41.24353618 135.65763739 43.64722781 135.65090925 46.05091858 135.64389038 C51.09052342 135.63191008 56.13005966 135.6282104 61.16967773 135.62939453 C67.63071202 135.6295979 74.09130733 135.60228034 80.55223751 135.56785011 C85.51674932 135.5456265 90.48115467 135.54155558 95.44571114 135.54261398 C97.8279732 135.54025177 100.21023792 135.53139358 102.5924511 135.51594925 C105.92254389 135.49637935 109.25167929 135.50209229 112.58178711 135.51416016 C113.56740631 135.50292114 114.55302551 135.49168213 115.56851196 135.48010254 C119.86572226 135.51972482 122.33708027 135.60446273 126.08863831 137.84286499 C129.28954043 141.45535658 129.11945193 144.55673894 129.09765625 149.19921875 C129.09515869 150.28807373 129.09266113 151.37692871 129.09008789 152.4987793 C129.08098389 153.88105713 129.07187988 155.26333496 129.0625 156.6875 C129.041875 161.080625 129.02125 165.47375 129 170 C145.5 170 162 170 179 170 C178.88161925 161.33919076 178.88161925 161.33919076 178.72973633 152.67895508 C178.71849731 151.05316528 178.71849731 151.05316528 178.70703125 149.39453125 C178.6913208 148.28956299 178.67561035 147.18459473 178.65942383 146.04614258 C179.04649098 142.58418065 179.92135651 140.77122062 182 138 C185.13868693 135.90754204 185.8540098 135.7486222 189.42721558 135.73930359 C190.33284241 135.73221878 191.23846924 135.72513397 192.17153931 135.71783447 C193.65839737 135.7215506 193.65839737 135.7215506 195.17529297 135.7253418 C196.74398132 135.7176754 196.74398132 135.7176754 198.34436035 135.70985413 C201.81036054 135.69592476 205.2761626 135.69691756 208.7421875 135.69921875 C211.14730911 135.69533341 213.55243003 135.69099907 215.95755005 135.68623352 C221.0031354 135.67876392 226.04865079 135.67906778 231.09423828 135.68432617 C237.56307859 135.69011898 244.03163241 135.67319768 250.50042534 135.6499815 C255.46922483 135.63525521 260.43795517 135.63437102 265.40677261 135.63749123 C267.79181612 135.63697737 270.17686344 135.63172761 272.56188583 135.62167931 C275.89675288 135.60935517 279.23106001 135.61608306 282.56591797 135.62768555 C283.55310822 135.62004181 284.54029846 135.61239807 285.55740356 135.60452271 C294.45536291 135.67301318 294.45536291 135.67301318 298 139 C299.88273023 143.06971193 300.24613296 146.65102096 300.22705078 151.09716797 C300.22689972 152.27793915 300.22674866 153.45871033 300.22659302 154.67526245 C300.21627045 155.93484772 300.20594788 157.19443298 300.1953125 158.4921875 C300.19106766 160.44380295 300.19106766 160.44380295 300.18673706 162.43484497 C300.17913675 165.8773582 300.15951973 169.31970003 300.1373291 172.762146 C300.11679261 176.28151125 300.10771873 179.80090447 300.09765625 183.3203125 C300.07626999 190.21361875 300.04111765 197.10678348 300 204 C307.92 204 315.84 204 324 204 C324 171.33 324 138.66 324 105 C322.35 104.67 320.7 104.34 319 104 C314.5619249 102.4060802 310.2271385 100.56378569 305.875 98.75 C304.08642578 98.03263672 304.08642578 98.03263672 302.26171875 97.30078125 C301.12089844 96.82511719 299.98007812 96.34945312 298.8046875 95.859375 C297.76296387 95.43108398 296.72124023 95.00279297 295.64794922 94.56152344 C292.38731822 92.63869513 291.38352929 91.53379135 290 88 C289.66173411 84.71686079 289.71664858 81.48331431 289.8125 78.1875 C289.82603516 77.30384766 289.83957031 76.42019531 289.85351562 75.50976562 C289.88870783 73.33957977 289.94251015 71.16970967 290 69 C289.24689041 69.00666183 288.49378082 69.01332367 287.71784973 69.02018738 C280.61153931 69.08036296 273.50531754 69.12600706 266.39882374 69.15543652 C262.74550802 69.17107533 259.09240329 69.19228048 255.43920898 69.22631836 C251.91194784 69.25897625 248.38488932 69.27686644 244.85748863 69.28463173 C242.86055692 69.29285133 240.86370642 69.31626061 238.86689758 69.33988953 C237.03556526 69.34022942 237.03556526 69.34022942 235.16723633 69.34057617 C234.09468094 69.34723801 233.02212555 69.35389984 231.91706848 69.36076355 C227.61595495 68.82883055 225.02116401 67.02116401 222 64 C220.46320493 53.02799799 223.51695599 43.20314514 229.6875 34.1875 C236.92700859 24.90058879 245.03443997 20.65518668 256 17 C258.58630224 16.91518227 261.14478056 16.88401771 263.73046875 16.90234375 C264.85609978 16.90446617 264.85609978 16.90446617 266.00447083 16.90663147 C268.3988546 16.9122244 270.79314453 16.92477556 273.1875 16.9375 C274.81184761 16.94251592 276.43619668 16.94707866 278.06054688 16.95117188 C282.04042975 16.9613402 286.02010993 16.98091688 290 17 C290 11.39 290 5.78 290 0 C295.94 0 301.88 0 308 0 C308 5.61 308 11.22 308 17 C310.32675781 16.95359375 312.65351563 16.9071875 315.05078125 16.859375 C317.3412051 16.82804897 319.63160375 16.80383599 321.92211914 16.78027344 C323.49612365 16.76033916 325.07005589 16.73318129 326.64379883 16.69824219 C341.3583545 16.38008963 352.91926929 18.74031185 364.16015625 28.96484375 C371.81063846 36.87272536 376.05179258 47.02284552 376.3125 58 C376.34988281 59.03125 376.38726562 60.0625 376.42578125 61.125 C375.89466907 64.71122534 374.82346632 65.80227487 372 68 C368.77141906 69.07619365 366.45460721 69.12052496 363.05981445 69.11352539 C361.83877518 69.11344986 360.6177359 69.11337433 359.35969543 69.11329651 C358.04087875 69.10813522 356.72206207 69.10297394 355.36328125 69.09765625 C353.99993441 69.0957908 352.63658689 69.0943675 351.27323914 69.09336853 C347.68771509 69.08955332 344.10223165 69.07973155 340.51672363 69.06866455 C336.8568578 69.05842901 333.1969854 69.05386632 329.53710938 69.04882812 C322.35805442 69.03810838 315.1790329 69.02104393 308 69 C308.33 72.3 308.66 75.6 309 79 C314.21275181 81.18449777 319.42577577 83.36834474 324.63900757 85.55169678 C326.54565475 86.35028032 328.45225066 87.14898629 330.35879517 87.94781494 C341.98569344 92.81908249 353.61823953 97.6762995 365.26171875 102.5078125 C367.44142091 103.41305064 369.62110856 104.31832373 371.80078125 105.22363281 C374.97715713 106.54285928 378.15392052 107.86110545 381.33203125 109.17614746 C384.29923528 110.40396009 387.26497005 111.63526291 390.23046875 112.8671875 C391.10273605 113.22692657 391.97500336 113.58666565 392.873703 113.95730591 C396.7810419 115.58386382 400.66122535 117.2567721 404.4855957 119.07080078 C405.11673782 119.36995392 405.74787994 119.66910706 406.39814758 119.97732544 C408 121 408 121 410 124 C410.66334992 130.96517413 410.66334992 130.96517413 408.4375 134.4375 C405.1754807 136.52853801 402.87597844 136.78423197 399 137 C395.20703125 135.875 395.20703125 135.875 390.8125 134 C374.90334698 127.26596697 358.946761 120.64448375 343 114 C342.67 143.7 342.34 173.4 342 204 C356.52 204 371.04 204 386 204 C391 207 391 207 393 209 C393.21702003 211.86524391 393.21702003 211.86524391 393.17080688 215.60879517 C393.16531023 216.29594144 393.15981358 216.98308772 393.15415037 217.69105661 C393.13360523 220.00597931 393.09903294 222.32049409 393.06494141 224.63525391 C393.04805226 226.29115759 393.03226549 227.94707283 393.01750183 229.60299683 C392.98486677 233.17924962 392.94754179 236.75541415 392.90761185 240.33159256 C392.84745841 246.00912346 392.81740195 251.68655688 392.79525757 257.36434937 C392.79143841 258.32386619 392.78761926 259.28338302 392.78368437 260.27197611 C392.77218945 263.22949354 392.76108434 266.18701226 392.75 269.14453125 C392.70345814 281.36812578 392.6359567 293.59029969 392.47558594 305.81298828 C392.3588612 314.72546033 392.3003972 323.63628822 392.3068918 332.54954851 C392.30814809 337.25802198 392.28178955 341.96236207 392.18425369 346.66991043 C391.79425955 366.3136095 391.52948593 380.75918747 404.23708057 396.78743649 C412.31625465 407.16805879 412.16039363 416.74155488 411.73828125 429.48046875 C411.72105976 431.72101436 411.71030558 433.96161786 411.70561218 436.20222473 C411.67986509 440.84201813 411.60272355 445.47671925 411.48168945 450.11499023 C411.32728334 456.05576815 411.26701174 461.99280029 411.23965168 467.93538952 C411.20911845 473.63840059 411.13121262 479.34048221 411.05078125 485.04296875 C411.03986261 486.12271658 411.02894398 487.20246441 411.01769447 488.31493187 C410.97863215 491.36119233 410.90563598 494.40464231 410.8215332 497.44995117 C410.81437286 498.34804504 410.80721252 499.24613892 410.79983521 500.17144775 C410.64793628 504.37675554 410.3194628 506.51771304 407.94865417 510.09687805 C404.86656787 512.08611984 402.70955976 512.78568584 399.01907349 512.52857971 C395.21241584 511.53202262 392.95864404 509.00287541 390.30859375 506.21679688 C389.38512901 505.29508446 389.38512901 505.29508446 388.44300842 504.35475159 C386.42161761 502.32780651 384.43000921 500.27405922 382.4375 498.21875 C381.03821339 496.80453573 379.63714479 495.3920826 378.234375 493.98132324 C374.55368858 490.27014579 370.89766043 486.53557504 367.24627686 482.79559326 C363.51343522 478.98079809 359.75773763 475.18865372 356.00390625 471.39453125 C348.64674079 463.95166289 341.31542989 456.48387729 334 449 C332.87609641 449.95837094 331.75289426 450.91756451 330.62998962 451.87710571 C330.00443145 452.41116846 329.37887327 452.94523121 328.73435879 453.49547768 C326.83244386 455.14535168 325.02570237 456.85976713 323.25390625 458.6484375 C322.3402832 459.56689453 322.3402832 459.56689453 321.40820312 460.50390625 C320.79912109 461.12136719 320.19003906 461.73882812 319.5625 462.375 C318.60827148 463.33599609 318.60827148 463.33599609 317.63476562 464.31640625 C316.08749668 465.87530879 314.54263508 467.43651416 313 469 C318.35397982 475.52145754 324.31301909 481.39421071 330.3125 487.3125 C332.31146617 489.28488502 334.3070922 491.26056397 336.30078125 493.23828125 C337.17903564 494.10493408 338.05729004 494.97158691 338.9621582 495.86450195 C341.56845182 498.59569283 341.94520264 499.51595663 342.375 503.3125 C342 507 342 507 340 509.9375 C336.97148821 512.01960185 334.91423161 513.0079851 331.1953125 512.69921875 C326.80552721 511.3010487 323.91819441 508.00952945 320.75244141 504.78320312 C318.56690681 502.55930445 316.35142045 500.36672338 314.13671875 498.171875 C309.40257107 493.46951494 304.69471347 488.74170398 300 484 C296.02836905 485.59451456 293.39458579 488.36558109 290.46484375 491.375 C289.94491348 491.90013184 289.42498322 492.42526367 288.88929749 492.96630859 C287.23385782 494.63950892 285.58527569 496.31925435 283.9375 498 C282.2852999 499.67986104 280.63164659 501.35822399 278.97499084 503.03369141 C277.94601616 504.07487621 276.91972647 505.11872311 275.89646912 506.16552734 C270.26082796 511.87992115 270.26082796 511.87992115 265.0625 512.375 C261.90069568 512.30525432 261.17824033 512.13710794 258.5625 510.125 C255.9421109 506.56127082 255.34140437 504.4455205 256 500 C261.08003608 492.77529376 268.17321424 486.71060635 274.4375 480.5 C275.4657298 479.47679861 276.49372626 478.45336267 277.52148438 477.4296875 C280.01164338 474.95042001 282.50492833 472.47432462 285 470 C284.06122074 468.8934059 283.12079084 467.78821201 282.1796875 466.68359375 C281.65616699 466.06798584 281.13264648 465.45237793 280.59326172 464.81811523 C278.4984209 462.42763415 276.28027529 460.21320837 274 458 C270.00313584 459.56199289 267.94141743 462.15152061 265.1875 465.375 C258.15948298 473.36116021 249.84491948 480.10338701 241 486 C240.52624299 487.94205332 240.52624299 487.94205332 240.55859375 490.17578125 C240.51895508 491.41811523 240.51895508 491.41811523 240.47851562 492.68554688 C240.46498047 493.55244141 240.45144531 494.41933594 240.4375 495.3125 C240.2171875 506.14045139 240.2171875 506.14045139 238 510 C234.29888546 512.4674097 231.29179595 512.77653117 227 512 C224 510.125 224 510.125 222 507 C221.60298746 503.62281543 221.70445487 500.38234984 222 497 C221.22140625 497.36351562 220.4428125 497.72703125 219.640625 498.1015625 C181.34067559 515.31006511 139.5744471 516.97183135 100 503 C95.25139019 501.17894123 90.60843998 499.15162264 86 497 C86.08701172 497.99580078 86.08701172 497.99580078 86.17578125 499.01171875 C86.40888203 503.57383395 86.51487244 506.19551181 84 510.125 C79.83594076 512.72753703 77.86097528 512.69442504 73 512 C70.03141843 509.79259319 69.17134209 508.51402627 68 505 C68.00069296 503.63331066 68.0529201 502.26621621 68.140625 500.90234375 C68.60706692 491.26941777 68.60706692 491.26941777 64.5 482.9453125 C61.78393185 480.78070653 58.82453081 479.00789436 55.85351562 477.21728516 C52.5947003 475.07707794 49.82695219 472.42067408 47 469.75 C46.4730957 469.2660376 45.94619141 468.7820752 45.40332031 468.28344727 C41.95855192 465.0736495 38.95178502 461.66802697 36 458 C32.31930113 459.53643852 30.01224796 461.78150945 27.25 464.625 C26.45078125 465.44226563 25.6515625 466.25953125 24.828125 467.1015625 C24.22484375 467.72804688 23.6215625 468.35453125 23 469 C28.35397982 475.52145754 34.31301909 481.39421071 40.3125 487.3125 C42.31146617 489.28488502 44.3070922 491.26056397 46.30078125 493.23828125 C47.17903564 494.10493408 48.05729004 494.97158691 48.9621582 495.86450195 C51.42507146 498.44544149 51.95505886 499.31090254 52.1875 502.875 C52.00322294 505.94628429 51.7058043 507.48618314 50 510 C46.92675747 512.04882835 44.96059958 512.75324531 41.265625 512.59375 C36.77909851 511.41797064 33.92413631 508.01558504 30.75244141 504.78320312 C28.56690681 502.55930445 26.35142045 500.36672338 24.13671875 498.171875 C19.40257107 493.46951494 14.69471347 488.74170398 10 484 C6.02836905 485.59451456 3.39458579 488.36558109 0.46484375 491.375 C-0.05508652 491.90013184 -0.57501678 492.42526367 -1.11070251 492.96630859 C-2.76614218 494.63950892 -4.41472431 496.31925435 -6.0625 498 C-7.7147001 499.67986104 -9.36835341 501.35822399 -11.02500916 503.03369141 C-12.05398384 504.07487621 -13.08027353 505.11872311 -14.10353088 506.16552734 C-17.62754326 509.73878439 -19.74369826 511.85815948 -24.875 512.4375 C-28.25646168 512.33767825 -29.04403368 511.96972685 -32 509.9375 C-34 507 -34 507 -34.75 503.6875 C-32.87476802 494.46760942 -22.13327879 487.01447301 -15.5625 480.5 C-14.5342702 479.47679861 -13.50627374 478.45336267 -12.47851562 477.4296875 C-9.98835662 474.95042001 -7.49507167 472.47432462 -5 470 C-9.23816537 464.93376232 -13.67408963 460.19961931 -18.375 455.5625 C-19.01566406 454.92634766 -19.65632813 454.29019531 -20.31640625 453.63476562 C-21.87531022 452.08749527 -23.43696852 450.54309708 -25 449 C-31.49058974 454.25901783 -37.23213128 460.21704739 -43.05175591 466.19054794 C-46.18526044 469.40121592 -49.33725957 472.59367166 -52.48632812 475.7890625 C-56.4780292 479.84081282 -60.46379958 483.89786176 -64.42797852 487.9765625 C-67.64763323 491.28824905 -70.88651503 494.57999624 -74.13917732 497.85925674 C-75.37074514 499.10807812 -76.5951205 500.3640363 -77.81194878 501.62722397 C-79.51328978 503.39144905 -81.23812366 505.1290674 -82.97045898 506.86279297 C-83.46369156 507.3863588 -83.95692413 507.90992462 -84.46510315 508.44935608 C-87.16966492 511.10015086 -89.33846891 512.37550456 -93.06434631 512.63357544 C-97 512 -97 512 -99.94865417 510.09687805 C-102.7753701 505.8294384 -102.781473 502.4745488 -102.8215332 497.44995117 C-102.84796402 496.49290787 -102.87439484 495.53586456 -102.90162659 494.54981995 C-102.97976497 491.38071601 -103.01872668 488.21285638 -103.05078125 485.04296875 C-103.06616629 483.95218836 -103.08155132 482.86140797 -103.09740257 481.73757362 C-103.17826907 475.94569493 -103.22943506 470.15443355 -103.25610352 464.36206055 C-103.28881847 458.44166076 -103.4187271 452.52783459 -103.57316303 446.60953808 C-103.67509287 442.00784771 -103.70308718 437.40764823 -103.7127285 432.80492592 C-103.72946254 430.62779815 -103.77240408 428.450677 -103.84450722 426.27467918 C-104.26480929 412.63023666 -102.53559692 404.73217485 -93.99389648 393.95922852 C-82.32530862 378.72749341 -83.89591166 362.28639836 -84.30749416 343.96646786 C-84.39556039 339.22272708 -84.38744572 334.47909883 -84.38946533 329.73468018 C-84.40668873 320.78585041 -84.50144534 311.83978269 -84.6284802 302.89190412 C-84.81251399 289.72440402 -84.89253545 276.55614462 -84.95456314 263.3875618 C-84.95913269 262.42037806 -84.96370224 261.45319433 -84.96841025 260.45670199 C-84.97742214 258.52911394 -84.98617517 256.60152466 -84.99466157 254.67393422 C-85.02232142 249.04122945 -85.07816392 243.40969509 -85.15853739 237.77750158 C-85.20568543 234.28989064 -85.2374477 230.80224423 -85.26613808 227.31443787 C-85.28319158 225.69699837 -85.30727903 224.07961568 -85.33886528 222.46239471 C-85.38126584 220.25778343 -85.39919156 218.05425869 -85.41131592 215.8493042 C-85.42840984 214.61577587 -85.44550377 213.38224754 -85.46311569 212.11133957 C-84.90741613 208.37799593 -83.97397952 207.24847044 -81 205 C-66.13393125 200.04464375 -49.67021236 204 -34 204 C-34.33 174.3 -34.66 144.6 -35 114 C-50.43718356 120.44531917 -50.43718356 120.44531917 -65.87304688 126.89379883 C-67.82156716 127.70665665 -69.77013194 128.51940785 -71.71875 129.33203125 C-72.71422852 129.74851929 -73.70970703 130.16500732 -74.73535156 130.59411621 C-77.48593915 131.74030818 -80.24050189 132.87544737 -83 134 C-84.16172729 134.47450089 -84.16172729 134.47450089 -85.34692383 134.95858765 C-90.06124041 136.816689 -93.04553369 137.42917297 -98 136 C-100.4375 134.4375 -100.4375 134.4375 -102 132 C-102.77403846 126.58173077 -102.77403846 126.58173077 -102 124 C-98.20419429 119.54177837 -94.53346201 117.58113893 -89.23046875 115.49609375 C-88.07057686 115.02178169 -88.07057686 115.02178169 -86.88725281 114.53788757 C-84.32517262 113.49293365 -81.75642965 112.46548587 -79.1875 111.4375 C-77.38435168 110.70503139 -75.58179091 109.97111489 -73.77978516 109.23583984 C-70.91483337 108.06727066 -68.04943985 106.89989188 -65.18212891 105.73712158 C-54.44811664 101.38364517 -43.7590824 96.9233555 -33.07070923 92.45925903 C-29.91655144 91.14234838 -26.76152652 89.82753817 -23.60620117 88.51342773 C-21.65152025 87.69907928 -19.69684857 86.88470863 -17.7421875 86.0703125 C-16.85842941 85.70225998 -15.97467133 85.33420746 -15.06413269 84.95500183 C-10.36485214 82.99541608 -5.67597293 81.0145933 -1 79 C-0.67 75.7 -0.34 72.4 0 69 C-0.75310959 69.00666183 -1.50621918 69.01332367 -2.28215027 69.02018738 C-9.38846069 69.08036296 -16.49468246 69.12600706 -23.60117626 69.15543652 C-27.25449198 69.17107533 -30.90759671 69.19228048 -34.56079102 69.22631836 C-38.08805216 69.25897625 -41.61511068 69.27686644 -45.14251137 69.28463173 C-47.13944308 69.29285133 -49.13629358 69.31626061 -51.13310242 69.33988953 C-52.96443474 69.34022942 -52.96443474 69.34022942 -54.83276367 69.34057617 C-55.90531906 69.34723801 -56.97787445 69.35389984 -58.08293152 69.36076355 C-62.38404505 68.82883055 -64.97883599 67.02116401 -68 64 C-69.55998546 52.86242935 -66.27229829 42.13375027 -59.76171875 33.09765625 C-52.61219158 24.5848046 -44.71705517 19.6628908 -34 17 C-31.25398836 16.84077618 -28.61882253 16.76471605 -25.87890625 16.8046875 C-24.76176491 16.80893234 -24.76176491 16.80893234 -23.62205505 16.81326294 C-21.26869899 16.82436083 -18.91573891 16.8494449 -16.5625 16.875 C-14.95638575 16.88504328 -13.35026546 16.89416676 -11.74414062 16.90234375 C-7.82915583 16.92255534 -3.91501545 16.96172174 0 17 C0 11.39 0 5.78 0 0 Z M-45.94140625 45.25390625 C-47.2737162 47.25746556 -47.2737162 47.25746556 -48 51 C-10.38 51 27.24 51 66 51 C64.17735565 45.11968379 64.17735565 45.11968379 60.3125 41.3125 C59.66925781 40.75175781 59.02601563 40.19101562 58.36328125 39.61328125 C52.71754682 35.75925097 47.79289537 34.55201194 41.02026367 34.58007812 C39.87239632 34.56737381 39.87239632 34.56737381 38.70133972 34.55441284 C36.1900435 34.53115544 33.6793642 34.5300181 31.16796875 34.53125 C29.40830749 34.52414063 27.64864853 34.5164405 25.88899231 34.50817871 C22.20644687 34.49475901 18.52411572 34.49315336 14.84155273 34.49902344 C10.14420388 34.50491124 5.44789156 34.47435477 0.75074291 34.43390656 C-2.88263904 34.40793481 -6.51577471 34.40516079 -10.14923668 34.40879822 C-11.87984505 34.40711521 -13.61046581 34.39755236 -15.34098244 34.37965393 C-27.68955414 34.26599859 -37.66228951 35.09850243 -45.94140625 45.25390625 Z M244.05859375 45.25390625 C242.7262838 47.25746556 242.7262838 47.25746556 242 51 C279.62 51 317.24 51 356 51 C354.17735565 45.11968379 354.17735565 45.11968379 350.3125 41.3125 C349.66925781 40.75175781 349.02601563 40.19101562 348.36328125 39.61328125 C342.71754682 35.75925097 337.79289537 34.55201194 331.02026367 34.58007812 C329.87239632 34.56737381 329.87239632 34.56737381 328.70133972 34.55441284 C326.1900435 34.53115544 323.6793642 34.5300181 321.16796875 34.53125 C319.40830749 34.52414063 317.64864853 34.5164405 315.88899231 34.50817871 C312.20644687 34.49475901 308.52411572 34.49315336 304.84155273 34.49902344 C300.14420388 34.50491124 295.44789156 34.47435477 290.75074291 34.43390656 C287.11736096 34.40793481 283.48422529 34.40516079 279.85076332 34.40879822 C278.12015495 34.40711521 276.38953419 34.39755236 274.65901756 34.37965393 C262.31044586 34.26599859 252.33771049 35.09850243 244.05859375 45.25390625 Z M27 154 C27 159.28 27 164.56 27 170 C54.72 170 82.44 170 111 170 C111 164.72 111 159.44 111 154 C83.28 154 55.56 154 27 154 Z M197 154 C197 159.28 197 164.56 197 170 C224.72 170 252.44 170 281 170 C281 164.72 281 159.44 281 154 C253.28 154 225.56 154 197 154 Z M27 188 C27 193.28 27 198.56 27 204 C30.70283203 204.05607422 30.70283203 204.05607422 34.48046875 204.11328125 C36.88005261 204.15953688 39.27948297 204.21075571 41.67895508 204.26245117 C43.34227108 204.29563655 45.00569796 204.32368834 46.66918945 204.34643555 C49.06509499 204.38009999 51.45999035 204.4324194 53.85546875 204.48828125 C54.96513252 204.49786613 54.96513252 204.49786613 56.09721375 204.50764465 C60.54308862 204.63329971 63.46144732 205.2548976 67 208 C68.14654482 210.29308963 68.19729117 211.79909656 68.31640625 214.3515625 C68.35830078 215.20234375 68.40019531 216.053125 68.44335938 216.9296875 C68.48267578 217.81914062 68.52199219 218.70859375 68.5625 219.625 C68.60568359 220.5221875 68.64886719 221.419375 68.69335938 222.34375 C68.79956861 224.56234283 68.90161194 226.7810488 69 229 C72.45700371 227.72466343 75.60499258 226.14768238 78.80957031 224.33422852 C89.04774986 218.57215463 99.88223496 214.70592168 111 211 C111 203.41 111 195.82 111 188 C83.28 188 55.56 188 27 188 Z M129 188 C129 193.94 129 199.88 129 206 C137.69358706 206.21213203 137.69358706 206.21213203 145 205 C145 199.39 145 193.78 145 188 C139.72 188 134.44 188 129 188 Z M163 188 C163 193.61 163 199.22 163 205 C170.30641294 206.21213203 170.30641294 206.21213203 179 206 C179 200.06 179 194.12 179 188 C173.72 188 168.44 188 163 188 Z M197 188 C197 195.59 197 203.18 197 211 C201.9809375 212.7325 201.9809375 212.7325 207.0625 214.5 C215.46818304 217.49259267 223.25657369 220.92145289 231.00390625 225.3359375 C233.63047514 226.79476194 236.18581779 227.96236857 239 229 C239.01458252 228.44538086 239.02916504 227.89076172 239.04418945 227.31933594 C239.11886897 224.79553758 239.21546025 222.27303346 239.3125 219.75 C239.33505859 218.87730469 239.35761719 218.00460938 239.38085938 217.10546875 C239.65170432 210.65443453 239.65170432 210.65443453 241.35546875 207.453125 C244.95115546 204.27593865 249.41919458 204.78452451 253.94921875 204.68359375 C255.10814384 204.6524221 255.10814384 204.6524221 256.29048157 204.62062073 C258.7560648 204.55528962 261.22175361 204.49631685 263.6875 204.4375 C265.36003691 204.39429913 267.03256319 204.35068434 268.70507812 204.30664062 C272.80327882 204.19884676 276.90156084 204.09965165 281 204 C281 198.72 281 193.44 281 188 C253.28 188 225.56 188 197 188 Z M-67 222 C-67 227.28 -67 232.56 -67 238 C-56.11 238 -45.22 238 -34 238 C-34 232.72 -34 227.44 -34 222 C-44.89 222 -55.78 222 -67 222 Z M-16 222 C-16 227.28 -16 232.56 -16 238 C6.11 238 28.22 238 51 238 C51 232.72 51 227.44 51 222 C28.89 222 6.78 222 -16 222 Z M257 222 C257 227.28 257 232.56 257 238 C279.11 238 301.22 238 324 238 C324 232.72 324 227.44 324 222 C301.89 222 279.78 222 257 222 Z M342 222 C342 227.28 342 232.56 342 238 C352.89 238 363.78 238 375 238 C375 232.72 375 227.44 375 222 C364.11 222 353.22 222 342 222 Z M56.75 262.875 C31.68803016 288.37347474 17.96910048 323.39866019 17.625 359.0625 C18.03709814 397.40462061 34.29787536 430.98140574 61 458 C64.54155169 461.17675667 68.21344859 464.12156049 72 467 C73.11375 467.87205078 73.11375 467.87205078 74.25 468.76171875 C91.54286616 481.64130136 111.88560753 489.31756518 133 493 C134.5159375 493.27650391 134.5159375 493.27650391 136.0625 493.55859375 C170.86297055 497.45983698 206.98089125 489.61051695 235.0625 468 C237.06392186 466.36012531 239.04382896 464.69359775 241 463 C241.75434326 462.35877197 241.75434326 462.35877197 242.52392578 461.70458984 C268.36260242 439.62843022 285.84695651 407.78624391 289.75390625 373.83203125 C292.34923239 333.41909564 281.13881266 296.93949708 254.41748047 266.17822266 C229.29917273 238.22052301 193.78920027 224.28891682 156.8815918 222.08837891 C119.52575406 220.3337645 82.98072777 237.00917721 56.75 262.875 Z M-67 256 C-67 284.05 -67 312.1 -67 341 C-56.11 341 -45.22 341 -34 341 C-34 312.95 -34 284.9 -34 256 C-44.89 256 -55.78 256 -67 256 Z M-16 256 C-16 284.05 -16 312.1 -16 341 C-10.39 341 -4.78 341 1 341 C1.29132813 339.54851562 1.58265625 338.09703125 1.8828125 336.6015625 C5.74288082 317.82912084 10.80010207 300.85120746 20 284 C20.5775 282.93007813 21.155 281.86015625 21.75 280.7578125 C25.91200869 273.33941738 30.79132609 266.70263465 36 260 C36.99 258.68 37.98 257.36 39 256 C20.85 256 2.7 256 -16 256 Z M270 256 C272.02420415 259.37367358 274.03229238 262.46280182 276.36206055 265.60302734 C285.89776003 278.51023163 292.80453286 292.23633362 299 307 C307.25 307 315.5 307 324 307 C324 290.17 324 273.34 324 256 C306.18 256 288.36 256 270 256 Z M342 256 C342 272.83 342 289.66 342 307 C352.89 307 363.78 307 375 307 C375 290.17 375 273.34 375 256 C364.11 256 353.22 256 342 256 Z M304 325 C304.4640625 327.6296875 304.4640625 327.6296875 304.9375 330.3125 C311.22976247 365.96865398 305.99302771 407.34488016 285.1328125 437.71875 C283.7613983 439.87969381 283.7613983 439.87969381 284.4296875 441.921875 C286.73474259 444.97234592 289.38404566 447.59171946 292.125 450.25 C292.68832031 450.80429687 293.25164062 451.35859375 293.83203125 451.9296875 C295.21686028 453.29104485 296.60783204 454.64614859 298 456 C308.74504156 450.82809737 319.26172533 443.31638838 324 432 C328.17244387 415.73890597 326.17251969 397.48262521 325.51062012 380.88824463 C325.28331114 374.58077843 325.18462066 368.2713407 325.07421875 361.9609375 C324.84003795 349.63462691 324.4540448 337.32017233 324 325 C317.4 325 310.8 325 304 325 Z M342 325 C340.55524587 341.63440461 339.50773633 358.24927245 338.9375 374.9375 C338.8957024 376.15454369 338.8539048 377.37158737 338.81084061 378.62551117 C337.43594402 418.65264462 337.43594402 418.65264462 356.12098694 452.58732605 C359.38696775 455.97363329 362.84754693 459.08750667 366.4375 462.125 C367.02139874 462.62019512 367.60529747 463.11539024 368.20689011 463.62559128 C379.31785349 474.09457613 379.31785349 474.09457613 392 480 C392.32818516 471.36688038 392.57497649 462.7364725 392.72537041 454.09860706 C392.7976545 450.08486047 392.89518041 446.07545551 393.05615234 442.06420898 C393.83392289 422.17108276 393.68640131 407.48754941 379.49832153 391.92704773 C376.30719208 387.82281601 375.74563586 384.0295059 375.68115234 378.92456055 C375.66128265 377.72369308 375.64141296 376.52282562 375.62094116 375.28556824 C375.60938995 373.99894791 375.59783875 372.71232758 375.5859375 371.38671875 C375.56721402 370.04863811 375.54763973 368.71056913 375.5272522 367.37251282 C375.4760493 363.86273084 375.43636064 360.35291062 375.39910889 356.84295654 C375.35899462 353.2565376 375.30804148 349.67027357 375.2578125 346.08398438 C375.16017404 339.05604919 375.08056498 332.02823468 375 325 C364.11 325 353.22 325 342 325 Z M-67 359 C-67.13055148 367.10592872 -67.13055148 367.10592872 -67.20776367 375.21240234 C-67.45797171 384.38478545 -69.30130164 391.20120814 -75.75390625 397.92529297 C-87.55136167 411.02527245 -85.26857615 427.57288123 -84.75531006 444.08441162 C-84.64145461 448.1402686 -84.59226652 452.1969017 -84.53710938 456.25390625 C-84.42019576 464.17137718 -84.23324075 472.08510426 -84 480 C-82.57965454 478.74582275 -82.57965454 478.74582275 -81.13061523 477.46630859 C-78.26461042 475.00429459 -75.31627465 472.73212624 -72.25805664 470.51416016 C-66.3004368 466.14555283 -60.60585714 461.50752873 -55.0625 456.625 C-54.31100992 455.96387522 -54.31100992 455.96387522 -53.54433823 455.28939438 C-40.48254352 443.62040491 -32.53593772 432.44823953 -31.29763985 414.61524963 C-30.35455738 396.02930067 -32.03948843 377.46528343 -34 359 C-44.89 359 -55.78 359 -67 359 Z M-16 359 C-16.54854324 368.10300469 -16.98577278 377.19459467 -17.24349213 386.31056213 C-17.36738202 390.54690707 -17.53419844 394.77113322 -17.81054688 399.00048828 C-19.55448778 420.74057193 -19.55448778 420.74057193 -10.55078125 439.73046875 C-4.98820428 445.84955575 1.34457577 451.11346548 8 456 C10.79570164 454.65272739 12.83967803 453.40293767 15.015625 451.1796875 C15.54414062 450.64472656 16.07265625 450.10976563 16.6171875 449.55859375 C17.15601563 449.00300781 17.69484375 448.44742188 18.25 447.875 C19.08144531 447.03001953 19.08144531 447.03001953 19.9296875 446.16796875 C21.29104485 444.78313972 22.64614859 443.39216796 24 442 C22.72519586 438.54443953 21.15052353 435.39724967 19.33520508 432.1953125 C6.61025713 409.54618098 1.77633939 384.69063982 0 359 C-5.28 359 -10.56 359 -16 359 Z " fill="#ffffff" transform="translate(102,0)"/>
<path d="M0 0 C1.02351562 0.45117188 2.04703125 0.90234375 3.1015625 1.3671875 C31.87904561 14.80680362 52.69302428 40.15427965 63.7890625 69.48828125 C74.52856053 100.63282554 71.59500454 134.79635138 57.25 164.25 C49.0148952 180.41328652 37.41259901 194.02093029 23 205 C21.81470703 205.90878906 21.81470703 205.90878906 20.60546875 206.8359375 C-5.53137524 225.99428749 -37.6540993 232.66277245 -69.6171875 228.34375 C-99.94190545 223.30458479 -127.4325827 206.33931107 -146 182 C-146.60585937 181.22140625 -147.21171875 180.4428125 -147.8359375 179.640625 C-166.66272755 154.25427461 -173.0654907 121.78262185 -168.98681641 90.81420898 C-167.96595861 84.00483441 -166.17170064 77.52269527 -164 71 C-163.65195313 69.94425781 -163.30390625 68.88851562 -162.9453125 67.80078125 C-158.23955658 54.60843793 -151.25373625 42.50908807 -142 32 C-141.31421875 31.18273437 -140.6284375 30.36546875 -139.921875 29.5234375 C-119.36237167 5.63595701 -90.5611299 -7.59250929 -59.5 -10.8125 C-38.74637724 -11.86331634 -18.92372135 -8.61743833 0 0 Z M-124 39 C-143.02316327 59.1093624 -152.48473368 85.21384486 -152.2109375 112.8125 C-151.2998094 136.61431559 -142.41181263 157.97601574 -127 176 C-126.5565625 176.5878125 -126.113125 177.175625 -125.65625 177.78125 C-111.94186184 195.50960542 -87.18601363 207.24865862 -65.3984375 210.53125 C-36.53123992 214.05131474 -9.687787 206.94729443 13.28515625 189.1484375 C14.18105469 188.43945312 15.07695312 187.73046875 16 187 C16.65871094 186.49726563 17.31742188 185.99453125 17.99609375 185.4765625 C37.16291563 170.16081107 48.38959992 144.80714897 51.58984375 120.95703125 C54.44949701 93.36818601 46.47979269 66.33701674 29.06787109 44.7902832 C12.8286667 25.22852973 -10.48068804 11.1304746 -36 8 C-37.07765625 7.86722656 -38.1553125 7.73445313 -39.265625 7.59765625 C-71.4842648 4.54716801 -101.1851657 16.29346396 -124 39 Z " fill="#ffffff" transform="translate(306,249)"/>
</svg>
