<?xml version="1.0" standalone="no"?>
<!DOCTYPE svg PUBLIC "-//W3C//DTD SVG 20010904//EN"
 "http://www.w3.org/TR/2001/REC-SVG-20010904/DTD/svg10.dtd">
<svg version="1.0" xmlns="http://www.w3.org/2000/svg"
 width="512.000000pt" height="512.000000pt" viewBox="0 0 512.000000 512.000000"
 preserveAspectRatio="xMidYMid meet">

<g transform="translate(0.000000,512.000000) scale(0.100000,-0.100000)"
fill="#ffffff" stroke="none">
<path d="M1746 4950 c-63 -16 -153 -70 -197 -117 -22 -24 -55 -74 -72 -111
-29 -61 -32 -76 -32 -163 0 -90 2 -99 37 -171 45 -91 103 -147 196 -191 61
-29 76 -32 162 -32 86 0 101 3 162 32 93 44 151 100 196 191 35 72 37 81 37
172 0 91 -2 100 -37 172 -68 136 -188 217 -336 224 -42 2 -94 -1 -116 -6z
m168 -162 c55 -16 138 -99 154 -154 28 -94 8 -169 -63 -239 -51 -52 -102 -75
-165 -75 -124 0 -240 116 -240 240 0 63 23 114 75 165 70 71 145 90 239 63z"/>
<path d="M3026 4950 c-63 -16 -153 -70 -197 -117 -22 -24 -55 -74 -72 -111
-29 -61 -32 -76 -32 -163 0 -90 2 -99 37 -171 45 -91 103 -147 196 -191 61
-29 76 -32 162 -32 86 0 101 3 162 32 93 44 151 100 196 191 35 72 37 81 37
172 0 91 -2 100 -37 172 -68 136 -188 217 -336 224 -42 2 -94 -1 -116 -6z
m168 -162 c86 -26 166 -136 166 -228 0 -124 -116 -240 -240 -240 -63 0 -114
23 -165 75 -102 101 -102 229 0 330 70 71 145 90 239 63z"/>
<path d="M2361 4144 c-253 -68 -410 -331 -346 -579 67 -256 329 -415 580 -350
256 67 415 329 350 578 -67 259 -333 419 -584 351z m270 -185 c67 -36 98 -68
137 -143 22 -43 26 -64 26 -136 1 -78 -2 -90 -33 -148 -38 -70 -70 -100 -145
-140 -43 -22 -64 -26 -136 -26 -78 -1 -90 2 -148 33 -69 37 -109 80 -144 151
-17 36 -22 63 -22 130 0 100 24 160 89 225 100 100 249 121 376 54z"/>
<path d="M1081 3984 c-253 -68 -410 -331 -346 -579 67 -256 329 -415 580 -350
256 67 415 329 350 578 -67 259 -333 419 -584 351z m270 -185 c67 -36 98 -68
137 -143 22 -43 26 -64 26 -136 1 -78 -2 -90 -33 -148 -38 -70 -70 -100 -145
-140 -43 -22 -64 -26 -136 -26 -78 -1 -90 2 -148 33 -69 37 -109 80 -144 151
-17 36 -22 63 -22 130 0 100 24 160 89 225 100 100 249 121 376 54z"/>
<path d="M3641 3984 c-253 -68 -410 -331 -346 -579 67 -256 329 -415 580 -350
256 67 415 329 350 578 -67 259 -333 419 -584 351z m270 -185 c67 -36 98 -68
137 -143 22 -43 26 -64 26 -136 1 -78 -2 -90 -33 -148 -38 -70 -70 -100 -145
-140 -43 -22 -64 -26 -136 -26 -78 -1 -90 2 -148 33 -69 37 -109 80 -144 151
-17 36 -22 63 -22 130 0 100 24 160 89 225 100 100 249 121 376 54z"/>
<path d="M1963 3025 c-176 -48 -317 -195 -353 -371 -7 -35 -11 -126 -8 -243 3
-185 3 -186 35 -253 42 -90 100 -150 186 -193 38 -19 76 -35 83 -35 12 0 14
-140 14 -860 l0 -861 25 -24 c32 -33 78 -33 110 0 l25 24 0 911 0 911 -25 24
c-15 16 -35 25 -56 25 -62 0 -113 23 -165 75 -70 70 -77 101 -72 316 4 160 6
178 28 224 31 63 91 124 155 155 l50 25 451 0 450 0 76 -37 c91 -45 147 -103
191 -196 30 -63 32 -75 35 -205 5 -177 -4 -215 -72 -282 -32 -32 -66 -55 -92
-63 -29 -8 -146 -12 -393 -12 l-352 0 -24 -25 c-33 -32 -33 -78 0 -110 l24
-25 296 0 295 0 0 -855 0 -856 25 -24 c32 -33 78 -33 110 0 l25 24 0 861 c0
720 2 860 14 860 7 0 45 16 83 35 86 43 144 103 186 193 30 63 32 75 35 209 5
176 -8 254 -58 359 -73 152 -232 274 -394 303 -94 17 -877 13 -943 -4z"/>
<path d="M680 2857 c-158 -54 -291 -211 -340 -402 -19 -74 -20 -111 -20 -683
0 -446 3 -616 12 -646 8 -26 31 -60 63 -92 59 -59 117 -80 195 -71 l50 6 0
-380 0 -380 25 -24 c32 -33 78 -33 110 0 l25 24 0 991 0 991 -25 24 c-15 16
-36 25 -55 25 -19 0 -40 -9 -55 -25 l-25 -24 0 -511 0 -511 -25 -24 c-32 -33
-78 -33 -110 0 l-25 24 0 598 c0 467 3 609 14 648 30 114 107 221 195 273 l46
27 333 5 334 5 19 24 c26 32 24 77 -6 106 l-24 25 -323 0 c-307 -1 -326 -2
-388 -23z"/>
<path d="M3545 2855 c-30 -29 -32 -74 -6 -106 l19 -24 334 -5 333 -5 46 -27
c88 -52 165 -159 195 -273 11 -39 14 -181 14 -648 l0 -598 -25 -24 c-32 -33
-78 -33 -110 0 l-25 24 0 511 0 511 -25 24 c-32 33 -78 33 -110 0 l-25 -24 0
-991 0 -991 25 -24 c32 -33 78 -33 110 0 l25 24 0 380 0 380 50 -6 c78 -9 136
12 195 71 32 32 55 66 63 92 9 30 12 200 12 646 0 565 -1 610 -19 680 -50 195
-190 359 -348 408 -59 18 -93 20 -385 20 l-319 0 -24 -25z"/>
<path d="M1965 2578 c-48 -26 -57 -70 -29 -150 16 -48 70 -110 118 -135 58
-30 120 -26 433 26 166 28 311 51 323 51 11 0 32 -11 45 -25 21 -20 25 -34 25
-80 0 -46 4 -60 25 -80 15 -16 36 -25 55 -25 19 0 40 9 55 25 50 49 26 200
-41 269 -87 89 -114 91 -508 25 -311 -51 -324 -52 -349 -36 -15 10 -29 28 -32
42 -3 14 -7 36 -10 50 -3 14 -18 31 -35 40 -34 18 -48 18 -75 3z"/>
<path d="M2425 1335 l-25 -24 0 -551 0 -551 25 -24 c32 -33 78 -33 110 0 l25
24 0 551 0 551 -25 24 c-15 16 -36 25 -55 25 -19 0 -40 -9 -55 -25z"/>
<path d="M1145 935 l-25 -24 0 -351 0 -351 25 -24 c32 -33 78 -33 110 0 l25
24 0 351 0 351 -25 24 c-15 16 -36 25 -55 25 -19 0 -40 -9 -55 -25z"/>
<path d="M3705 935 l-25 -24 0 -351 0 -351 25 -24 c32 -33 78 -33 110 0 l25
24 0 351 0 351 -25 24 c-15 16 -36 25 -55 25 -19 0 -40 -9 -55 -25z"/>
</g>
</svg>
