<?xml version="1.0" encoding="UTF-8"?>
<svg version="1.1" xmlns="http://www.w3.org/2000/svg" width="512" height="512">
<path d="M0 0 C2.18222411 1.77888062 4.09167065 3.73605354 6.06176758 5.75 C7.32696943 6.9952449 8.59407522 8.2385568 9.86254883 9.48046875 C12.57327853 12.1500391 15.27934689 14.82382812 17.96411133 17.51953125 C18.8225061 18.37961792 18.8225061 18.37961792 19.69824219 19.25708008 C22.21246616 22.00989648 22.33358491 24.29750209 22.49926758 27.9375 C22.55985352 28.85917969 22.62043945 29.78085937 22.68286133 30.73046875 C21.75175807 35.25715315 19.52025001 37.75759306 16.06176758 40.75 C12.54217594 43.03085858 8.86862361 44.9290964 5.12426758 46.8125 C-5.02513206 51.97884991 -12.0490119 56.97622226 -18.68823242 66.25 C-19.72912137 67.66073041 -20.77080547 69.07087443 -21.81323242 70.48046875 C-23.35707359 72.58505372 -24.8965719 74.69241608 -26.42651367 76.80712891 C-27.83047488 78.73852163 -29.25689714 80.65134786 -30.68823242 82.5625 C-31.30456543 83.43261719 -31.30456543 83.43261719 -31.93334961 84.3203125 C-35.24219631 88.690389 -38.68229104 90.62032626 -43.93823242 91.75 C-46.47729492 91.640625 -46.47729492 91.640625 -48.56323242 91 C-49.31991211 90.79761719 -50.0765918 90.59523438 -50.85620117 90.38671875 C-52.53307174 89.87390467 -54.20521436 89.34564406 -55.87573242 88.8125 C-60.89316612 88.71010339 -64.63337315 91.37805913 -68.93823242 93.75 C-69.55593506 94.03020996 -70.1736377 94.31041992 -70.81005859 94.59912109 C-75.99519024 96.98021999 -79.5927796 99.87467032 -83.50073242 104 C-84.02602539 104.53496094 -84.55131836 105.06992188 -85.0925293 105.62109375 C-87.92496889 108.53307682 -90.62862929 111.53043241 -93.27807617 114.609375 C-97.98809627 120.03654793 -103.14548794 125.00411365 -108.26635742 130.0390625 C-111.76916169 133.50612387 -115.19586964 136.97804602 -118.40698242 140.71875 C-123.25119271 146.35544631 -128.61754314 151.47387138 -133.91088867 156.68359375 C-138.17295623 160.9046141 -142.24481801 165.18968391 -146.15112305 169.74023438 C-150.28879406 174.3934185 -154.82831474 178.67548362 -159.26635742 183.0390625 C-162.77954643 186.51640264 -166.21548506 190.00002899 -169.43823242 193.75 C-174.07625255 199.14677457 -179.19576145 204.05354364 -184.26635742 209.0390625 C-187.76916169 212.50612387 -191.19586964 215.97804602 -194.40698242 219.71875 C-199.25119271 225.35544631 -204.61754314 230.47387138 -209.91088867 235.68359375 C-214.17295623 239.9046141 -218.24481801 244.18968391 -222.15112305 248.74023438 C-226.28879406 253.3934185 -230.82831474 257.67548362 -235.26635742 262.0390625 C-239.48500826 266.21466589 -243.51538695 270.46705255 -247.3840332 274.96875 C-249.44776026 277.33396405 -251.63958498 279.54825483 -253.87573242 281.75 C-254.64788086 282.513125 -255.4200293 283.27625 -256.21557617 284.0625 C-257.06829102 284.8978125 -257.06829102 284.8978125 -257.93823242 285.75 C-254.68891 292.38403329 -250.27034404 297.65695731 -243.50463867 300.92578125 C-235.70904343 303.42938946 -228.91773696 301.58394206 -221.56713867 298.65625 C-215.96731255 296.72584931 -211.08491742 296.97423172 -205.68823242 299.375 C-200.93008884 302.04373921 -197.68793277 305.50089896 -195.93823242 310.75 C-195.2364597 317.87126741 -195.40481977 323.99071556 -199.93823242 329.75 C-209.01790625 339.61112116 -222.13705937 344.89860211 -233.93823242 350.75 C-235.1829834 351.3685083 -235.1829834 351.3685083 -236.45288086 351.99951172 C-237.21890625 352.37994629 -237.98493164 352.76038086 -238.77416992 353.15234375 C-239.49580322 353.51126709 -240.21743652 353.87019043 -240.9609375 354.23999023 C-242.26786795 354.88712025 -243.57739249 355.5290531 -244.89013672 356.16430664 C-250.86593573 359.09000115 -256.35511361 361.98341816 -259.93823242 367.75 C-260.88085734 370.72777002 -261.41491665 373.7367576 -261.93823242 376.8125 C-262.10210449 377.68938477 -262.26597656 378.56626953 -262.43481445 379.46972656 C-263.11334858 383.1028329 -263.75889581 386.74155914 -264.40600586 390.38037109 C-268.18952143 411.42167705 -274.56477681 429.37722914 -288.93823242 445.75 C-289.9359668 446.89082031 -289.9359668 446.89082031 -290.95385742 448.0546875 C-306.37045133 464.55615283 -328.53754514 472.77463227 -350.77026367 473.953125 C-384.72335517 474.35296514 -416.47533125 462.16968 -441.93823242 439.75 C-442.86249023 438.95851563 -443.78674805 438.16703125 -444.73901367 437.3515625 C-451.22151577 431.66704475 -456.70821635 425.59445726 -461.93823242 418.75 C-462.60467773 417.89921875 -463.27112305 417.0484375 -463.95776367 416.171875 C-484.78475336 388.73118641 -493.39998713 356.14619197 -489.62182617 321.88037109 C-487.71551581 310.21347405 -483.51513763 295.3269052 -474.93823242 286.75 C-467.89977088 286.17307692 -467.89977088 286.17307692 -464.43823242 288.25 C-462.27202956 291.86033811 -462.05226636 294.73009428 -462.93823242 298.75 C-463.79683682 300.61123276 -464.72085163 302.44291304 -465.68823242 304.25 C-475.37861895 322.75817901 -475.95376351 346.17182951 -470.12963867 366.07421875 C-469.53989258 367.89373047 -469.53989258 367.89373047 -468.93823242 369.75 C-468.57600586 370.87019531 -468.2137793 371.99039062 -467.84057617 373.14453125 C-460.84876125 392.74531411 -448.9715117 409.45005142 -433.93823242 423.75 C-433.26791992 424.40355469 -432.59760742 425.05710937 -431.90698242 425.73046875 C-410.57040911 445.85473676 -381.22488041 457.70083045 -351.84838867 457.03515625 C-332.82105347 455.64754839 -314.64267492 448.77827019 -301.48120117 434.609375 C-287.80000088 418.12266275 -283.13024374 400.03085428 -279.93823242 379.3125 C-276.5643711 357.61170122 -276.5643711 357.61170122 -267.93823242 350.75 C-267.40294922 350.27280518 -266.86766602 349.79561035 -266.31616211 349.30395508 C-258.25039351 342.46134035 -248.59203568 338.56142557 -239.07641602 334.15673828 C-227.12414665 328.65735557 -227.12414665 328.65735557 -216.48706055 320.98242188 C-214.93823242 319.75 -214.93823242 319.75 -212.93823242 319.75 C-212.93823242 318.1 -212.93823242 316.45 -212.93823242 314.75 C-216.21281931 315.3417236 -219.19116533 316.17869669 -222.31323242 317.3125 C-232.84854388 320.48408408 -244.18216791 319.933865 -253.93823242 314.75 C-260.3031503 310.70797016 -265.22262479 305.58764932 -269.93823242 299.75 C-274.4099064 303.56955486 -278.84590727 307.42225287 -283.23901367 311.33203125 C-285.91889433 313.56834546 -287.76061426 313.95174363 -291.18823242 314.0625 C-291.93588867 314.09988281 -292.68354492 314.13726562 -293.45385742 314.17578125 C-299.56952656 313.12765556 -304.15473718 307.82988789 -308.36010742 303.59375 C-308.9461676 303.00960327 -309.53222778 302.42545654 -310.13604736 301.8236084 C-311.36537303 300.59563612 -312.59220724 299.36516503 -313.81665039 298.13232422 C-315.68961193 296.24861258 -317.57305871 294.37586015 -319.45776367 292.50390625 C-320.65502037 291.30532856 -321.85165685 290.10613095 -323.04760742 288.90625 C-323.60905457 288.34885132 -324.17050171 287.79145264 -324.7489624 287.21716309 C-328.77980249 283.13755216 -331.2115051 280.17345744 -331.31323242 274.375 C-331.3415918 273.64539063 -331.36995117 272.91578125 -331.39916992 272.1640625 C-330.17852829 265.77121056 -324.66081139 261.19350676 -320.18823242 256.8125 C-319.60557617 256.23048828 -319.02291992 255.64847656 -318.42260742 255.04882812 C-315.39672196 252.05280338 -312.30899134 249.17713195 -309.07885742 246.40234375 C-304.28933517 242.25809908 -299.87873197 237.76177562 -295.43823242 233.25 C-290.31307287 228.04257465 -285.18475715 222.94942161 -279.59838867 218.23413086 C-277.41844504 216.28532537 -275.65487622 214.11038522 -273.93823242 211.75 C-274.5009082 210.98429687 -274.5009082 210.98429687 -275.07495117 210.203125 C-283.64875466 198.02270896 -288.04251917 185.00122877 -285.47729492 170.06640625 C-282.2340275 158.14262895 -275.28550044 148.36740696 -266.16870117 140.15625 C-264.60898012 138.68514171 -264.60898012 138.68514171 -264.93823242 135.75 C-276.27142316 137.35994859 -284.71632916 141.01222566 -293.93823242 147.75 C-294.5337793 148.17796875 -295.12932617 148.6059375 -295.74291992 149.046875 C-311.43011884 161.33638567 -318.86418802 182.2494594 -325.98803711 200.06274414 C-333.59695399 218.99534643 -342.84575299 235.64448735 -362.34448242 244.23046875 C-368.79373624 246.8468673 -375.36337562 248.57526347 -382.12078857 250.20211792 C-402.52069839 255.14078524 -421.79640648 261.03393237 -439.12573242 273.3125 C-441.72977137 275.10873496 -443.00731371 275.76461335 -446.18823242 276.4375 C-450.05436505 275.47096684 -451.58571287 273.93282057 -453.93823242 270.75 C-454.63909357 267.01207386 -454.41753947 265.45268434 -452.27026367 262.3046875 C-435.51554734 243.95027464 -403.73658734 237.80608054 -380.72680664 232.21240234 C-367.54698929 229.00439255 -357.38128024 223.8202649 -350.13012695 211.91552734 C-344.44508776 201.58650285 -340.19431664 190.39628191 -335.81323242 179.46875 C-326.18855881 155.58547806 -311.91952549 135.10071206 -288.06323242 123.75 C-286.36694028 123.05326462 -284.65944359 122.38267634 -282.93823242 121.75 C-282.28983398 121.50636719 -281.64143555 121.26273437 -280.97338867 121.01171875 C-273.81671027 118.7875502 -263.68074242 117.83537866 -256.87573242 121.3125 C-252.3803706 125.04269385 -249.06152419 128.91576012 -247.93823242 134.75 C-247.43558765 141.41004321 -249.00586241 145.98026965 -252.81323242 151.4375 C-254.93823242 153.75 -254.93823242 153.75 -257.34057617 155.55859375 C-260.09478148 157.8820662 -261.72563205 160.07629963 -263.62573242 163.125 C-264.20709961 164.04023438 -264.7884668 164.95546875 -265.38745117 165.8984375 C-269.11727257 172.75679926 -270.1882142 179.05290354 -268.18041992 186.59765625 C-266.41404688 191.76464512 -264.51646438 195.57038452 -260.93823242 199.75 C-253.43305403 193.30082661 -246.47310942 186.36082609 -239.53637695 179.31103516 C-236.10030825 175.8358604 -232.65331306 172.44411866 -228.94604492 169.2578125 C-224.36974541 165.32380064 -220.16706661 161.05099859 -215.93823242 156.75 C-207.51631285 148.18436166 -207.51631285 148.18436166 -202.96948242 144.28125 C-198.20656728 140.18797243 -193.84109116 135.72353063 -189.43823242 131.25 C-184.41895733 126.15015869 -179.37777617 121.19816517 -173.94799805 116.53710938 C-170.10514052 113.11999116 -166.54214555 109.41541335 -162.93823242 105.75 C-154.51631285 97.18436166 -154.51631285 97.18436166 -149.96948242 93.28125 C-145.20656728 89.18797243 -140.84109116 84.72353063 -136.43823242 80.25 C-130.10423908 73.81433742 -123.74180243 67.51496028 -116.62573242 61.9375 C-114.8289469 59.60833358 -114.38749516 58.09775091 -113.63745117 55.28515625 C-111.98021024 49.57402531 -109.64057445 44.34817819 -107.06323242 39 C-106.43094727 37.64068359 -106.43094727 37.64068359 -105.78588867 36.25390625 C-100.0252837 24.18658391 -100.0252837 24.18658391 -93.55541992 21.17578125 C-92.32049805 20.80839844 -91.08557617 20.44101562 -89.81323242 20.0625 C-89.15524658 19.86245361 -88.49726074 19.66240723 -87.81933594 19.45629883 C-85.86408868 18.86803848 -83.90222241 18.30823479 -81.93823242 17.75 C-80.87733398 17.42773438 -79.81643555 17.10546875 -78.72338867 16.7734375 C-69.29597815 14.00599463 -69.29597815 14.00599463 -64.93823242 14.75 C-61.99395507 16.81895165 -61.09490287 18.25909927 -60.00073242 21.6875 C-59.92132904 25.57826559 -60.44165495 26.75410704 -62.93823242 29.75 C-65.95651228 31.19201242 -69.09337039 32.05518045 -72.31323242 32.9375 C-74.8153282 33.66348688 -77.31580401 34.39299525 -79.81152344 35.140625 C-81.93823242 35.75 -81.93823242 35.75 -84.73901367 36.32421875 C-88.63458907 38.84976941 -89.94378309 43.22593166 -91.75073242 47.375 C-92.15743164 48.2721875 -92.56413086 49.169375 -92.9831543 50.09375 C-93.98345624 52.30618253 -94.96759963 54.52443006 -95.93823242 56.75 C-91.89196807 61.55693648 -87.74369843 66.23283374 -83.37573242 70.75 C-82.54912109 71.64525391 -82.54912109 71.64525391 -81.70581055 72.55859375 C-79.90148694 74.48162593 -79.90148694 74.48162593 -76.93823242 76.75 C-73.58087022 76.71124257 -71.85829363 75.71162938 -68.81323242 74.25 C-61.11438544 70.84506332 -53.8060293 71.57057819 -45.93823242 73.75 C-44.82067498 72.32765417 -43.70317856 70.90526037 -42.5859375 69.48266602 C-41.60110058 68.22976114 -40.61523724 66.97766248 -39.62841797 65.72631836 C-37.07467012 62.48510079 -34.53734772 59.23398789 -32.03979492 55.94921875 C-22.49442323 43.44045815 -12.30734091 35.3660356 2.06176758 28.75 C2.72176758 28.75 3.38176758 28.75 4.06176758 28.75 C2.36211407 26.77605082 0.65261988 24.81336799 -1.07885742 22.8671875 C-2.55917285 21.18161825 -3.97871529 19.44272666 -5.37573242 17.6875 C-7.85996803 15.41414542 -7.85996803 15.41414542 -11.37573242 15.6875 C-16.50192948 16.68155342 -21.50042014 18.33827306 -26.47338867 19.91015625 C-30.12262526 20.794695 -33.19754139 20.99968205 -36.93823242 20.75 C-39.37573242 19.25 -39.37573242 19.25 -40.93823242 16.75 C-41.54744778 13.94531045 -41.80380613 11.50263191 -40.93823242 8.75 C-35.7865482 4.03198441 -30.28795387 2.75031547 -23.68823242 0.9375 C-22.59381836 0.61330078 -21.4994043 0.28910156 -20.37182617 -0.04492188 C-6.2102244 -4.00508237 -6.2102244 -4.00508237 0 0 Z M-107.37182617 75.12109375 C-108.88650239 76.65997252 -110.39372226 78.20595053 -111.90112305 79.75195312 C-115.73782219 83.64979488 -115.73782219 83.64979488 -117.93823242 84.75 C-116.27959737 89.07504836 -113.06719142 91.84418825 -109.81323242 95 C-109.24991211 95.55429688 -108.6865918 96.10859375 -108.10620117 96.6796875 C-106.72137215 98.04104485 -105.33040038 99.39614859 -103.93823242 100.75 C-99.0188734 96.63380164 -94.41175286 92.34589638 -89.93823242 87.75 C-94.32991749 82.47997792 -98.88087032 77.39697949 -103.93823242 72.75 C-105.38514413 72.63369173 -105.38514413 72.63369173 -107.37182617 75.12109375 Z M-133.53979492 100.15625 C-134.55270784 101.18249072 -135.56031369 102.21399005 -136.56323242 103.25 C-137.07885742 103.77464844 -137.59448242 104.29929687 -138.12573242 104.83984375 C-139.40108174 106.13881065 -140.67024503 107.44384577 -141.93823242 108.75 C-137.24056268 114.41129431 -132.19099871 119.60228904 -126.93823242 124.75 C-122.75399351 121.24102731 -118.74235076 117.66939465 -114.93823242 113.75 C-116.60286281 109.46357676 -119.7289908 106.66382783 -122.93823242 103.5 C-123.75807617 102.66855469 -123.75807617 102.66855469 -124.59448242 101.8203125 C-128.80214963 97.1431147 -128.80214963 97.1431147 -133.53979492 100.15625 Z M-157.53979492 123.15625 C-158.55270784 124.18249072 -159.56031369 125.21399005 -160.56323242 126.25 C-161.07885742 126.77464844 -161.59448242 127.29929688 -162.12573242 127.83984375 C-163.40108174 129.13881065 -164.67024503 130.44384577 -165.93823242 131.75 C-164.61702414 134.68230193 -163.19185045 136.73664899 -160.89916992 138.984375 C-160.3190918 139.55800781 -159.73901367 140.13164062 -159.14135742 140.72265625 C-158.53807617 141.30917969 -157.93479492 141.89570313 -157.31323242 142.5 C-156.7022168 143.10199219 -156.09120117 143.70398438 -155.46166992 144.32421875 C-153.95834618 145.80405305 -152.44888386 147.27764676 -150.93823242 148.75 C-147.25753355 147.21356148 -144.95048038 144.96849055 -142.18823242 142.125 C-141.38901367 141.30773437 -140.58979492 140.49046875 -139.76635742 139.6484375 C-139.16307617 139.02195313 -138.55979492 138.39546875 -137.93823242 137.75 C-139.25130614 134.85147635 -140.6650788 132.76722783 -142.90698242 130.515625 C-143.47803711 129.94199219 -144.0490918 129.36835938 -144.63745117 128.77734375 C-145.23170898 128.19082031 -145.8259668 127.60429687 -146.43823242 127 C-147.32961914 126.09701172 -147.32961914 126.09701172 -148.23901367 125.17578125 C-148.81006836 124.60730469 -149.38112305 124.03882813 -149.96948242 123.453125 C-150.4909082 122.93395508 -151.01233398 122.41478516 -151.54956055 121.87988281 C-154.29298587 119.64771467 -155.03077152 120.83559172 -157.53979492 123.15625 Z M-181.44213867 146.15625 C-182.46420053 147.184992 -183.48361206 148.21637207 -184.50073242 149.25 C-185.02086914 149.77464844 -185.54100586 150.29929688 -186.0769043 150.83984375 C-187.36624933 152.14101763 -188.65252613 153.44523051 -189.93823242 154.75 C-188.57981222 157.79332765 -187.05360218 159.87309151 -184.68041992 162.203125 C-184.05522461 162.821875 -183.4300293 163.440625 -182.78588867 164.078125 C-182.13491211 164.71234375 -181.48393555 165.3465625 -180.81323242 166 C-180.15452148 166.6496875 -179.49581055 167.299375 -178.81713867 167.96875 C-177.195266 169.56711727 -175.56890432 171.16061897 -173.93823242 172.75 C-170.30520158 171.05413874 -167.99274197 169.01199512 -165.18823242 166.125 C-164.38901367 165.30773437 -163.58979492 164.49046875 -162.76635742 163.6484375 C-162.16307617 163.02195313 -161.55979492 162.39546875 -160.93823242 161.75 C-164.66837292 157.21334263 -168.60876808 152.97058878 -172.75073242 148.8125 C-173.2429126 148.31580811 -173.73509277 147.81911621 -174.2421875 147.30737305 C-177.66001958 143.20287885 -177.66001958 143.20287885 -181.44213867 146.15625 Z M-205.66088867 169.375 C-206.7766989 170.49749173 -207.88985908 171.62262226 -209.00073242 172.75 C-209.56856445 173.32234375 -210.13639648 173.8946875 -210.72143555 174.484375 C-212.12926831 175.90403829 -213.5340349 177.32674097 -214.93823242 178.75 C-209.38788039 185.53376359 -203.17381216 191.60522968 -196.93823242 197.75 C-195.89027025 196.90356901 -194.85030551 196.04723808 -193.81323242 195.1875 C-193.2331543 194.71183594 -192.65307617 194.23617187 -192.05541992 193.74609375 C-189.09887193 190.95864721 -186.53837466 187.86768819 -183.93823242 184.75 C-186.91338549 181.74599642 -189.89400649 178.74747845 -192.87573242 175.75 C-194.1509375 174.46222656 -194.1509375 174.46222656 -195.4519043 173.1484375 C-196.66523438 171.93027344 -196.66523438 171.93027344 -197.90307617 170.6875 C-198.65194092 169.93339844 -199.40080566 169.17929688 -200.17236328 168.40234375 C-203.00900015 165.74807051 -202.59434602 166.41844811 -205.66088867 169.375 Z M-230.53979492 193.15625 C-231.55270784 194.18249072 -232.56031369 195.21399005 -233.56323242 196.25 C-234.07885742 196.77464844 -234.59448242 197.29929688 -235.12573242 197.83984375 C-236.40108174 199.13881065 -237.67024503 200.44384577 -238.93823242 201.75 C-233.11194338 208.90801225 -226.49993392 215.27591766 -219.93823242 221.75 C-215.76116259 218.23243109 -211.74298622 214.67004937 -207.93823242 210.75 C-209.35885757 207.5231002 -211.08068683 205.35057488 -213.56323242 202.859375 C-214.26963867 202.15039062 -214.97604492 201.44140625 -215.70385742 200.7109375 C-216.80987305 199.61652344 -216.80987305 199.61652344 -217.93823242 198.5 C-218.67557617 197.75492188 -219.41291992 197.00984375 -220.17260742 196.2421875 C-220.87901367 195.53835937 -221.58541992 194.83453125 -222.31323242 194.109375 C-222.9603418 193.46452148 -223.60745117 192.81966797 -224.27416992 192.15527344 C-227.18620611 189.69610672 -227.76842121 190.59293737 -230.53979492 193.15625 Z M-254.53979492 216.15625 C-255.55270784 217.18249072 -256.56031369 218.21399005 -257.56323242 219.25 C-258.07885742 219.77464844 -258.59448242 220.29929688 -259.12573242 220.83984375 C-260.40108174 222.13881065 -261.67024503 223.44384577 -262.93823242 224.75 C-258.70006705 229.81623768 -254.2641428 234.55038069 -249.56323242 239.1875 C-248.92256836 239.82365234 -248.2819043 240.45980469 -247.62182617 241.11523438 C-246.06292363 242.66250332 -244.50171826 244.20736492 -242.93823242 245.75 C-241.83006677 244.8235288 -240.72525815 243.89304151 -239.62182617 242.9609375 C-239.00621826 242.44321777 -238.39061035 241.92549805 -237.75634766 241.39208984 C-235.17076306 239.05683511 -233.08867556 236.48692763 -230.93823242 233.75 C-234.93219762 228.84312847 -239.24232773 224.30729437 -243.68823242 219.8125 C-244.26726318 219.22057861 -244.84629395 218.62865723 -245.44287109 218.01879883 C-246.90234171 216.55590875 -248.41635736 215.14785485 -249.93823242 213.75 C-252.28414851 213.52366257 -252.28414851 213.52366257 -254.53979492 216.15625 Z M-285.43823242 246.1875 C-285.93323242 246.703125 -286.42823242 247.21875 -286.93823242 247.75 C-285.45169736 251.21629835 -283.48100891 253.44022036 -280.80541992 256.078125 C-279.99975586 256.87734375 -279.1940918 257.6765625 -278.36401367 258.5 C-277.52225586 259.325 -276.68049805 260.15 -275.81323242 261 C-274.53899414 262.26070313 -274.53899414 262.26070313 -273.23901367 263.546875 C-271.14318319 265.61915683 -269.04282529 267.68662393 -266.93823242 269.75 C-263.10817179 267.9904334 -260.96923231 265.81497046 -258.18823242 262.625 C-257.38901367 261.71492188 -256.58979492 260.80484375 -255.76635742 259.8671875 C-254.86143555 258.81917969 -254.86143555 258.81917969 -253.93823242 257.75 C-258.16781276 252.70179121 -262.58022829 247.95353723 -267.25073242 243.3125 C-268.19916016 242.35827148 -268.19916016 242.35827148 -269.16674805 241.38476562 C-269.7680957 240.78470703 -270.36944336 240.18464844 -270.98901367 239.56640625 C-271.53211182 239.02443604 -272.07520996 238.48246582 -272.63476562 237.92407227 C-276.17856111 234.73206768 -282.79430947 243.60967512 -285.43823242 246.1875 Z M-304.81323242 264.9375 C-305.6769043 265.71480469 -306.54057617 266.49210937 -307.43041992 267.29296875 C-310.33499034 270.03993807 -310.33499034 270.03993807 -313.93823242 274.75 C-306.67823242 282.01 -299.41823242 289.27 -291.93823242 296.75 C-286.09263618 291.79443798 -286.09263618 291.79443798 -281.00073242 286.375 C-280.41420898 285.68664062 -279.82768555 284.99828125 -279.22338867 284.2890625 C-278.79928711 283.78117187 -278.37518555 283.27328125 -277.93823242 282.75 C-279.42052694 279.31394819 -281.36774982 277.06298409 -284.00073242 274.421875 C-284.79737305 273.62265625 -285.59401367 272.8234375 -286.41479492 272 C-287.2475293 271.175 -288.08026367 270.35 -288.93823242 269.5 C-289.7709668 268.65953125 -290.60370117 267.8190625 -291.46166992 266.953125 C-292.25831055 266.1590625 -293.05495117 265.365 -293.87573242 264.546875 C-294.60663086 263.81823242 -295.3375293 263.08958984 -296.09057617 262.33886719 C-299.88176023 259.07868935 -301.6536395 262.0638643 -304.81323242 264.9375 Z " fill="#ffffff" transform="translate(489.938232421875,20.25)"/>
<path d="M0 0 C4.12631661 2.53839806 7.38271732 5.95876226 10.7736969 9.38700867 C11.55431992 10.16380478 12.33494293 10.94060089 13.13922119 11.74093628 C14.77856452 13.37757003 16.41291719 15.01921643 18.04249573 16.66557312 C20.53128498 19.17581114 23.04073326 21.66395762 25.55299377 24.15068054 C27.14867912 25.74900876 28.7431234 27.34857717 30.3361969 28.94950867 C31.08307266 29.68828751 31.82994843 30.42706635 32.59945679 31.18823242 C37.62157565 36.3015017 41.64617039 41.26923524 41.66041565 48.80497742 C41.31932021 56.85482967 37.07604153 62.24037789 31.35572815 67.60185242 C25.73880197 72.251762 20.99700627 73.81300871 13.71510315 73.80107117 C6.17236096 72.48877589 1.55382962 67.13628829 -3.60520935 61.93778992 C-4.43542603 61.11044342 -5.2656427 60.28309692 -6.12101746 59.43067932 C-7.86943849 57.68429502 -9.61409572 55.93413543 -11.35520935 54.1804657 C-14.02120937 51.49838782 -16.70284768 48.83270168 -19.38645935 46.16825867 C-21.08533893 44.46739699 -22.78328783 42.76560511 -24.48020935 41.06278992 C-25.28226807 40.26680389 -26.08432678 39.47081787 -26.91069031 38.65071106 C-27.65196167 37.89998322 -28.39323303 37.14925537 -29.15696716 36.3757782 C-30.13575836 35.39340683 -30.13575836 35.39340683 -31.13432312 34.39118958 C-34.7538315 29.9323291 -35.23412848 25.47402102 -35.0778656 19.91435242 C-34.07686906 11.43838168 -28.07573067 5.64675167 -21.77708435 0.36747742 C-14.73590716 -4.39700222 -7.25744233 -3.71368963 0 0 Z M-15.52708435 16.61747742 C-16.47841248 17.52239929 -16.47841248 17.52239929 -17.44895935 18.44560242 C-19.00416029 20.24332693 -19.00416029 20.24332693 -18.55255127 22.26889038 C-17.64164342 24.73401088 -16.5392858 25.99809028 -14.69773865 27.866745 C-14.05004013 28.53035538 -13.40234161 29.19396576 -12.73501587 29.87768555 C-12.03089066 30.58201218 -11.32676544 31.28633881 -10.6013031 32.01200867 C-9.87973526 32.74119003 -9.15816742 33.4703714 -8.41473389 34.22164917 C-6.8877894 35.75939461 -5.35685264 37.29318458 -3.82225037 38.82328796 C-1.46997305 41.17459095 0.86017195 43.54640675 3.18971252 45.92021179 C4.67473844 47.41044288 6.16102476 48.89941925 7.6486969 50.38700867 C8.34674942 51.10145645 9.04480194 51.81590424 9.76400757 52.55200195 C10.42116257 53.19985153 11.07831757 53.84770111 11.75538635 54.5151825 C12.32972916 55.09157974 12.90407196 55.66797699 13.49581909 56.26184082 C15.18122805 57.59719636 15.18122805 57.59719636 17.33099365 57.12509155 C19.53110195 56.24406519 20.84539289 55.21145133 22.53541565 53.55497742 C23.06779846 53.0535321 23.60018127 52.55208679 24.1486969 52.03544617 C25.43615473 50.42904048 25.43615473 50.42904048 24.98350525 48.48094177 C24.08673995 45.98908349 22.99260115 44.75672075 21.12770081 42.88407898 C20.15131149 41.89350494 20.15131149 41.89350494 19.15519714 40.88291931 C18.44793488 40.18172974 17.74067261 39.48054016 17.01197815 38.75810242 C16.28803864 38.03129272 15.56409912 37.30448303 14.81822205 36.5556488 C13.28688667 35.02227277 11.75175952 33.49267548 10.21315002 31.96659851 C7.85348408 29.62300791 5.51025278 27.26383909 3.16822815 24.90263367 C1.679606 23.41599349 0.19005375 21.93028396 -1.30052185 20.44560242 C-2.00373566 19.73631592 -2.70694946 19.02702942 -3.43147278 18.29624939 C-4.08870331 17.64847534 -4.74593384 17.00070129 -5.42308044 16.33329773 C-5.99964386 15.75912109 -6.57620728 15.18494446 -7.17024231 14.59336853 C-10.74484001 11.86623827 -12.81412852 13.94936383 -15.52708435 16.61747742 Z " fill="#ffffff" transform="translate(89.77708435058594,364.6325225830078)"/>
<path d="M0 0 C6.67321973 5.63516333 6.67321973 5.63516333 8.8125 9.375 C8.87385995 13.05659685 8.60740109 15.18264836 6.5625 18.25 C4.19185004 19.77398926 2.64620413 20.24319981 -0.1875 20.375 C-3.92755201 18.84844816 -7.05107825 16.90826372 -10.1875 14.375 C-11.33974028 15.30461422 -12.48409176 16.2440125 -13.625 17.1875 C-14.26308594 17.70957031 -14.90117188 18.23164063 -15.55859375 18.76953125 C-17.4423275 20.38334411 -17.4423275 20.38334411 -18.1875 23.375 C-6.9675 34.595 4.2525 45.815 15.8125 57.375 C20.38270908 54.90514659 20.38270908 54.90514659 23.8125 51.375 C23.72308746 47.97732366 23.02216768 46.61008194 20.75 44.0625 C17.9335916 40.155869 18.13305296 38.1311293 18.8125 33.375 C20.875 30.8125 20.875 30.8125 23.8125 29.375 C27.73354458 29.07907211 29.88442978 29.6335526 32.96875 32.09765625 C38.03508011 37.00795808 41.12188881 40.94595412 41.83203125 48.16796875 C41.7596813 56.34351353 37.3928968 61.85486666 31.8125 67.375 C30.905 68.32375 29.9975 69.2725 29.0625 70.25 C24.16782973 73.45036133 18.7313065 75.11201719 12.86296082 74.00834656 C5.86417265 72.02901582 1.74488577 68.16801872 -3.2734375 63.05078125 C-4.09703766 62.23054977 -4.92063782 61.4103183 -5.76919556 60.56523132 C-7.4991067 58.8350224 -9.22160659 57.09737505 -10.93701172 55.3527832 C-13.5562048 52.69389062 -16.20350625 50.06561833 -18.85546875 47.43945312 C-20.53821752 45.74914533 -22.21926636 44.05714315 -23.8984375 42.36328125 C-24.68592377 41.58277908 -25.47341003 40.80227692 -26.28475952 39.99812317 C-31.3190141 34.83319019 -34.76484434 30.30085964 -35.40234375 22.87109375 C-34.12595873 13.39708103 -29.32232288 7.47678868 -22.1875 1.375 C-14.86090979 -2.99277493 -7.75434219 -3.95319406 0 0 Z " fill="#ffffff" transform="translate(135.1875,318.625)"/>
<path d="M0 0 C3.32274404 2.45594125 4.77618008 3.9256644 5.625 8 C4.77618008 12.0743356 3.32274404 13.54405875 0 16 C-3.78454468 16.70960213 -5.46714413 16.27801176 -8.875 14.5 C-11.44978331 11.47084317 -11.74545844 9.79349229 -11.484375 5.90625 C-11 4 -11 4 -8.875 1.5 C-5.46714413 -0.27801176 -3.78454468 -0.70960213 0 0 Z " fill="#ffffff" transform="translate(145,434)"/>
<path d="M0 0 C2.64764845 1.67684402 2.95477045 2.85138861 3.875 5.875 C4.0235372 9.58842999 3.18476995 11.05896353 1 14 C0 15 0 15 -3.8125 15.25 C-6.40016608 15.18960564 -8.04906047 14.98160232 -10.5 14.0625 C-12.62520363 11.14034502 -12.61922624 8.72160612 -12.4453125 5.16796875 C-12 3 -12 3 -9.9375 0.375 C-6.11150281 -1.4158923 -4.03368093 -1.12046692 0 0 Z " fill="#ffffff" transform="translate(180,401)"/>
<path d="M0 0 C4.83445946 1.43243243 4.83445946 1.43243243 6.375 4 C7.50462701 8.06665724 7.81125505 10.10852228 5.9375 13.9375 C2.85128163 16.42152942 1.15221542 16.68849662 -2.71875 16.4140625 C-4.625 16 -4.625 16 -7.125 14.4375 C-9.23506839 11.00863886 -9.24991523 8.95779649 -8.625 5 C-5.93921083 1.09339758 -4.80084596 0 0 0 Z " fill="#ffffff" transform="translate(166.625,424)"/>
</svg>
