<?xml version="1.0" encoding="UTF-8"?>
<svg version="1.1" xmlns="http://www.w3.org/2000/svg" width="512" height="512">
<path d="M0 0 C4.14513606 3.85720098 8.09485012 7.90173831 12 12 C15.956547 10.42847432 18.40140294 7.66042967 21.25 4.625 C47.00263352 -21.68911818 83.41327876 -36.17929476 120.0625 -37.03125 C161.57421343 -37.16559211 198.81003233 -21.97608807 228.5 7.125 C257.46214413 36.15285104 269.32495132 73.50962142 269.3190918 113.78637695 C269.25570804 125.54418114 268.13421062 136.62810831 265 148 C264.82339844 148.66370605 264.64679688 149.32741211 264.46484375 150.01123047 C256.37248147 179.51088814 237.29619318 205.5300615 214.25 225.25 C210.6548326 228.33561612 207.32662213 231.63197623 204 235 C200.17013262 238.87729608 196.27948683 242.5624362 192.125 246.09375 C189.30606068 248.62250439 186.66061163 251.30646001 184 254 C180.17011987 257.87727963 176.27948698 261.56243606 172.125 265.09375 C169.30602749 267.62253416 166.66103449 270.30683537 164 273 C159.4982408 277.54518003 154.94562158 281.93267062 150 286 C149.37996094 286.53238281 148.75992187 287.06476563 148.12109375 287.61328125 C141.3328441 293.13987642 133.82196269 296.33632116 125 296 C124.87044922 297.12535156 124.87044922 297.12535156 124.73828125 298.2734375 C123.2533387 309.09035843 119.89212433 318.19196731 111 325 C104.07943208 329.51759295 97.13590515 331.06339236 89 332 C88.99613281 332.87398438 88.99613281 332.87398438 88.9921875 333.765625 C88.53351105 343.4895657 84.80296743 351.79575923 77.6875 358.5 C70.30912769 364.43477773 63.39787697 366.6076043 54 367 C53.87044922 368.12535156 53.87044922 368.12535156 53.73828125 369.2734375 C52.25546377 380.07487863 48.89883233 389.21334188 40 396 C30.28715896 402.14819567 20.29407747 404.17131475 9 402 C-4.69260565 398.54037665 -14.34736476 385.83467383 -24.05078125 376.1875 C-24.65319326 375.58916351 -25.25560528 374.99082703 -25.8762722 374.37435913 C-29.05560087 371.21570432 -32.23177704 368.05391754 -35.40551758 364.88964844 C-38.66277965 361.643504 -41.93157208 358.40922696 -45.20298481 355.17735291 C-47.73968999 352.66687401 -50.267391 350.14747145 -52.79280663 347.62564087 C-53.99380586 346.42947984 -55.19815145 345.23666809 -56.40603065 344.04745483 C-62.62010735 337.92360684 -68.46948787 332.1430676 -72 324 C-72.97791504 324.33076538 -72.97791504 324.33076538 -73.97558594 324.66821289 C-85.11849798 328.43713902 -95.85903896 329.99115054 -107 325 C-115.46929153 320.41512038 -121.67192723 314.19433649 -125.09375 305.08984375 C-126.39257733 300.62211826 -127.14236859 296.66466503 -127 292 C-128.11375 292.0825 -129.2275 292.165 -130.375 292.25 C-139.47936532 292.20182875 -147.71321935 287.33486311 -154 281 C-159.6689757 273.34020629 -162.32721163 266.48913729 -162 257 C-162.67804688 256.98582031 -163.35609375 256.97164063 -164.0546875 256.95703125 C-173.95469829 256.44968998 -181.92177431 253.07822569 -189 246 C-195.07138335 238.63080252 -198.52042699 230.50084016 -197.625 220.875 C-197.54300292 217.78322767 -197.65000383 216.46220868 -199.53515625 213.97265625 C-201.05851223 212.53224161 -202.60536029 211.11648481 -204.16796875 209.71875 C-227.81960194 187.01318214 -242.69001376 151.06833252 -243.43359375 118.421875 C-243.47063099 115.53053788 -243.4623464 112.64140946 -243.4375 109.75 C-243.43445862 108.99163849 -243.43141724 108.23327698 -243.42828369 107.45193481 C-243.35445664 94.94382744 -242.35839207 83.10124844 -239 71 C-238.80696289 70.26185059 -238.61392578 69.52370117 -238.41503906 68.76318359 C-233.53093132 50.52998336 -224.317505 32.32163287 -212 18 C-211.28457031 17.15953125 -210.56914062 16.3190625 -209.83203125 15.453125 C-207.60579227 12.91560658 -205.32067211 10.45130597 -203 8 C-202.18015625 7.11570313 -201.3603125 6.23140625 -200.515625 5.3203125 C-147.28731578 -50.27019979 -56.67088164 -49.2872066 0 0 Z M-183 18 C-183.87269531 18.79019531 -184.74539062 19.58039063 -185.64453125 20.39453125 C-206.12883828 39.84655824 -220.67143321 68.93864912 -222.17700195 97.33886719 C-222.62601853 120.94918028 -222.62601853 120.94918028 -218 144 C-217.75330566 144.79293457 -217.50661133 145.58586914 -217.25244141 146.40283203 C-211.1417129 165.42524104 -201.24235444 181.05990781 -188 196 C-183.47811634 192.21346691 -179.16361804 188.30658121 -175.0085907 184.12211609 C-174.16869125 183.28243993 -174.16869125 183.28243993 -173.31182414 182.42580062 C-171.45639222 180.56968018 -169.6045488 178.71002218 -167.75268555 176.8503418 C-166.41523686 175.51097192 -165.07755882 174.17183103 -163.7396698 172.832901 C-160.86979884 169.95987952 -158.00148625 167.08531453 -155.13437462 164.20953941 C-150.60355219 159.66516386 -146.0688903 155.12463264 -141.53364563 150.58467102 C-131.91529676 140.95524109 -122.3011926 131.32157826 -112.6875 121.6875 C-102.29109491 111.26907827 -91.893964 100.85138705 -81.49196655 90.43854839 C-76.98016487 85.92175456 -72.47081479 81.40253142 -67.96330392 76.88145578 C-65.16667879 74.07739531 -62.36800499 71.27538661 -59.56875801 68.47394371 C-58.26737478 67.17068157 -56.96685965 65.86655194 -55.66725922 64.56151199 C-53.89928419 62.78636765 -52.1282926 61.01428952 -50.35649109 59.2429657 C-49.83792264 58.72080229 -49.31935419 58.19863888 -48.78507155 57.66065234 C-45.48256443 54.36773274 -43.53560503 52.82478084 -38.875 52.5 C-35.02258007 52.60266487 -33.20371224 53.22424123 -30.3828125 55.84106445 C-29.69203613 56.47992584 -29.00125977 57.11878723 -28.28955078 57.77700806 C-24.31263155 61.63831548 -20.39253823 65.55212509 -16.50927734 69.50725365 C-14.96423295 71.07936233 -13.41449356 72.64670082 -11.86328125 74.21272278 C-7.45877981 78.65956737 -3.05724239 83.10922617 1.328125 87.57495117 C4.02591981 90.32149264 6.73357558 93.05797636 9.44775391 95.78832436 C10.47200161 96.82240269 11.49260118 97.86010894 12.50927734 98.90163231 C21.15139194 107.82378126 21.15139194 107.82378126 32.46875 112.53125 C38.76486677 112.43438667 43.84452024 110.92322364 48.5390625 106.57421875 C53.02828743 101.49430633 54.19418132 97.13399576 54.4609375 90.57421875 C53.17483414 83.39165845 48.77733807 78.18913582 43.7253418 73.20776367 C42.79500374 72.2669117 42.79500374 72.2669117 41.84587097 71.30705261 C39.80688221 69.2505645 37.75373182 67.20893878 35.69921875 65.16796875 C34.26055017 63.7266006 32.82247539 62.28463955 31.38496399 60.84211731 C28.37109354 57.82236059 25.35013972 54.8099246 22.32397461 51.80249023 C18.48242029 47.98358027 14.65891667 44.14718481 10.84071636 40.30494213 C7.87165002 37.32127107 4.89293499 34.34737772 1.91141701 31.37615395 C0.50018094 29.96755237 -0.90818466 28.55606791 -2.31337929 27.14143944 C-13.42000628 15.97670563 -25.16141436 5.39458604 -39.3125 -1.8125 C-40.00778809 -2.17230957 -40.70307617 -2.53211914 -41.41943359 -2.90283203 C-57.04778741 -10.71875434 -74.56518295 -15.15722939 -92 -16 C-92.83273438 -16.04125 -93.66546875 -16.0825 -94.5234375 -16.125 C-127.52822792 -16.91790788 -158.89596812 -4.16861279 -183 18 Z M30.01953125 25.91015625 C29.35308594 26.59980469 28.68664062 27.28945312 28 28 C32.2770321 33.13582905 36.78536073 37.843679 41.59375 42.48046875 C43.05154043 43.90612516 44.50854753 45.33258292 45.96484375 46.75976562 C48.22859344 48.97430336 50.49628282 51.18392186 52.77783203 53.38012695 C73.29662495 73.16436218 73.29662495 73.16436218 74.203125 88.41796875 C74.36392024 101.34858575 72.29807197 111.35440079 63.11328125 120.9765625 C53.72971733 129.64115001 43.54676818 132.52157706 30.85546875 132.30859375 C15.28368134 131.06221968 5.98803406 121.30158283 -4.50390625 110.69140625 C-5.47709214 109.7144797 -6.45072833 108.73800154 -7.42478943 107.76194763 C-9.95924804 105.21993532 -12.48763663 102.67197158 -15.01470947 100.12261963 C-17.60570026 97.51099001 -20.20252372 94.90517347 -22.79882812 92.29882812 C-27.87153636 87.20481625 -32.93783139 82.10448809 -38 77 C-44.87311227 82.64064147 -51.08676036 88.92375924 -57.37353516 95.1965332 C-58.61748951 96.4342133 -59.86163009 97.67170625 -61.10594177 98.9090271 C-65.17054226 102.95271174 -69.22991974 107.00161931 -73.2890625 111.05078125 C-74.69152997 112.44919749 -76.09403029 113.84758078 -77.49656296 115.24593163 C-84.08308687 121.81343696 -90.66721973 128.38332782 -97.24841559 134.95617229 C-104.82977709 142.52775205 -112.41935397 150.09097074 -120.01597941 157.64723521 C-125.90005523 163.50112402 -131.77640824 169.36269389 -137.64706457 175.23004025 C-141.14831365 178.72894334 -144.65276339 182.22448948 -148.16542435 185.71193886 C-151.46895833 188.99213973 -154.7627762 192.28179803 -158.04953194 195.57880783 C-159.25335366 196.78312362 -160.46056988 197.9840579 -161.67150307 199.18122292 C-172.16916982 208.77955338 -172.16916982 208.77955338 -177.1980381 221.48550892 C-177.0672686 225.53991828 -176.29223605 227.61591833 -173.8125 230.875 C-169.45830883 234.16483332 -166.19062417 236.31625856 -160.625 236.125 C-157.00504312 235.50429519 -155.01200516 234.49443965 -152.3107605 232.02340698 C-151.61734432 231.38976101 -150.92392815 230.75611504 -150.20949936 230.10326767 C-146.21106575 226.29707687 -142.29447126 222.41560379 -138.40283203 218.50048828 C-136.98381041 217.0792254 -135.56478867 215.65796264 -134.14576221 214.23670459 C-132.63677554 212.72436898 -131.12904431 211.21079215 -129.6216774 209.69684219 C-126.4728088 206.53435945 -123.32004693 203.37577693 -120.16671753 200.21774292 C-113.48316164 193.52313576 -106.80387619 186.82427537 -100.125 180.125 C-92.89243338 172.87039283 -85.65911981 165.61653929 -78.42094505 158.36752689 C-75.28483266 155.22642855 -72.15117484 152.08290779 -69.0193665 148.93751836 C-67.544036 147.45653657 -66.0675757 145.97669258 -64.59059143 144.49736023 C-62.78808385 142.69197294 -60.98738794 140.88477444 -59.188797 139.07548523 C-58.39826431 138.28488205 -57.60773163 137.49427887 -56.79324341 136.67971802 C-56.10491488 135.98916887 -55.41658634 135.29861973 -54.70739937 134.58714485 C-51.45950467 131.5680039 -48.54526489 131.59503605 -44.265625 131.6640625 C-42 132 -42 132 -38.9375 134 C-36.95052554 137.07660562 -36.14185706 139.22318738 -36.39307022 142.91511822 C-37.13147114 145.45162027 -38.18115041 146.72392682 -39.96087646 148.67060852 C-40.5978521 149.36791391 -41.23482773 150.06521931 -41.89110565 150.78365517 C-45.65586341 154.74023147 -49.49888249 158.61143361 -53.37597656 162.45776367 C-54.77739977 163.85448002 -56.17882192 165.25119745 -57.58020353 166.64795554 C-59.07148201 168.13338604 -60.56398896 169.61757222 -62.05683136 171.10143089 C-65.17830341 174.204467 -68.29530097 177.31197221 -71.41156006 180.42024231 C-80.26799506 189.2526292 -89.13042181 198.0789898 -97.99707031 206.90112305 C-102.9061784 211.78566328 -107.81166965 216.67380721 -112.71332908 221.56582242 C-115.80852346 224.65449056 -118.90816067 227.7386065 -122.01120806 230.81938398 C-124.39203114 233.18570113 -126.76629841 235.55856226 -129.14160156 237.93041992 C-129.99878784 238.7788446 -130.85597412 239.62726929 -131.73913574 240.50140381 C-132.5240741 241.28764633 -133.30901245 242.07388885 -134.11773682 242.88395691 C-134.79906803 243.56214572 -135.48039925 244.24033453 -136.18237686 244.93907452 C-140.20570541 249.50095545 -141.51852982 252.88783286 -141.28125 258.859375 C-140.64443417 263.70625102 -137.64470492 267.07315647 -133.87109375 270.046875 C-130.13109987 271.95200758 -126.03236539 271.89130028 -122 271 C-115.88855427 267.54525467 -111.28960689 262.54194121 -106.38623047 257.58154297 C-105.42677785 256.61824732 -104.46686541 255.65540949 -103.50653076 254.69299316 C-101.44768875 252.62785235 -99.39198958 250.5596516 -97.33868027 248.48900986 C-94.09134588 245.21454329 -90.83631828 241.94779706 -87.58010864 238.68215942 C-80.67245755 231.75235116 -73.77330824 224.81410681 -66.875 217.875 C-59.42008123 210.3760228 -51.96371431 202.87852037 -44.49756157 195.39072526 C-41.26105224 192.14425428 -38.02948124 188.89297003 -34.8016088 185.63791251 C-32.79421361 183.61560124 -30.78268578 181.59743979 -28.7700119 179.5803833 C-27.39334202 178.19818361 -26.02171441 176.81096756 -24.65023804 175.4236145 C-23.82882324 174.60205872 -23.00740845 173.78050293 -22.16110229 172.93405151 C-21.44989668 172.21840467 -20.73869106 171.50275784 -20.00593376 170.76542473 C-17.37906038 168.45351029 -15.27048234 167.06605627 -11.74609375 166.8828125 C-5.55421169 167.53238388 -5.55421169 167.53238388 -3 169.6875 C-1.74053089 172.60002231 -1.12756767 174.81080825 -1 178 C-2.78836295 182.22241678 -4.85171045 185.22129236 -8.09899902 188.43284607 C-9.34818367 189.67954575 -9.34818367 189.67954575 -10.62260437 190.95143127 C-11.53282852 191.84458542 -12.44305267 192.73773956 -13.38085938 193.65795898 C-14.35246628 194.62216382 -15.32338039 195.58706719 -16.2936554 196.5526123 C-18.37819241 198.62431335 -20.46724565 200.69130956 -22.55989075 202.75481987 C-25.87133398 206.02078737 -29.17065174 209.29882384 -32.46813965 212.57887268 C-40.65930111 220.72303939 -48.86556073 228.85194773 -57.07623291 236.97644043 C-63.46025896 243.29371581 -69.83973808 249.61543675 -76.20548296 255.95113999 C-79.48023198 259.20942254 -82.76412193 262.45810784 -86.05530548 265.69978511 C-88.10383546 267.72158576 -90.14392367 269.75174462 -92.18181419 271.78426361 C-93.57357513 273.16736451 -94.97532997 274.54038635 -96.37739563 275.91304016 C-103.42859472 282.92606687 -103.42859472 282.92606687 -106.1796875 292.2578125 C-105.35977775 297.28238765 -104.56279528 301.10654655 -100.33984375 304.2265625 C-95.96155055 306.78564441 -92.21206679 307.6793494 -87.1953125 306.76953125 C-82.17479741 305.00967098 -78.97446999 301.0369754 -75.34960938 297.29736328 C-63.54952399 285.15483665 -55.24097158 277.83209043 -38 275 C-37.85304687 273.83984375 -37.85304687 273.83984375 -37.703125 272.65625 C-36.28603658 262.7854962 -33.55156363 254.83474854 -26 248 C-18.76389199 243.08931988 -11.62135207 240.89186401 -3 240 C-2.85304687 239.10539063 -2.70609375 238.21078125 -2.5546875 237.2890625 C-0.39454122 225.644136 2.93513585 217.38031552 12.78515625 210.3984375 C19.18314982 206.35878724 25.63531168 205.13200453 33 204 C33.14695312 202.83984375 33.14695312 202.83984375 33.296875 201.65625 C34.83290331 190.95701833 38.11765605 182.29842365 46.91796875 175.5234375 C56.13452338 169.42660639 66.27275498 168.92377778 77 170 C89.36572129 173.01018942 98.59987564 184.27428815 107.2578125 192.921875 C108.53223734 194.18986015 109.80680658 195.45770019 111.08151245 196.72540283 C113.74262943 199.37459588 116.39963293 202.02783759 119.05419922 204.68359375 C122.43750236 208.06710014 125.83436299 211.43662941 129.23492622 214.80277634 C131.86882743 217.41432351 134.49346999 220.03502954 137.11568832 222.65830231 C138.36345256 223.90372451 139.61441921 225.14594764 140.86877823 226.38472748 C147.63946444 233.07912382 153.69412178 239.37288791 158 248 C164.28698298 243.55687975 169.63682327 238.57668768 175 233.0625 C179.90443658 228.04507726 184.83555676 223.18636977 190.16015625 218.61499023 C192.90643257 216.20434561 195.4507464 213.6155186 198 211 C201.2750399 207.67518277 204.54829224 204.44222413 208.125 201.4375 C230.18391235 182.43219741 244.46833554 153.7752479 248 125 C248.2923396 119.93641101 248.34042266 114.88294857 248.3125 109.8125 C248.31067719 109.12679932 248.30885437 108.44109863 248.30697632 107.73461914 C248.2611406 97.49966827 247.81045613 87.88192638 245 78 C244.6596875 76.7728125 244.319375 75.545625 243.96875 74.28125 C234.17740241 42.26089706 212.02695002 14.65645653 182.5625 -1.3125 C129.93862945 -28.60428078 70.69905577 -15.56589043 30.01953125 25.91015625 Z M55.125 196.125 C53.46797927 200.35960852 53.14568571 204.52662202 54 209 C56.72345408 213.53524419 59.96829406 217.26072257 63.69897461 220.97363281 C64.53636421 221.81868881 64.53636421 221.81868881 65.39067078 222.68081665 C67.2227901 224.52674655 69.06215229 226.36524452 70.90234375 228.203125 C72.18524246 229.48991388 73.46791827 230.77692502 74.75038147 232.06414795 C77.43265247 234.75386172 80.11874138 237.43969182 82.80737305 240.12304688 C86.25019827 243.5600646 89.68149347 247.00834426 93.10980892 250.45982742 C95.75286612 253.11761799 98.4028194 255.76844772 101.05481148 258.41732025 C102.32300498 259.68602665 103.58884086 260.95709433 104.85224724 262.23056793 C106.61829 264.0089566 108.39362398 265.77752909 110.17163086 267.54394531 C110.68971313 268.06967133 111.20779541 268.59539734 111.74157715 269.13705444 C115.75910443 273.0969669 118.8384437 274.80349488 124.4375 275.3125 C129.6782569 274.85278448 132.74131762 273.36073771 136.3125 269.5 C139.14397449 265.30522298 139.33763378 261.98009828 139 257 C136.99189245 252.06307093 134.05190317 248.62604461 130.30688477 244.93457031 C129.73741119 244.36144608 129.16793762 243.78832184 128.58120728 243.1978302 C126.7085784 241.31713623 124.82536851 239.44746041 122.94140625 237.578125 C121.63197063 236.26920837 120.3230539 234.95977246 119.01463318 233.64984131 C116.2764122 230.91170987 113.53311306 228.17880439 110.78588867 225.44970703 C107.26562256 221.95216086 103.75657241 218.44361386 100.25102329 214.93132401 C97.55167526 212.22863469 94.84736415 209.53095747 92.14143181 206.83486176 C90.84552934 205.54280627 89.55096998 204.24940222 88.25778389 202.95462799 C86.45090803 201.1473812 84.63767076 199.34677176 82.82250977 197.54785156 C82.02361076 196.74523643 82.02361076 196.74523643 81.20857239 195.92640686 C77.00303626 191.78074919 74.0578932 189.71741267 68.125 189.625 C62.23135832 189.75519827 59.01845438 191.71241837 55.125 196.125 Z M21 230 C17.98692734 234.33129194 17.44075535 237.78038327 18 243 C20.02239752 247.90355212 22.91575865 251.35628075 26.62963867 255.04956055 C27.19268707 255.62107849 27.75573547 256.19259644 28.33584595 256.78143311 C30.18882708 258.65770394 32.05269364 260.52267483 33.91796875 262.38671875 C35.21760349 263.69345977 36.51694076 265.00049671 37.81599426 266.30781555 C40.53695927 269.04220691 43.26376742 271.77061044 45.99438477 274.49536133 C49.48367897 277.97876077 52.95438191 281.48005489 56.42045116 284.98654461 C59.09790013 287.68990816 61.78680476 290.38164915 64.47905922 293.070261 C65.76316058 294.35604999 67.0433058 295.64580312 68.31929588 296.93964195 C70.10891032 298.75151959 71.91386388 300.54665841 73.72338867 302.33862305 C74.2416069 302.87010452 74.75982513 303.401586 75.29374695 303.94917297 C79.00320622 307.57598695 82.86521755 309.93428405 88 311 C93.25100929 310.59380195 97.38450861 308.92539066 101 305 C103.29924823 301.11029434 104.4316562 297.50309176 103.625 293 C100.30819871 283.37248354 90.00240494 275.82305743 82.93359375 268.73046875 C82.36277636 268.15682398 81.79195896 267.58317921 81.20384407 266.99215126 C78.19107078 263.96449285 75.17551679 260.93963843 72.1574707 257.91723633 C69.05173658 254.80599051 65.95541217 251.68555098 62.86112881 248.56292248 C60.46662428 246.14977353 58.06541781 243.74337884 55.66234016 241.33876991 C54.51763361 240.19104739 53.37541573 239.04083687 52.23580742 237.88805199 C50.64266695 236.27779098 49.04025584 234.67733341 47.43530273 233.07885742 C46.52820053 232.16810959 45.62109833 231.25736176 44.68650818 230.3190155 C40.91608249 227.06435368 37.55819973 225.2308444 32.625 224.5 C27.83884898 225.16015876 24.65508441 226.87177461 21 230 Z M-15.875 267.125 C-17.53202073 271.35960852 -17.85431429 275.52662202 -17 280 C-14.27654592 284.53524419 -11.03170594 288.26072257 -7.30102539 291.97363281 C-6.46363579 292.81868881 -6.46363579 292.81868881 -5.60932922 293.68081665 C-3.7772099 295.52674655 -1.93784771 297.36524452 -0.09765625 299.203125 C1.18524246 300.48991388 2.46791827 301.77692502 3.75038147 303.06414795 C6.43265247 305.75386172 9.11874138 308.43969182 11.80737305 311.12304688 C15.25019827 314.5600646 18.68149347 318.00834426 22.10980892 321.45982742 C24.75286612 324.11761799 27.4028194 326.76844772 30.05481148 329.41732025 C31.32300498 330.68602665 32.58884086 331.95709433 33.85224724 333.23056793 C35.61829 335.0089566 37.39362398 336.77752909 39.17163086 338.54394531 C39.68971313 339.06967133 40.20779541 339.59539734 40.74157715 340.13705444 C44.75910443 344.0969669 47.8384437 345.80349488 53.4375 346.3125 C58.6782569 345.85278448 61.74131762 344.36073771 65.3125 340.5 C68.14397449 336.30522298 68.33763378 332.98009828 68 328 C65.99189245 323.06307093 63.05190317 319.62604461 59.30688477 315.93457031 C58.73741119 315.36144608 58.16793762 314.78832184 57.58120728 314.1978302 C55.7085784 312.31713623 53.82536851 310.44746041 51.94140625 308.578125 C50.63197063 307.26920837 49.3230539 305.95977246 48.01463318 304.64984131 C45.2764122 301.91170987 42.53311306 299.17880439 39.78588867 296.44970703 C36.26562256 292.95216086 32.75657241 289.44361386 29.25102329 285.93132401 C26.55167526 283.22863469 23.84736415 280.53095747 21.14143181 277.83486176 C19.84552934 276.54280627 18.55096998 275.24940222 17.25778389 273.95462799 C15.45090803 272.1473812 13.63767076 270.34677176 11.82250977 268.54785156 C11.02361076 267.74523643 11.02361076 267.74523643 10.20857239 266.92640686 C6.00303626 262.78074919 3.0578932 260.71741267 -2.875 260.625 C-8.76864168 260.75519827 -11.98154562 262.71241837 -15.875 267.125 Z M-50 301 C-53.01307266 305.33129194 -53.55924465 308.78038327 -53 314 C-50.97760248 318.90355212 -48.08424135 322.35628075 -44.37036133 326.04956055 C-43.80731293 326.62107849 -43.24426453 327.19259644 -42.66415405 327.78143311 C-40.81117292 329.65770394 -38.94730636 331.52267483 -37.08203125 333.38671875 C-35.78239651 334.69345977 -34.48305924 336.00049671 -33.18400574 337.30781555 C-30.46304073 340.04220691 -27.73623258 342.77061044 -25.00561523 345.49536133 C-21.51632103 348.97876077 -18.04561809 352.48005489 -14.57954884 355.98654461 C-11.90209987 358.68990816 -9.21319524 361.38164915 -6.52094078 364.070261 C-5.23683942 365.35604999 -3.9566942 366.64580312 -2.68070412 367.93964195 C-0.89108968 369.75151959 0.91386388 371.54665841 2.72338867 373.33862305 C3.2416069 373.87010452 3.75982513 374.401586 4.29374695 374.94917297 C8.00320622 378.57598695 11.86521755 380.93428405 17 382 C22.25100929 381.59380195 26.38450861 379.92539066 30 376 C32.29924823 372.11029434 33.4316562 368.50309176 32.625 364 C29.30819871 354.37248354 19.00240494 346.82305743 11.93359375 339.73046875 C11.36277636 339.15682398 10.79195896 338.58317921 10.20384407 337.99215126 C7.19107078 334.96449285 4.17551679 331.93963843 1.1574707 328.91723633 C-1.94826342 325.80599051 -5.04458783 322.68555098 -8.13887119 319.56292248 C-10.53337572 317.14977353 -12.93458219 314.74337884 -15.33765984 312.33876991 C-16.48236639 311.19104739 -17.62458427 310.04083687 -18.76419258 308.88805199 C-20.35733305 307.27779098 -21.95974416 305.67733341 -23.56469727 304.07885742 C-24.47179947 303.16810959 -25.37890167 302.25736176 -26.31349182 301.3190155 C-30.08391751 298.06435368 -33.44180027 296.2308444 -38.375 295.5 C-43.16115102 296.16015876 -46.34491559 297.87177461 -50 301 Z " fill="#ffffff" transform="translate(243,73)"/>
</svg>
