<?xml version="1.0" encoding="UTF-8"?>
<svg version="1.1" xmlns="http://www.w3.org/2000/svg" width="512" height="512">
<path d="M0 0 C153.78 0 307.56 0 466 0 C466 5.43611786 465.85259897 10.1068277 465.14663124 15.40756607 C465.0082392 16.46302956 465.0082392 16.46302956 464.86705136 17.53981555 C464.55813063 19.88597248 464.2417924 22.23106664 463.92544556 24.57623291 C463.69956455 26.27964573 463.47413932 27.98311904 463.24912965 29.68664718 C462.63062829 34.35893577 462.00559105 39.03033 461.37945366 43.70160055 C460.70489882 48.74266608 460.03637146 53.78453138 459.36705017 58.82629395 C458.05543998 68.69851589 456.73810158 78.56996529 455.41862799 88.44113901 C454.34665467 96.46128084 453.27658327 104.48167424 452.20786667 112.50225067 C452.05579925 113.64346069 451.90373182 114.78467071 451.7470563 115.96046285 C451.43815063 118.27871137 451.1292471 120.59696018 450.82034568 122.91520926 C447.92358126 144.65284328 445.02008103 166.38957364 442.11448209 188.12602827 C439.45459178 208.02589179 436.80285895 227.92683224 434.15500815 247.82830098 C431.43715285 268.25541106 428.71399636 288.68180782 425.98498952 309.10743117 C424.45251099 320.57815418 422.92212679 332.04914726 421.39723587 343.52088165 C420.09957398 353.28268257 418.7968955 363.04379778 417.48766424 372.80405405 C416.81949219 377.78628546 416.15366853 382.76880154 415.49405861 387.75217438 C414.89072782 392.30988312 414.28080987 396.86665889 413.66552679 401.42276904 C413.44359394 403.07501299 413.22411551 404.72758878 413.00728174 406.38050964 C412.71315118 408.61988758 412.4102496 410.85790624 412.10505104 413.09579849 C411.93873354 414.34150124 411.77241603 415.58720398 411.6010586 416.8706553 C410.91468944 420.44415995 410.32231897 423.06200557 407.29286194 425.21096802 C406.60848557 425.54498627 405.92410919 425.87900452 405.21899414 426.22314453 C404.43959976 426.61100128 403.66020538 426.99885803 402.85719299 427.39846802 C402.00842087 427.8058017 401.15964874 428.21313538 400.28515625 428.6328125 C399.40081406 429.06955292 398.51647186 429.50629333 397.60533142 429.95626831 C394.76316258 431.35725867 391.9133052 432.7416806 389.0625 434.125 C385.36374836 435.93576301 381.66813341 437.75287808 377.97265625 439.5703125 C377.04595123 440.02468689 376.11924622 440.47906128 375.16445923 440.94720459 C369.28644595 443.83909785 363.46732671 446.82272772 357.68359375 449.8984375 C345.16586556 456.55316378 332.44703441 462.80630656 319.75195312 469.11376953 C308.47041419 474.72219904 297.21472762 480.3603122 286.08210754 486.25959778 C277.13325339 490.99973564 268.13210417 495.6344352 259.09741211 500.20874023 C257.13100901 501.20802739 255.16785847 502.21373695 253.20776367 503.2253418 C250.32700891 504.71110499 247.43646025 506.17594884 244.54296875 507.63671875 C243.23515694 508.31923958 243.23515694 508.31923958 241.90092468 509.01554871 C238.27271202 510.82384499 235.839344 512.02011459 231.73999023 511.921875 C228.91679624 510.97200593 226.29473832 509.92101675 223.6171875 508.61328125 C222.5545166 508.09805908 221.4918457 507.58283691 220.39697266 507.05200195 C219.23472168 506.47796631 218.0724707 505.90393066 216.875 505.3125 C215.62440815 504.70161248 214.37358667 504.09119486 213.12255859 503.48120117 C199.43032929 496.7853771 185.81201172 489.93583546 172.19873047 483.08129883 C163.03747203 478.47465607 153.8472091 473.94549007 144.5859375 469.54296875 C132.00625605 463.56227179 119.56514808 457.31668887 107.125 451.05224609 C95.3761648 445.13991615 83.59310658 439.31808203 71.7109375 433.6776123 C69.94789592 432.84069227 68.18990825 431.99301431 66.43798828 431.13305664 C64.04572751 429.97037975 64.04572751 429.97037975 61.63623047 429.18530273 C59.35501543 428.33196313 57.84575884 427.59176321 56 426 C55.2889514 423.83387852 55.2889514 423.83387852 54.89867401 421.19056702 C54.74635032 420.20046442 54.59402662 419.21036182 54.43708706 418.19025612 C54.29284833 417.1374716 54.1486096 416.08468708 54 415 C53.85143838 413.97433111 53.70287676 412.94866222 53.54981327 411.89191246 C53.06435307 408.45643792 52.60768004 405.01800515 52.15637207 401.57788086 C51.98050893 400.25237531 51.80441088 398.92690092 51.62810087 397.60145473 C51.14786889 393.98609429 50.67093396 390.37030565 50.19456768 386.75443411 C49.67828651 382.84015174 49.15889611 378.92628178 48.63989258 375.01235962 C47.74005112 368.22324096 46.84215272 361.43386762 45.9455719 354.64431763 C44.63849277 344.74626723 43.32834555 334.84862475 42.01748174 324.95107496 C39.87613112 308.78243417 37.7371115 292.61348591 35.59960938 276.44433594 C33.54856262 260.92922471 31.49665327 245.41422807 29.44335938 229.89941406 C29.31811105 228.95302673 29.19286272 228.00663939 29.06381899 227.03157365 C27.80751303 217.53894851 26.55106641 208.04634198 25.29461089 198.55373663 C24.7975653 194.79851056 24.30052713 191.0432835 23.80349404 187.28805578 C23.55717819 185.42706949 23.31086013 183.5660835 23.06453985 181.70509779 C21.53037701 170.11413581 19.99688888 158.52308488 18.46428823 146.93191624 C17.6844933 141.03433375 16.90434673 135.13679779 16.12419298 129.23926276 C15.47567172 124.33631791 14.82777282 119.4332913 14.18031326 114.53020614 C11.96979714 97.79312201 9.74306057 81.058409 7.48225003 64.32803786 C6.77424679 59.08524983 6.06876785 53.84212129 5.36312279 48.59901541 C4.69360857 43.62755556 4.01935488 38.65676847 3.34144664 33.68644667 C2.92646288 30.63593163 2.515818 27.58484375 2.10632193 24.53358769 C1.91662365 23.12709431 1.72509328 21.72084656 1.53154886 20.31487727 C1.26642466 18.38737792 1.00848578 16.45889439 0.75084686 14.53038025 C0.60496234 13.455755 0.45907783 12.38112974 0.30877256 11.27394009 C-0.04421738 7.53115965 0 3.75938922 0 0 Z M57 52 C58.19578421 62.76205792 59.40755132 73.48655503 60.8662262 84.21017456 C61.04478424 85.53452129 61.22315737 86.85889295 61.4013657 88.18328679 C61.88329305 91.76085379 62.36780965 95.33806567 62.85282075 98.91521573 C63.37854782 102.79619499 63.90179692 106.67750849 64.42538452 110.55877686 C65.44767669 118.13387813 66.47224642 125.70866961 67.49767155 133.28334735 C68.3307429 139.43743543 69.16298279 145.59163543 69.99464226 151.74591446 C70.11342309 152.62488562 70.23220392 153.50385679 70.35458417 154.40946344 C70.5959281 156.19541867 70.8372703 157.98137413 71.07861077 159.76732983 C73.33469251 176.46192406 75.59339252 193.15616324 77.8529933 209.85028149 C79.79170952 224.17415555 81.7281053 238.49834178 83.6628418 252.82275391 C85.91309038 269.48315016 88.16480383 286.14334737 90.4188351 302.80323231 C90.65894997 304.57799001 90.89906278 306.35274799 91.13917351 308.12750626 C91.25729956 309.00062069 91.37542562 309.87373513 91.49713125 310.77330758 C92.32958682 316.9270753 93.16098662 323.08098513 93.99197578 329.23495102 C95.00317521 336.72328007 96.01596808 344.21139151 97.03082604 351.69922565 C97.5485416 355.51934676 98.06552849 359.33956276 98.58056831 363.16004562 C99.13819216 367.29622886 99.69929201 371.43193293 100.26075745 375.56759644 C100.50530799 377.38768449 100.50530799 377.38768449 100.75479895 379.244542 C100.98061444 380.90141711 100.98061444 380.90141711 101.21099186 382.59176445 C101.40473175 384.02386295 101.40473175 384.02386295 101.60238558 385.48489273 C101.95589326 387.7210031 102.30215052 389.84615884 103 392 C104.83787421 393.35695435 104.83787421 393.35695435 107.21484375 394.33984375 C108.56545898 394.96439453 108.56545898 394.96439453 109.94335938 395.6015625 C111.42545898 396.26285156 111.42545898 396.26285156 112.9375 396.9375 C115.05189056 397.91296365 117.16513038 398.89092465 119.27734375 399.87109375 C120.38319824 400.38140137 121.48905273 400.89170898 122.62841797 401.41748047 C128.13962136 404.00427412 133.56673765 406.75422348 139 409.5 C147.08451758 413.56822235 155.1972104 417.56019836 163.375 421.4375 C171.97326398 425.51477999 180.49848496 429.7249359 189 434 C200.53522731 439.79935616 212.12274016 445.47950594 223.82324219 450.93896484 C225.68134279 451.84467427 227.47837265 452.87390614 229.2578125 453.92578125 C231.96013761 455.26477237 231.96013761 455.26477237 234.80078125 454.46875 C238.97146827 452.55400236 243.09546329 450.57775187 247.1875 448.5 C248.07405273 448.05350098 248.96060547 447.60700195 249.87402344 447.14697266 C256.29429143 443.90032096 262.65679622 440.55190656 269.00854492 437.17382812 C276.93922797 432.98264064 284.96974435 428.99571879 293 425 C302.252025 420.39625726 311.47182488 415.75757303 320.5859375 410.88476562 C330.06688865 405.8490647 339.70809065 401.12224294 349.32617188 396.35546875 C350.00820679 396.01656616 350.6902417 395.67766357 351.39294434 395.32849121 C352.68316118 394.68747506 353.97421726 394.0481444 355.26623535 393.4107666 C357.97384606 392.06457905 360.47829692 390.68113539 363 389 C363.64422618 386.38854447 364.08417417 383.94255991 364.4367218 381.28717041 C364.61773956 380.03790185 364.61773956 380.03790185 364.80241424 378.76339555 C365.21848758 375.84435571 365.61089768 372.92275392 366 370 C366.14574392 368.92266192 366.29148784 367.84532385 366.44164824 366.73533916 C367.57081199 358.36262283 368.65471307 349.98426706 369.72991645 341.60449672 C370.21666096 337.81572398 370.70656915 334.02736002 371.19602966 330.23893738 C372.15049134 322.84733205 373.102001 315.45534974 374.05233284 308.06321242 C374.82467352 302.05579763 375.59796456 296.04850591 376.371912 290.04129791 C376.5958027 288.30345259 376.81969326 286.56560725 377.04358369 284.82776189 C377.15504786 283.96257464 377.26651202 283.0973874 377.38135389 282.20598236 C379.48149659 265.90345273 381.57804752 249.60046268 383.67351995 233.2973322 C385.59000109 218.38772367 387.51122214 203.47873032 389.43462285 188.57001302 C391.41334122 173.23215128 393.3887768 157.89386997 395.3606928 142.55513215 C396.46637934 133.95492511 397.57338146 125.3548923 398.68385887 116.75530243 C399.6277357 109.44561919 400.56853064 102.13554745 401.50533124 94.82495382 C401.98310713 91.09717164 402.46230447 87.36958692 402.94535828 83.64248466 C403.46891974 79.60249306 403.98561312 75.56165275 404.50163269 71.52069092 C404.65522426 70.34395616 404.80881584 69.16722141 404.9670617 67.95482802 C405.10454742 66.86927194 405.24203315 65.78371585 405.38368511 64.66526413 C405.56351154 63.26758399 405.56351154 63.26758399 405.74697083 61.84166789 C406.03802467 58.57296037 406 55.28164001 406 52 C290.83 52 175.66 52 57 52 Z " fill="#ffffff" transform="translate(23,0)"/>
<path d="M0 0 C77.88 0 155.76 0 236 0 C234.54756117 17.42926592 231.59442698 34.70382015 229 52 C173.23 52 117.46 52 60 52 C62.31 66.85 64.62 81.7 67 97 C67 98.65 67 100.3 67 102 C117.82 102 168.64 102 221 102 C218.59668411 124.83150091 218.59668411 124.83150091 217.42211914 135.20727539 C217.27678238 136.49121185 217.13144562 137.77514832 216.98170471 139.09799194 C215.65345232 150.76270646 214.23245227 162.41573639 212.77944279 174.06551456 C211.80934798 181.86072002 210.87295958 189.65728509 210.01391602 197.46557617 C209.25795843 204.33614951 208.44030186 211.19609851 207.54893392 218.05046839 C207.08148473 221.66116041 206.64415812 225.26955983 206.28126717 228.89238167 C204.07975491 250.56445263 204.07975491 250.56445263 199.12831688 256.08791161 C194.65340571 259.51373822 189.73856906 261.41586854 184.41981697 263.16011238 C180.82386287 264.4082222 177.58247602 266.18300895 174.24682617 267.99682617 C173.01607774 268.63026452 171.78325181 269.25968259 170.54838562 269.88505554 C169.93590155 270.19653723 169.32341747 270.50801891 168.69237328 270.82893944 C164.63043026 272.89054984 160.5661696 274.94756302 156.49898815 276.9988203 C152.96064245 278.78343855 149.42588031 280.57451761 145.89819336 282.38012695 C142.42739769 284.15643849 138.94903835 285.91699925 135.46471596 287.66662025 C134.15225137 288.32895428 132.84253956 288.9967744 131.53578758 289.67030907 C129.72181584 290.60397775 127.89662601 291.51575334 126.07104492 292.42651367 C124.52485725 293.21066902 124.52485725 293.21066902 122.94743347 294.01066589 C117.4353196 295.86085939 113.26219089 293.85958531 108.31460571 291.41169739 C107.60839081 291.05218491 106.9021759 290.69267242 106.17456055 290.32226562 C105.41451218 289.94333664 104.65446381 289.56440765 103.87138367 289.17399597 C101.37257441 287.92574253 98.87965534 286.66618552 96.38671875 285.40625 C94.64923188 284.53504403 92.91141877 283.66448842 91.17329407 282.79455566 C87.53878545 280.97348689 83.90692101 279.14728782 80.27709961 277.31689453 C75.6152017 274.96609968 70.94899385 272.62402721 66.28106976 270.28522491 C61.83569731 268.05756352 57.39232455 265.82592799 52.94921875 263.59375 C52.09729132 263.16608841 51.24536388 262.73842682 50.36762047 262.29780579 C47.97012932 261.09329755 45.57406177 259.88600851 43.1784668 258.67773438 C42.46213074 258.31822189 41.74579468 257.95870941 41.00775146 257.58830261 C36.11491023 255.11491023 36.11491023 255.11491023 35 254 C34.70331446 252.61518212 34.46158561 251.21850393 34.24389648 249.8190918 C34.10382675 248.93114426 33.96375702 248.04319672 33.81944275 247.12834167 C33.67148758 246.16173111 33.52353241 245.19512054 33.37109375 244.19921875 C33.21713638 243.21129837 33.06317902 242.22337799 32.90455627 241.20552063 C32.57899564 239.11005926 32.2554836 237.01427876 31.93383789 234.91821289 C31.44109362 231.71089124 30.94078203 228.50481784 30.43945312 225.29882812 C30.12454537 223.26569536 29.81007784 221.23249436 29.49609375 219.19921875 C29.27112465 217.75841194 29.27112465 217.75841194 29.04161072 216.28849792 C28.90469315 215.3910939 28.76777557 214.49368988 28.62670898 213.5690918 C28.50537094 212.78157028 28.3840329 211.99404877 28.25901794 211.18266296 C28 209 28 209 28 205 C45.16 205 62.32 205 80 205 C81.40669734 210.62678937 82.39623622 215.36487141 83 221 C83.8559375 221.26135742 84.711875 221.52271484 85.59375 221.79199219 C89.10489364 223.03719995 92.21467532 224.57512027 95.5 226.328125 C96.72867218 226.96969787 97.95785464 227.61029431 99.1875 228.25 C101.10164894 229.25039883 103.01184556 230.25637001 104.9140625 231.27929688 C106.76694819 232.27245885 108.63163778 233.23946791 110.5 234.203125 C111.6034375 234.78739258 112.706875 235.37166016 113.84375 235.97363281 C118.83003677 237.59510169 121.66082683 235.62896865 126.21972656 233.48779297 C127.91307129 232.62371826 127.91307129 232.62371826 129.640625 231.7421875 C130.24888123 231.43427277 130.85713745 231.12635803 131.48382568 230.80911255 C133.40788704 229.83496102 135.32923839 228.85563997 137.25 227.875 C139.79458726 226.57616075 142.34175208 225.28259211 144.890625 223.9921875 C146.01500977 223.41839355 147.13939453 222.84459961 148.29785156 222.25341797 C151 221 151 221 153 221 C153.08547592 220.21961365 153.17095184 219.43922729 153.25901794 218.63519287 C154.06534191 211.27805967 154.87431124 203.92122444 155.68624783 196.56470871 C156.10357074 192.78271827 156.51987267 189.00062127 156.93383789 185.21826172 C157.33343124 181.56756445 157.73571092 177.91717229 158.13984871 174.2669754 C158.293504 172.874845 158.44619378 171.48260768 158.59789848 170.09026337 C158.81066886 168.13899604 159.02720191 166.18814012 159.24389648 164.23730469 C159.42709694 162.57184601 159.42709694 162.57184601 159.61399841 160.8727417 C160 158 160 158 161 154 C114.47 154 67.94 154 20 154 C12.99586868 103.80372557 12.99586868 103.80372557 10.3515625 84.04296875 C10.20260906 82.93147272 10.05365562 81.81997669 9.90018845 80.67479897 C9.12076421 74.85832822 8.3426822 69.04168008 7.56591797 63.22485352 C6.76928583 57.26133852 5.96773447 51.29849436 5.16524696 45.33576488 C4.53982247 40.68220173 3.91788146 36.0281779 3.29691696 31.37401772 C3.00238465 29.17104987 2.7065508 26.9682556 2.40935135 24.76564598 C1.99918079 21.72339528 1.59394919 18.68052553 1.18994141 15.63745117 C1.06845734 14.74475021 0.94697327 13.85204926 0.82180786 12.93229675 C0.71268066 12.10270447 0.60355347 11.27311218 0.49111938 10.41838074 C0.39567148 9.70545459 0.30022358 8.99252844 0.20188332 8.25799847 C-0.04332271 5.51544974 0 2.75348861 0 0 Z " fill="#ffffff" transform="translate(138,102)"/>
</svg>
