<?xml version="1.0" standalone="no"?>
<!DOCTYPE svg PUBLIC "-//W3C//DTD SVG 20010904//EN"
 "http://www.w3.org/TR/2001/REC-SVG-20010904/DTD/svg10.dtd">
<svg version="1.0" xmlns="http://www.w3.org/2000/svg"
 width="1969.000000pt" height="2048.000000pt" viewBox="0 0 1969.000000 2048.000000"
 preserveAspectRatio="xMidYMid meet">

<g transform="translate(0.000000,2048.000000) scale(0.100000,-0.100000)"
fill="#ffffff" stroke="none">
<path d="M4020 20466 c-64 -17 -3872 -2211 -3922 -2259 -22 -22 -52 -64 -66
-95 l-27 -57 0 -6545 c0 -6408 0 -6546 19 -6600 32 -92 87 -135 397 -312 151
-86 1012 -581 1914 -1100 4249 -2447 5413 -3116 5445 -3129 48 -19 165 -18
215 3 65 27 7627 4384 7667 4417 21 18 51 60 70 98 l33 68 3 2105 3 2105 1817
1045 c1979 1138 1898 1088 1941 1203 l21 58 -2 2227 -3 2227 -22 48 c-12 26
-42 66 -66 90 -31 29 -613 369 -1958 1143 -1053 606 -1931 1107 -1952 1114
-51 16 -158 14 -201 -4 -19 -8 -893 -509 -1943 -1113 -1461 -841 -1919 -1109
-1954 -1144 -30 -29 -54 -65 -68 -102 l-21 -58 0 -2097 0 -2097 -207 -120
c-115 -65 -824 -473 -1576 -907 -753 -433 -1370 -788 -1373 -788 -2 0 -5 1837
-6 4083 l-3 4082 -27 57 c-14 31 -44 73 -66 95 -55 53 -3859 2242 -3927 2260
-60 16 -96 16 -155 -1z m1654 -1569 c863 -497 1568 -907 1568 -911 0 -8 -3129
-1816 -3142 -1816 -14 0 -3142 1808 -3141 1816 0 8 3127 1814 3141 1814 3 0
711 -406 1574 -903z m11351 -2140 c863 -497 1570 -908 1572 -913 1 -5 -332
-201 -740 -436 -408 -234 -1111 -639 -1562 -899 -451 -260 -829 -473 -840
-473 -16 0 -3121 1778 -3147 1803 -6 5 3122 1817 3143 1820 3 1 711 -406 1574
-902z m-14830 -214 c836 -481 1537 -886 1557 -899 l38 -24 2 -4273 3 -4272 30
-54 c16 -29 48 -70 71 -90 23 -20 802 -466 1730 -991 929 -525 1745 -987 1814
-1026 l125 -71 3 -1816 c1 -1000 0 -1817 -2 -1817 -2 0 -1562 898 -3467 1994
l-3464 1995 -3 6121 -2 6121 22 -12 c13 -7 707 -405 1543 -886z m5375 -3062
l0 -3958 -1574 -907 c-866 -498 -1577 -906 -1580 -906 -3 0 -6 1781 -6 3958
l0 3957 1578 907 c867 500 1578 908 1580 908 1 0 2 -1781 2 -3959z m6024 894
l1546 -890 0 -1798 c0 -1064 -4 -1797 -9 -1795 -5 2 -716 410 -1580 908
l-1571 904 0 1798 0 1798 34 -17 c18 -10 729 -418 1580 -908z m5336 -875 l0
-1790 -37 -24 c-44 -28 -3114 -1796 -3119 -1796 -2 0 -4 809 -4 1798 l0 1797
1573 906 c864 498 1575 904 1580 902 4 -2 7 -809 7 -1793z m-5681 -3249 c860
-495 1566 -903 1568 -905 3 -2 -573 -334 -1279 -737 -706 -403 -2264 -1292
-3463 -1977 -1199 -684 -2182 -1246 -2186 -1247 -8 -6 -3141 1770 -3141 1781
-1 11 6914 3994 6927 3990 6 -2 714 -409 1574 -905z m1891 -3250 l0 -1799
-3461 -1993 c-1904 -1097 -3466 -1996 -3470 -1997 -5 -2 -8 809 -7 1814 l3
1818 3465 1978 c1906 1088 3466 1978 3468 1978 1 0 2 -810 2 -1799z"/>
</g>
</svg>
