<?xml version="1.0" standalone="no"?>
<!DOCTYPE svg PUBLIC "-//W3C//DTD SVG 20010904//EN"
 "http://www.w3.org/TR/2001/REC-SVG-20010904/DTD/svg10.dtd">
<svg version="1.0" xmlns="http://www.w3.org/2000/svg"
 width="1920.000000pt" height="1920.000000pt" viewBox="0 0 1920.000000 1920.000000"
 preserveAspectRatio="xMidYMid meet">

<g transform="translate(0.000000,1920.000000) scale(0.100000,-0.100000)"
fill="#ffffff" stroke="none">
<path d="M6500 15354 c-177 -5 -478 -24 -620 -40 -337 -37 -720 -171 -985
-344 -281 -185 -527 -437 -694 -713 -168 -278 -281 -622 -316 -955 -40 -385
-40 -405 -40 -3712 0 -3318 0 -3340 41 -3710 48 -432 223 -855 497 -1195 136
-169 362 -364 560 -484 278 -168 622 -281 955 -316 385 -40 405 -40 3712 -40
3313 0 3346 0 3710 41 504 56 973 274 1329 619 374 362 610 857 666 1393 40
385 40 405 40 3712 0 3313 0 3346 -41 3710 -58 528 -297 1021 -669 1378 -363
350 -832 565 -1348 617 -375 38 -372 38 -3567 40 -1719 1 -3172 0 -3230 -1z
m650 -2304 c288 -69 524 -299 602 -587 28 -104 31 -308 5 -402 -41 -150 -98
-257 -196 -363 -224 -243 -560 -329 -873 -222 -359 122 -593 492 -547 866 42
349 279 618 624 709 100 26 273 25 385 -1z m4442 -2235 c246 -37 457 -113 657
-238 118 -73 286 -204 350 -273 159 -169 339 -525 415 -817 52 -199 51 -163
51 -1812 l0 -1540 -702 -3 -703 -2 0 1314 c0 1438 2 1397 -59 1573 -120 349
-484 558 -897 513 -244 -26 -435 -107 -565 -240 -141 -144 -235 -350 -269
-585 -6 -43 -10 -546 -10 -1322 l0 -1253 -700 0 -700 0 0 2310 0 2310 660 0
660 0 0 -331 0 -330 60 74 c264 329 717 581 1167 651 122 19 462 20 585 1z
m-3922 -2375 l0 -2310 -715 0 -715 0 0 2310 0 2310 715 0 715 0 0 -2310z"/>
</g>
</svg>
