<?xml version="1.0" standalone="no"?>
<!DOCTYPE svg PUBLIC "-//W3C//DTD SVG 20010904//EN"
 "http://www.w3.org/TR/2001/REC-SVG-20010904/DTD/svg10.dtd">
<svg version="1.0" xmlns="http://www.w3.org/2000/svg"
 width="1024.000000pt" height="181.000000pt" viewBox="0 0 1024.000000 181.000000"
 preserveAspectRatio="xMidYMid meet">

<g transform="translate(0.000000,181.000000) scale(0.100000,-0.100000)"
fill="#000000" stroke="none">
<path d="M0 905 l0 -905 5120 0 5120 0 0 905 0 905 -5120 0 -5120 0 0 -905z
m9760 430 c0 -3 -64 -38 -142 -77 l-143 -73 105 -5 105 -5 3 -122 3 -123 -178
-2 c-112 -2 -177 -7 -176 -13 2 -6 50 -11 113 -13 l110 -3 0 -84 0 -85 -115 0
c-68 0 -115 -4 -115 -10 0 -6 81 -11 208 -12 l207 -3 3 -122 3 -123 -346 0
-345 0 -2 233 -3 232 -65 0 -65 0 -3 -232 -2 -233 -135 0 -135 0 -2 233 -3
232 -102 3 -103 3 0 124 0 125 455 0 454 0 27 48 c15 26 36 62 46 80 l20 32
159 0 c87 0 159 -2 159 -5z m-4564 -168 c22 -8 46 -17 56 -21 11 -5 18 -1 23
13 6 20 14 21 135 21 l129 0 3 -112 3 -113 63 -3 62 -3 0 116 0 116 133 -3
132 -3 3 -170 4 -170 57 170 58 170 184 0 184 0 55 -160 c30 -88 60 -169 65
-180 7 -14 11 31 15 160 l5 180 255 0 255 0 57 -28 c32 -16 66 -39 77 -53 10
-13 22 -24 25 -24 3 0 6 25 6 55 l0 56 133 -3 132 -3 3 -232 2 -233 153 0 153
0 76 233 76 232 181 3 182 2 13 -32 c8 -18 64 -180 125 -361 l111 -328 -157 3
-156 3 -20 58 -19 58 -81 -3 -80 -3 -20 -57 -19 -58 -502 0 -501 0 -80 80
c-44 44 -83 80 -87 80 -5 0 -8 -36 -8 -80 l0 -80 -247 2 -246 3 -16 47 c-9 26
-21 52 -27 58 -6 7 -41 10 -84 8 l-73 -3 -20 -57 -21 -58 -223 0 -222 0 -3
117 -3 118 -60 0 -60 0 -3 -117 -3 -118 -134 0 -135 0 0 26 c0 21 -3 25 -17
19 -70 -30 -109 -39 -187 -43 -114 -6 -179 9 -256 59 -107 69 -149 127 -170
236 -15 73 -3 160 30 229 41 83 161 173 261 194 58 12 217 4 265 -13z m-4389
-84 l78 -97 5 95 5 94 366 3 c342 2 367 1 374 -15 8 -20 235 -696 235 -700 0
-2 -69 -3 -154 -3 l-154 0 -19 58 -20 57 -73 3 c-43 2 -78 -1 -84 -8 -6 -6
-18 -32 -27 -58 l-16 -47 -209 -3 -210 -2 -74 92 -75 93 -3 -92 -3 -93 -134 0
-135 0 0 360 0 360 125 0 124 0 78 -97z m1811 -20 l3 -113 59 0 59 0 3 113 3
112 130 0 130 0 5 -170 5 -170 54 160 c29 88 58 166 64 173 7 9 56 12 182 12
126 0 175 -3 182 -12 6 -7 37 -92 69 -188 l59 -175 5 185 5 185 120 3 c66 1
125 -1 131 -5 5 -5 41 -46 78 -93 37 -47 72 -86 77 -88 5 -2 9 40 9 92 l0 97
133 -3 132 -3 3 -358 2 -357 -132 0 -133 1 -70 89 c-38 50 -73 90 -77 90 -5 0
-8 -40 -8 -90 l0 -90 -234 0 -233 0 -22 60 -22 60 -79 0 -79 0 -22 -60 -22
-60 -223 0 -223 0 -3 117 -3 118 -57 3 -58 3 0 -121 0 -120 -135 0 -135 0 -2
233 -3 232 -44 3 c-25 2 -55 1 -68 -3 l-23 -5 0 -230 0 -230 -135 0 -135 0 -2
233 -3 232 -102 3 -103 3 0 118 c0 65 3 121 7 124 3 4 203 6 442 5 l436 -3 3
-112z"/>
<path d="M9447 1298 c-37 -60 -67 -118 -62 -118 10 0 265 130 265 135 0 3 -43
5 -95 5 -87 0 -96 -2 -108 -22z"/>
<path d="M8466 1144 c-3 -8 -6 -53 -6 -99 l0 -84 108 -3 107 -3 3 -237 2 -238
105 0 105 0 2 238 3 237 95 0 95 0 3 -238 2 -237 313 2 312 3 3 98 3 97 -206
0 -205 0 0 40 0 40 115 0 115 0 0 55 0 55 -115 0 -115 0 0 45 0 45 175 0 176
0 -3 98 -3 97 -591 3 c-533 2 -592 1 -598 -14z"/>
<path d="M4968 1159 c-114 -16 -236 -104 -279 -202 -18 -40 -24 -70 -24 -132
0 -129 40 -204 148 -273 79 -51 125 -65 212 -66 103 -1 156 11 218 48 l56 34
3 -42 3 -41 105 0 105 0 3 118 3 117 84 0 84 0 3 -117 3 -118 200 0 200 0 21
60 21 60 99 0 99 0 24 -62 25 -63 218 0 218 0 0 99 c0 55 4 102 8 105 5 3 55
-42 113 -100 l104 -104 478 0 478 0 15 38 c35 90 30 87 130 90 103 3 103 3
128 -75 l18 -53 124 0 c68 0 124 2 124 4 0 9 -216 653 -223 664 -11 17 -312
17 -324 0 -4 -7 -42 -114 -84 -238 l-76 -225 -176 -3 -177 -2 -2 237 -3 238
-102 3 -103 3 -2 -238 -3 -238 -81 -3 c-78 -3 -83 -2 -103 24 -12 15 -21 30
-21 34 0 3 25 17 55 29 90 37 133 111 119 203 -8 54 -24 86 -61 120 -60 57
-87 62 -345 66 l-238 4 0 -250 c0 -137 -3 -252 -7 -256 -4 -4 -46 107 -93 246
l-85 253 -165 0 -164 0 -81 -245 -80 -245 -5 245 -5 245 -105 0 -105 0 -3
-117 -3 -118 -84 0 -84 0 -3 118 -3 117 -105 0 -105 0 -5 -37 -5 -37 -43 29
c-63 42 -186 63 -284 49z m332 -341 l-1 -223 -58 65 -59 65 -43 -25 c-87 -49
-206 -23 -245 53 -24 44 -15 129 17 163 41 44 76 57 145 52 45 -3 72 -10 93
-26 l30 -22 53 60 c29 33 56 60 61 60 4 0 7 -100 7 -222z m986 60 c20 -62 39
-119 42 -125 3 -10 -19 -13 -88 -13 -69 0 -91 3 -88 13 3 6 23 63 44 124 21
62 42 113 46 113 3 0 23 -51 44 -112z m1910 0 c20 -62 39 -119 42 -125 3 -10
-18 -13 -87 -13 -50 0 -91 2 -91 4 0 2 18 52 40 112 22 60 42 115 45 122 2 6
6 12 9 12 2 0 21 -51 42 -112z m-1166 83 c17 -33 12 -79 -10 -91 -11 -6 -58
-10 -108 -8 l-87 3 -3 44 c-5 70 -4 71 102 71 84 0 97 -2 106 -19z"/>
<path d="M5223 928 l-42 -41 -43 28 c-117 78 -265 -4 -228 -127 24 -84 143
-112 230 -54 l44 29 43 -49 43 -48 0 152 c0 83 -1 152 -3 152 -1 0 -21 -19
-44 -42z"/>
<path d="M6211 841 c-11 -32 -21 -61 -21 -65 0 -3 23 -6 51 -6 37 0 50 4 47
13 -3 6 -13 36 -22 65 -10 28 -21 52 -25 52 -5 0 -18 -26 -30 -59z"/>
<path d="M8139 883 c-17 -43 -39 -105 -39 -109 0 -2 23 -4 50 -4 28 0 50 4 50
8 0 13 -41 132 -46 132 -3 0 -9 -12 -15 -27z"/>
<path d="M6857 954 c-4 -4 -7 -20 -7 -36 l0 -28 81 0 80 0 -3 33 -3 32 -70 3
c-39 1 -74 0 -78 -4z"/>
<path d="M7212 797 c-12 -13 -43 -34 -67 -46 -25 -12 -43 -27 -40 -32 4 -5 35
-9 71 -9 l64 0 0 55 c0 30 -1 55 -3 55 -2 0 -13 -10 -25 -23z"/>
<path d="M505 1147 c-3 -7 -4 -158 -3 -337 l3 -325 108 -3 107 -3 0 121 c0 66
3 120 8 120 4 -1 49 -55 100 -120 l93 -120 188 0 188 0 24 62 25 63 98 0 99 0
21 -60 21 -60 123 -3 c67 -1 122 1 122 5 0 4 -49 157 -108 338 l-108 330 -345
0 -344 0 -5 -124 -5 -124 -99 126 -99 127 -104 0 c-74 0 -105 -4 -108 -13z
m992 -282 l41 -125 -93 0 -94 0 23 63 c12 34 33 90 46 125 12 34 25 62 29 62
4 0 25 -56 48 -125z m-287 82 c0 -7 -15 -58 -34 -112 l-34 -100 -1 113 -1 112
35 0 c22 0 35 -5 35 -13z"/>
<path d="M1435 893 c-4 -10 -15 -42 -25 -70 l-19 -53 54 0 54 0 -21 63 c-24
73 -33 85 -43 60z"/>
<path d="M1767 1153 c-4 -3 -7 -48 -7 -100 l0 -93 105 0 105 0 0 -240 0 -241
108 3 107 3 3 238 2 238 93 -3 92 -3 3 -237 2 -238 105 0 105 0 0 120 0 120
90 0 90 0 0 -120 0 -120 199 0 199 0 18 53 c9 28 21 58 27 65 6 8 40 12 102
12 l93 0 24 -65 23 -65 207 0 208 0 0 120 c0 66 4 120 9 120 4 0 51 -54 102
-120 l94 -120 108 0 107 0 -2 338 -3 337 -102 3 -103 3 0 -119 c0 -65 -3 -122
-6 -125 -4 -4 -51 50 -106 119 l-99 125 -102 -3 -102 -3 -5 -260 -5 -260 -84
250 c-46 138 -88 256 -94 263 -14 17 -310 17 -325 0 -5 -7 -40 -107 -76 -221
-37 -115 -73 -221 -79 -235 -10 -22 -13 18 -17 218 l-5 245 -100 0 -100 0 -3
-117 -3 -118 -89 0 -89 0 -3 118 -3 117 -406 3 c-223 1 -408 -1 -412 -5z
m1597 -288 c20 -61 36 -113 36 -118 0 -4 -41 -7 -91 -7 -83 0 -91 2 -84 18 4
9 22 60 41 112 19 52 37 101 40 109 8 24 20 1 58 -114z"/>
<path d="M3305 898 c-2 -7 -13 -38 -25 -68 -11 -30 -20 -56 -20 -57 0 -2 23
-3 50 -3 28 0 50 4 50 8 0 14 -42 132 -46 132 -3 0 -7 -6 -9 -12z"/>
</g>
</svg>
