<?xml version="1.0" encoding="UTF-8"?>
<svg version="1.1" xmlns="http://www.w3.org/2000/svg" width="512" height="512">
<path d="M0 0 C0.70950806 0.1018158 1.41901611 0.20363159 2.15002441 0.30853271 C39.40345105 5.68470323 77.11210249 14.0744406 111 31 C111.88800293 31.43393066 112.77600586 31.86786133 113.69091797 32.31494141 C132.23190416 41.41835639 148.65204237 52.18473855 164 66 C164.80824219 66.72445312 165.61648438 67.44890625 166.44921875 68.1953125 C183.055231 83.90291921 194.77275296 105.87584775 195.46875 128.84375 C195.72910861 155.13996925 185.31726945 175.26099829 167.4050293 193.9934082 C122.48860425 239.77413006 53.82352843 257.56812992 -8.125 264.375 C-8.84765045 264.45462982 -9.5703009 264.53425964 -10.31484985 264.61630249 C-26.92930749 266.40997223 -43.54190853 267.212267 -60.25 267.1875 C-61.01902649 267.18689575 -61.78805298 267.1862915 -62.5803833 267.18566895 C-132.15169232 267.039312 -209.11429493 254.0758742 -267 213 C-267.60215332 212.57283691 -268.20430664 212.14567383 -268.82470703 211.70556641 C-290.58312303 195.99947764 -311.89419587 173.69249022 -316.70263672 146.31738281 C-319.83231742 121.92745735 -314.01611312 99.97727338 -299.05078125 80.5078125 C-282.91069227 60.7707894 -263.56202238 46.5984272 -241 35 C-240.1961084 34.58508301 -239.3922168 34.17016602 -238.56396484 33.74267578 C-196.7347805 12.40560803 -150.41337466 2.70906623 -104 -2 C-102.4840625 -2.15686279 -102.4840625 -2.15686279 -100.9375 -2.31689453 C-67.88178025 -5.20050055 -32.8620749 -4.76866907 0 0 Z M-238 50 C-239.1653125 50.61230469 -240.330625 51.22460938 -241.53125 51.85546875 C-268.20557696 66.42421714 -291.88990191 87.86049313 -301.74609375 117.22265625 C-306.36799109 134.27586366 -301.59359119 151.27892508 -293.13671875 166.14892578 C-290.2538261 170.84353318 -286.6715513 174.91668594 -283 179 C-281.97776351 180.24885277 -280.95675832 181.49871539 -279.9375 182.75 C-276.61701826 186.56674939 -272.90772583 189.79747634 -269 193 C-268.09765625 193.75152344 -267.1953125 194.50304687 -266.265625 195.27734375 C-221.52978887 231.2136182 -159.84503342 245.6660449 -104 251 C-103.05648682 251.09571289 -102.11297363 251.19142578 -101.14086914 251.29003906 C-88.15242463 252.4223806 -75.0892638 252.24393042 -62.0625 252.25 C-60.76421265 252.25067474 -59.46592529 252.25134949 -58.1282959 252.25204468 C-38.89629649 252.23616003 -20.05357304 251.81368102 -1 249 C0.23911133 248.82307617 1.47822266 248.64615234 2.75488281 248.46386719 C20.06859676 245.93940474 37.09469923 242.50710019 54 238 C54.86206055 237.77231934 55.72412109 237.54463867 56.61230469 237.31005859 C76.85504538 231.86858892 96.57205194 223.9896467 115 214 C115.59280762 213.68353516 116.18561523 213.36707031 116.79638672 213.04101562 C130.08011647 205.909103 142.09890468 197.43989513 153 187 C153.845625 186.195625 154.69125 185.39125 155.5625 184.5625 C156.366875 183.716875 157.17125 182.87125 158 182 C158.66515625 181.31808594 159.3303125 180.63617188 160.015625 179.93359375 C173.92258133 165.1988424 181.48818316 148.40103357 181.26953125 128.06640625 C180.36526004 109.39743752 170.28212632 94.25830688 158 81 C157.29359375 80.21238281 156.5871875 79.42476563 155.859375 78.61328125 C112.69214662 32.72750605 36.32707248 15.97088169 -24 12 C-25.20374268 11.91532471 -26.40748535 11.83064941 -27.64770508 11.7434082 C-38.53894245 11.01256061 -49.39857915 10.79714842 -60.3125 10.8125 C-61.6191713 10.81390488 -61.6191713 10.81390488 -62.95223999 10.81533813 C-123.09662674 10.95440109 -184.50620627 21.41894768 -238 50 Z " fill="#ffffff" transform="translate(317,124)"/>
<path d="M0 0 C8.78919382 -0.06988883 17.57829017 -0.12300682 26.36770248 -0.15543652 C30.45015108 -0.17101078 34.53240785 -0.1920959 38.61474609 -0.22631836 C42.56348778 -0.25920907 46.51204638 -0.27691475 50.46091461 -0.28463173 C51.95821255 -0.29012248 53.45550188 -0.30084251 54.95272064 -0.31719017 C69.44133714 -0.46891805 82.01247617 1.16312801 93.2578125 10.96875 C101.86709568 19.73687605 103.64369136 29.83646891 103.54125977 41.71264648 C102.85147645 59.42059529 94.73523728 74.47926506 81.91015625 86.43359375 C66.60064086 99.93473685 46.54183889 100.34418902 27.125 100.125 C25.55078703 100.11493595 23.97656774 100.10581623 22.40234375 100.09765625 C18.60140179 100.07594651 14.80077401 100.04161198 11 100 C10.8865625 101.21816406 10.773125 102.43632812 10.65625 103.69140625 C9.97153763 109.84537923 8.73454747 115.87410828 7.5 121.9375 C7.27441406 123.07251953 7.04882812 124.20753906 6.81640625 125.37695312 C5.13139205 133.73721591 5.13139205 133.73721591 4 136 C-5.9 136 -15.8 136 -26 136 C-24.87498152 124.74981522 -24.87498152 124.74981522 -23.9753418 120.14808655 C-23.7734726 119.10373444 -23.57160339 118.05938232 -23.36361694 116.98338318 C-23.03473984 115.31917076 -23.03473984 115.31917076 -22.69921875 113.62133789 C-22.46659332 112.42500732 -22.2339679 111.22867676 -21.99429321 109.99609375 C-21.36130567 106.74591059 -20.72427666 103.49657251 -20.08523941 100.24757695 C-19.41532487 96.83699255 -18.75034589 93.42544568 -18.0847168 90.01402283 C-16.9681105 84.29511463 -15.84801448 78.57689904 -14.72558594 72.85913086 C-13.42821525 66.25006882 -12.13544744 59.64011992 -10.8453207 53.02964026 C-9.46909621 45.97814751 -8.08982863 38.92725269 -6.70950699 31.87656093 C-6.3125665 29.84799608 -5.91616361 27.81932677 -5.51986694 25.79063606 C-4.78260493 22.01757881 -4.04190083 18.24520192 -3.30078125 14.47290039 C-3.08152985 13.34925583 -2.86227844 12.22561127 -2.63638306 11.06791687 C-2.43451385 10.04330353 -2.23264465 9.01869019 -2.0246582 7.96302795 C-1.76251274 6.62609186 -1.76251274 6.62609186 -1.49507141 5.26214695 C-1 3 -1 3 0 0 Z M26 22 C24.56919121 29.17031882 23.14579632 36.34208064 21.72753906 43.51489258 C21.24421928 45.95468433 20.75920509 48.39414106 20.27246094 50.83325195 C19.5730092 54.33978911 18.87966543 57.84748703 18.1875 61.35546875 C17.96876221 62.44522507 17.75002441 63.53498138 17.5246582 64.65776062 C17.32445068 65.67844131 17.12424316 66.69912201 16.91796875 67.75073242 C16.74031982 68.64563889 16.5626709 69.54054535 16.37963867 70.46257019 C15.99772609 73.0151984 15.93193017 75.42314049 16 78 C40.41037071 79.17033294 40.41037071 79.17033294 61.6875 69 C69.16156102 60.9628248 71.4798154 49.66378439 72 39 C71.6910927 34.15015533 70.0828878 29.84704902 66.70849609 26.24023438 C59.11013495 20.72441919 48.1814451 21.63319007 39.3125 21.8125 C37.38374023 21.83280273 37.38374023 21.83280273 35.41601562 21.85351562 C32.27689145 21.88852444 29.13867939 21.93762942 26 22 Z " fill="#ffffff" transform="translate(333,196)"/>
<path d="M0 0 C8.78919382 -0.06988883 17.57829017 -0.12300682 26.36770248 -0.15543652 C30.45015108 -0.17101078 34.53240785 -0.1920959 38.61474609 -0.22631836 C42.56348778 -0.25920907 46.51204638 -0.27691475 50.46091461 -0.28463173 C51.95821255 -0.29012248 53.45550188 -0.30084251 54.95272064 -0.31719017 C69.36541678 -0.468123 83.36611268 1.17297537 94.40234375 11.25390625 C101.62521407 19.1478501 104.71085376 30.71325728 104.2734375 41.26171875 C102.44780013 59.54417296 95.75932368 74.67119424 82 87 C66.03549027 99.4419305 47.52162549 100.22473712 28.125 100.625 C22.80375 100.74875 17.4825 100.8725 12 101 C9.69 112.55 7.38 124.1 5 136 C-5.23 136 -15.46 136 -26 136 C-22.71276217 118.1583043 -19.35821862 100.33226075 -15.91796875 82.51953125 C-15.45420344 80.1143304 -14.99052628 77.70911256 -14.52693176 75.30387878 C-13.32611738 69.07501685 -12.12413317 62.84638126 -10.921875 56.61779785 C-9.68742123 50.22125076 -8.45411561 43.82448231 -7.22070312 37.42773438 C-4.81490321 24.95161037 -2.4079022 12.47571843 0 0 Z M27 22 C24.23244538 32.13840872 22.29792212 42.41839228 20.35571289 52.73974609 C19.80701812 55.6541168 19.25252987 58.56734327 18.69726562 61.48046875 C18.34601848 63.33326973 17.99509489 65.18613208 17.64453125 67.0390625 C17.47895218 67.90979401 17.31337311 68.78052551 17.14277649 69.67764282 C16.31043612 73.81000357 16.31043612 73.81000357 16 78 C40.37492734 79.20831254 40.37492734 79.20831254 61.80078125 69.43359375 C70.03727341 60.62483911 72.5731622 48.52808289 72.3046875 36.8046875 C71.82620543 32.40019873 70.86251331 30.43501597 68 27 C61.67801376 22.61496274 55.07963555 21.86628745 47.5078125 21.90234375 C46.30898437 21.90556641 45.11015625 21.90878906 43.875 21.91210938 C42.6375 21.92048828 41.4 21.92886719 40.125 21.9375 C38.86429688 21.94201172 37.60359375 21.94652344 36.3046875 21.95117188 C33.20307614 21.9629204 30.10156275 21.97934833 27 22 Z " fill="#ffffff" transform="translate(103,196)"/>
<path d="M0 0 C9.9 0 19.8 0 30 0 C29.40636917 5.34267746 28.83187384 10.34505401 27.80859375 15.56640625 C27.58623047 16.71044922 27.36386719 17.85449219 27.13476562 19.03320312 C26.90466797 20.19787109 26.67457031 21.36253906 26.4375 22.5625 C26.20353516 23.76197266 25.96957031 24.96144531 25.72851562 26.19726562 C25.15556853 29.1321579 24.57932273 32.06636078 24 35 C25.11858398 35.01458252 26.23716797 35.02916504 27.38964844 35.04418945 C31.59454131 35.10276669 35.7989314 35.17998811 40.00341797 35.26245117 C41.81290442 35.29542404 43.6224869 35.32353911 45.43212891 35.34643555 C60.60919423 35.54359477 74.05315173 36.02563523 85.875 46.5625 C92.11759318 54.94238779 89.82839277 66.58811503 88.44491577 76.18441772 C86.96444048 85.55338202 85.0599835 94.85303327 83.2043457 104.15332031 C82.6875371 106.74575471 82.17358829 109.33852508 81.6652832 111.93261719 C80.92585766 115.70597676 80.18088801 119.4781917 79.43359375 123.25 C79.08982948 124.99966064 79.08982948 124.99966064 78.73912048 126.78466797 C78.41857445 128.3839917 78.41857445 128.3839917 78.09155273 130.015625 C77.90439194 130.95696289 77.71723114 131.89830078 77.5243988 132.86816406 C77 135 77 135 76 136 C73.78144736 136.08783542 71.56011504 136.10694609 69.33984375 136.09765625 C68.34314415 136.09553383 68.34314415 136.09553383 67.3263092 136.09336853 C65.19666101 136.08775518 63.06711661 136.07520054 60.9375 136.0625 C59.49674631 136.05748671 58.05599097 136.05292351 56.61523438 136.04882812 C53.07678898 136.03778145 49.53840461 136.02050792 46 136 C46.5750431 128.94821835 47.63425625 122.10446767 49.03125 115.171875 C49.22722778 114.17923645 49.42320557 113.1865979 49.62512207 112.16387939 C50.24568932 109.02502974 50.87259859 105.88749003 51.5 102.75 C52.12606708 99.59797635 52.75081689 96.44569532 53.37487793 93.29327393 C53.76184986 91.3407957 54.15020895 89.38859173 54.54016113 87.43670654 C56.4519637 78.19531442 56.4519637 78.19531442 57.25 68.8125 C57.27578125 67.97332031 57.3015625 67.13414062 57.328125 66.26953125 C56.9181196 63.43366058 56.19379703 62.79006258 54 61 C46.68779308 58.43409619 38.52980412 58.58862244 30.875 58.375 C29.72773438 58.33632812 28.58046875 58.29765625 27.3984375 58.2578125 C24.59910105 58.16450129 21.79973414 58.08015836 19 58 C18.88793716 58.76758636 18.77587433 59.53517273 18.66041565 60.32601929 C17.38809097 68.83769692 15.85865493 77.27952354 14.21484375 85.7265625 C13.95089613 87.09082012 13.68711051 88.4551091 13.42347717 89.81942749 C12.87627039 92.64832039 12.32734697 95.47687278 11.77709961 98.30517578 C11.07237266 101.92810691 10.37174446 105.55181665 9.67232418 109.17577553 C9.13079152 111.97957283 8.58729684 114.78298696 8.04318428 117.58628464 C7.78386285 118.92341501 7.5251127 120.26065632 7.26695061 121.59801102 C6.90772374 123.45716188 6.54560452 125.31575318 6.18334961 127.17431641 C5.97842392 128.22986725 5.77349823 129.28541809 5.56236267 130.37295532 C5 133 5 133 4 136 C-5.9 136 -15.8 136 -26 136 C-24.87497207 124.74972068 -24.87497207 124.74972068 -23.9753418 120.10339355 C-23.7734726 119.04918213 -23.57160339 117.9949707 -23.36361694 116.90881348 C-23.14436554 115.78841675 -22.92511414 114.66802002 -22.69921875 113.51367188 C-22.46659332 112.30598145 -22.2339679 111.09829102 -21.99429321 109.85400391 C-21.36127829 106.57290913 -20.72428049 103.29263927 -20.08523941 100.01271629 C-19.41549529 96.57092913 -18.75044187 93.12823529 -18.0847168 89.68566895 C-16.96813273 83.91548724 -15.84798193 78.14600696 -14.72558594 72.37695312 C-13.42765886 65.70548652 -12.13505017 59.03300639 -10.8453207 52.35995054 C-9.60243445 45.92973856 -8.35620541 39.50017912 -7.10830688 33.07093811 C-6.57779631 30.33752452 -6.04839484 27.60389956 -5.51986694 24.87010193 C-4.78363917 21.06311477 -4.04248811 17.25709555 -3.30078125 13.45117188 C-3.08152985 12.3145813 -2.86227844 11.17799072 -2.63638306 10.00695801 C-2.43451385 8.97530518 -2.23264465 7.94365234 -2.0246582 6.8807373 C-1.76251274 5.531357 -1.76251274 5.531357 -1.49507141 4.15471649 C-1 2 -1 2 0 0 Z " fill="#ffffff" transform="translate(226,160)"/>
</svg>
