<?xml version="1.0" encoding="UTF-8"?>
<svg version="1.1" xmlns="http://www.w3.org/2000/svg" width="512" height="512">
<path d="M0 0 C6.19656161 5.67874309 10.24290193 16.1076111 11.02734375 24.30859375 C11.23032543 29.25322747 10.79145102 31.95001073 7.8125 36.0625 C5.01513672 37.84692383 5.01513672 37.84692383 1.6171875 39.45703125 C0.69605667 39.89738457 0.69605667 39.89738457 -0.24368286 40.34663391 C-7.40949019 43.72654532 -14.73287669 46.74723604 -22.0625 49.75 C-24.74893099 50.85438601 -27.43393567 51.96213035 -30.1171875 53.07421875 C-30.74550476 53.3345993 -31.37382202 53.59497986 -32.0211792 53.86325073 C-36.51986513 55.7440832 -40.8726044 57.79469681 -45.1875 60.0625 C-38.88136336 72.25909547 -32.49985303 84.40607405 -25.89697266 96.44482422 C-21.82394788 103.87688261 -17.80889847 111.33899969 -13.8125 118.8125 C-12.53521148 121.20055038 -11.25786435 123.5885694 -9.98046875 125.9765625 C-9.66413483 126.56797531 -9.3478009 127.15938812 -9.0218811 127.76872253 C-4.0189043 137.11923672 1.01681349 146.45216381 6.04785156 155.78759766 C9.11658504 161.4826711 12.18315813 167.17890776 15.25 172.875 C16.35285504 174.92318222 17.4557193 176.97135948 18.55859375 179.01953125 C19.08308105 179.99615723 19.60756836 180.9727832 20.14794922 181.97900391 C21.34960545 184.20501127 22.55924647 186.42540485 23.77783203 188.64208984 C24.10235855 189.23575851 24.42688507 189.82942719 24.76124573 190.44108582 C25.67542734 192.11285117 26.59358778 193.78243894 27.51196289 195.4519043 C28.8125 198.0625 28.8125 198.0625 28.8125 200.0625 C29.51375 200.01609375 30.215 199.9696875 30.9375 199.921875 C37.52333053 199.6713271 42.45709091 200.01769735 47.8125 204.0625 C53.28448232 209.14517133 56.41770355 213.74537516 57.11328125 221.3515625 C57.11714844 222.45242188 57.12101562 223.55328125 57.125 224.6875 C57.14175781 225.79351562 57.15851563 226.89953125 57.17578125 228.0390625 C56.77363315 231.3859725 56.21779145 232.733567 53.8125 235.0625 C51.1424452 236.18526363 48.68471679 236.36483861 45.8125 236.0625 C42.875 234.25 42.875 234.25 40.8125 231.0625 C40.37056013 228.50172694 40.18846378 226.06254963 40.1484375 223.46484375 C39.71677774 220.37797454 39.05622533 219.24048487 36.8125 217.0625 C34.22357733 216.66026075 32.05377644 216.52216038 29.46239185 216.55469131 C28.70422728 216.54838756 27.94606271 216.54208381 27.16492346 216.53558904 C24.60360866 216.51922028 22.0432158 216.53153112 19.48188782 216.54351807 C17.63550667 216.53764738 15.78913041 216.53002275 13.94276303 216.520787 C8.85295258 216.50043836 3.76341943 216.50510362 -1.32641327 216.51369452 C-6.80906172 216.51862155 -12.29163892 216.50057671 -17.77426147 216.48527527 C-27.27861321 216.46191552 -36.78288855 216.45321683 -46.28726768 216.45438385 C-60.02910596 216.45605013 -73.77084212 216.43574852 -87.51265321 216.41002855 C-109.80603615 216.3689021 -132.09940791 216.34558888 -154.39282227 216.33349609 C-176.05299639 216.32170448 -197.71313622 216.30154005 -219.37329102 216.27001953 C-220.37446364 216.2685676 -220.37446364 216.2685676 -221.39586197 216.26708635 C-228.7636175 216.25639126 -236.13137269 216.24546663 -243.49912775 216.23444796 C-299.0619037 216.15156578 -354.62467568 216.09871445 -410.1875 216.0625 C-410.1875 238.8325 -410.1875 261.6025 -410.1875 285.0625 C-401.9375 285.0625 -393.6875 285.0625 -385.1875 285.0625 C-385.34457481 279.45316212 -385.34457481 279.45316212 -385.54785156 273.84545898 C-385.62640087 268.23615172 -384.80838472 264.40927293 -381.1875 260.0625 C-374.5582592 253.76366308 -366.56527758 254.3584032 -358.00488281 254.42758179 C-356.45274569 254.42181645 -354.90061539 254.41387256 -353.3484993 254.40394557 C-349.09484053 254.38310532 -344.84174385 254.39337437 -340.58808327 254.40887666 C-335.99630584 254.42019786 -331.4046245 254.40272364 -326.81286621 254.38897705 C-317.8221692 254.36674834 -308.83168094 254.37154421 -299.84097576 254.38604026 C-292.53381831 254.39733393 -285.22671934 254.39886284 -277.91955566 254.39342117 C-276.87941354 254.39265501 -275.83927142 254.39188884 -274.76760983 254.39109946 C-272.65455594 254.38950083 -270.54150206 254.38787976 -268.4284482 254.3862365 C-248.6160826 254.37198007 -228.8038327 254.38837009 -208.99148607 254.41523834 C-191.99296403 254.437577 -174.99461271 254.43369684 -157.99609375 254.41064453 C-138.25444605 254.38388468 -118.51289973 254.37335336 -98.77123642 254.38870585 C-96.66597241 254.39029859 -94.56070838 254.39187044 -92.45544434 254.39342117 C-91.41962447 254.39419255 -90.38380461 254.39496393 -89.31659627 254.39575868 C-82.01853453 254.40007512 -74.72053713 254.39279032 -67.42248535 254.38102341 C-58.52809625 254.36699784 -49.63392778 254.3707996 -40.73956394 254.39742713 C-36.20179668 254.41056451 -31.6643972 254.41571905 -27.12663269 254.39918137 C-22.97145959 254.38426708 -18.81699471 254.39249396 -14.66188574 254.41906913 C-13.15998073 254.42464788 -11.65801572 254.42182713 -10.15614939 254.40969019 C4.74616367 254.29851217 4.74616367 254.29851217 10.8125 260.0625 C15.09356999 265.20180727 15.33283522 269.99700262 15.0625 276.5 C14.98 279.325625 14.8975 282.15125 14.8125 285.0625 C23.3925 285.0625 31.9725 285.0625 40.8125 285.0625 C40.61524798 277.05931679 40.61524798 277.05931679 40.36206055 269.05786133 C40.24728517 259.84250942 40.24728517 259.84250942 43.14453125 256.80078125 C46.44731243 254.648896 47.9477999 254.25735415 51.8125 255.0625 C54.40387679 256.71946793 55.41118481 257.42065423 56.8125 260.0625 C57.47916089 265.65249549 57.09886538 271.30694517 56.82226562 276.91796875 C56.7298922 283.88486507 56.7298922 283.88486507 60.01757812 289.81787109 C62.67120737 292.23898074 62.67120737 292.23898074 65.44604492 294.27197266 C68.90706567 296.89067957 69.85648488 298.82871876 70.8125 303.0625 C71.51529125 311.2130531 72.21477518 319.41237534 66.8125 326.0625 C61.43890633 332.04259408 55.50625759 335.4370528 47.42619324 336.32463074 C44.93358493 336.40613391 42.45833104 336.40087092 39.96484375 336.35546875 C39.06754044 336.35122391 38.17023712 336.34697906 37.2457428 336.34260559 C34.41350757 336.32597363 31.58201576 336.28835197 28.75 336.25 C26.81576557 336.23493309 24.88151986 336.22124822 22.94726562 336.20898438 C18.23539589 336.17612112 13.52407345 336.12444841 8.8125 336.0625 C8.74780518 336.92037109 8.68311035 337.77824219 8.61645508 338.66210938 C7.71982189 350.46534243 6.77713013 362.2646377 5.8125 374.0625 C5.71821716 375.21800354 5.62393433 376.37350708 5.52679443 377.56402588 C4.91139103 385.08099925 4.28048572 392.59648548 3.63388062 400.11083984 C3.42039136 402.61132589 3.21074794 405.11214341 3.0050354 407.61328125 C2.71187204 411.16636087 2.40445747 414.7179483 2.09375 418.26953125 C2.0093718 419.32755447 1.92499359 420.3855777 1.83805847 421.47566223 C1.05558157 430.1339649 -0.32754582 438.09811049 -6.45703125 444.62109375 C-10.96986494 448.38009066 -16.38926382 449.63075664 -22.18359375 449.3359375 C-29.12928523 448.38818233 -33.11082449 445.69048667 -37.7421875 440.48828125 C-41.21039741 434.66731273 -41.59361072 427.57988654 -42.14892578 420.95605469 C-42.2272464 420.0834903 -42.30556702 419.2109259 -42.38626099 418.31192017 C-42.64127357 415.4532455 -42.88717782 412.59386944 -43.1328125 409.734375 C-43.30880707 407.73752425 -43.48531859 405.74071901 -43.662323 403.74395752 C-44.03087451 399.57182156 -44.39528765 395.39935336 -44.75634766 391.2265625 C-45.21924285 385.87725665 -45.68924114 380.52860669 -46.16191292 375.18015671 C-46.61294127 370.07343911 -47.0605419 364.96642287 -47.5078125 359.859375 C-47.59336521 358.88559654 -47.67891792 357.91181808 -47.76706314 356.90853119 C-48.00821773 354.15630334 -48.24694467 351.40387643 -48.48486328 348.65136719 C-48.5565271 347.83675018 -48.62819092 347.02213318 -48.70202637 346.18283081 C-48.99299975 342.78990019 -49.1875 339.47105407 -49.1875 336.0625 C-50.88904881 336.06803076 -50.88904881 336.06803076 -52.62497234 336.07367325 C-80.20758514 336.16241265 -107.79017946 336.22817505 -135.37290478 336.26974869 C-148.71163087 336.290387 -162.05025145 336.31853193 -175.38891602 336.36425781 C-187.01286945 336.4040866 -198.63675466 336.42992358 -210.26077443 336.43885398 C-216.41745243 336.4440754 -222.57393524 336.45637423 -228.73055077 336.48542023 C-234.52285424 336.51252661 -240.31488171 336.52095458 -246.10724258 336.51493073 C-248.23534583 336.51603309 -250.3634581 336.52401518 -252.49150658 336.5393219 C-255.39341651 336.55917476 -258.29427945 336.55445612 -261.19621277 336.54351807 C-262.04154813 336.55516943 -262.8868835 336.5668208 -263.75783509 336.57882524 C-267.77701901 336.53777606 -269.72593827 336.35340527 -273.21014881 334.15743637 C-275.1875 332.0625 -275.1875 332.0625 -275.81640625 330.0625 C-275.78353516 329.0725 -275.78353516 329.0725 -275.75 328.0625 C-275.75193359 327.0725 -275.75193359 327.0725 -275.75390625 326.0625 C-274.9334341 323.16538456 -273.4916366 321.96728961 -271.1875 320.0625 C-268.65102202 319.56274599 -268.65102202 319.56274599 -265.72733402 319.56307125 C-264.05320819 319.54867501 -264.05320819 319.54867501 -262.34526163 319.53398794 C-261.11911109 319.54379472 -259.89296055 319.55360149 -258.62965393 319.56370544 C-256.67583932 319.55562861 -256.67583932 319.55562861 -254.68255371 319.54738861 C-251.0639939 319.53291585 -247.44586364 319.54332091 -243.82731903 319.55767167 C-239.92607516 319.56877094 -236.02489617 319.5567981 -232.12365723 319.54748535 C-225.36236676 319.53438389 -218.60119988 319.53556655 -211.83990669 319.54607964 C-202.05874211 319.56100565 -192.27772282 319.55111482 -182.49656653 319.53456045 C-166.62067261 319.50808808 -150.74481126 319.49724094 -134.86889648 319.49829102 C-133.91846393 319.49834934 -132.96803138 319.49840766 -131.98879784 319.49846775 C-128.13769292 319.49873361 -124.28658801 319.49905089 -120.4354831 319.49943101 C-109.83581316 319.50039717 -99.23614421 319.49906965 -88.63647461 319.49633789 C-87.68750093 319.496098 -86.73852725 319.49585811 -85.76079679 319.49561094 C-69.94610644 319.49120662 -54.13144635 319.4749821 -38.31677383 319.4511171 C-28.55855318 319.43703267 -18.80044736 319.43417878 -9.04222273 319.44573999 C-2.35772423 319.45305465 4.32671637 319.45001461 11.0112093 319.43878155 C14.87004669 319.43269936 18.72872221 319.43164418 22.58754921 319.44365883 C26.76771265 319.45659598 30.94750502 319.44657015 35.12767029 319.43431091 C36.35159011 319.44188697 37.57550993 319.44946302 38.83651823 319.45726866 C39.95520986 319.45027891 41.0739015 319.44328916 42.22649288 319.43608761 C43.19147227 319.4363573 44.15645166 319.43662699 45.15067285 319.43690485 C48.33235817 318.98937827 50.22354256 317.93593153 52.8125 316.0625 C54.37950442 312.92849115 54.66414561 309.43094905 53.8125 306.0625 C50.45540986 302.6072381 47.94631349 301.60155244 43.13341725 301.53075767 C42.39714789 301.54012233 41.66087853 301.54948699 40.90229797 301.55913544 C39.71065279 301.55041479 39.71065279 301.55041479 38.49493396 301.54151797 C35.82224435 301.52687357 33.15046673 301.54082365 30.4777832 301.55456543 C28.54662003 301.54995827 26.61546036 301.5436066 24.68430805 301.53565645 C19.36922634 301.51891466 14.05443086 301.52723155 8.73934793 301.53960133 C3.01056863 301.54862966 -2.71816051 301.53469312 -8.44692993 301.52368164 C-19.672896 301.50586812 -30.89875527 301.50974903 -42.12472558 301.5213322 C-51.24595026 301.53035511 -60.36714494 301.53159548 -69.4883728 301.52723694 C-71.4334948 301.52631754 -71.4334948 301.52631754 -73.41791219 301.52537957 C-76.05199187 301.5241007 -78.68607154 301.52280385 -81.32015121 301.5214892 C-105.33175727 301.51040067 -129.34330555 301.52191208 -153.35490231 301.54285959 C-175.28122914 301.56184246 -197.20746305 301.56014397 -219.13378906 301.54101562 C-243.76020397 301.51960363 -268.3865627 301.51117382 -293.01298618 301.52346468 C-295.63753318 301.52473892 -298.26208018 301.5259964 -300.8866272 301.52723694 C-302.1780523 301.52785404 -303.46947741 301.52847114 -304.80003661 301.52910694 C-313.91336511 301.53256484 -323.02666072 301.52672203 -332.13998413 301.51731873 C-343.24170528 301.50611587 -354.34331326 301.5091027 -365.44502139 301.5304417 C-371.11243467 301.54097516 -376.77965907 301.54503484 -382.44707108 301.53184509 C-387.63091722 301.51996295 -392.81439865 301.52641463 -397.9982115 301.5477553 C-399.87767729 301.55223913 -401.75717363 301.54991545 -403.63661993 301.54025215 C-406.18395579 301.52815527 -408.73002894 301.54049413 -411.27729797 301.55913544 C-412.01356733 301.54977077 -412.7498367 301.54040611 -413.50841725 301.53075767 C-418.32391717 301.60159074 -420.82290113 302.61419807 -424.1875 306.0625 C-425.28593897 309.76250495 -424.67999268 313.14787074 -422.875 316.5 C-419.95638695 319.20241949 -417.12552825 319.18939178 -413.33595276 319.20053101 C-411.83651123 319.20871101 -411.83651123 319.20871101 -410.30677795 319.21705627 C-408.66327614 319.21861977 -408.66327614 319.21861977 -406.98657227 319.22021484 C-405.83188446 319.22529556 -404.67719666 319.23037628 -403.48751831 319.23561096 C-400.97643865 319.24632272 -398.46534939 319.25493973 -395.95425606 319.26173019 C-391.98329125 319.27349859 -388.0124051 319.29266212 -384.04148865 319.31484985 C-372.74994797 319.37675578 -361.45841276 319.43080566 -350.16674805 319.46386719 C-343.93000431 319.4822082 -337.6934034 319.51113507 -331.45676464 319.5518719 C-328.15680666 319.57294643 -324.85706837 319.5867146 -321.55703926 319.59067917 C-317.87708602 319.5955689 -314.19766749 319.61867709 -310.51782227 319.64599609 C-309.42417862 319.64298996 -308.33053497 319.63998383 -307.20375061 319.6368866 C-306.2013031 319.64797958 -305.19885559 319.65907257 -304.16603088 319.67050171 C-302.86108594 319.67546693 -302.86108594 319.67546693 -301.52977848 319.68053246 C-298.64089234 320.15163816 -297.27941376 321.03439899 -295.1875 323.0625 C-294.31468851 326.49140226 -293.85827171 328.95509577 -294.875 332.375 C-296.4894268 334.45069161 -297.75508851 335.07323409 -300.1875 336.0625 C-302.56933594 336.28955078 -302.56933594 336.28955078 -305.171875 336.2578125 C-306.10644531 336.25136719 -307.04101562 336.24492187 -308.00390625 336.23828125 C-308.97199219 336.22152344 -309.94007813 336.20476562 -310.9375 336.1875 C-311.92105469 336.17847656 -312.90460938 336.16945313 -313.91796875 336.16015625 C-316.34139407 336.13662785 -318.76432222 336.10375368 -321.1875 336.0625 C-321.25219482 336.92037109 -321.31688965 337.77824219 -321.38354492 338.66210938 C-322.28017811 350.46534243 -323.22286987 362.2646377 -324.1875 374.0625 C-324.28178284 375.21800354 -324.37606567 376.37350708 -324.47320557 377.56402588 C-325.08860897 385.08099925 -325.71951428 392.59648548 -326.36611938 400.11083984 C-326.57960864 402.61132589 -326.78925206 405.11214341 -326.9949646 407.61328125 C-327.28812796 411.16636087 -327.59554253 414.7179483 -327.90625 418.26953125 C-327.9906282 419.32755447 -328.07500641 420.3855777 -328.16194153 421.47566223 C-328.94441843 430.1339649 -330.32754582 438.09811049 -336.45703125 444.62109375 C-340.96986494 448.38009066 -346.38926382 449.63075664 -352.18359375 449.3359375 C-359.12928523 448.38818233 -363.11082449 445.69048667 -367.7421875 440.48828125 C-371.21039741 434.66731273 -371.59361072 427.57988654 -372.14892578 420.95605469 C-372.2272464 420.0834903 -372.30556702 419.2109259 -372.38626099 418.31192017 C-372.64127357 415.4532455 -372.88717782 412.59386944 -373.1328125 409.734375 C-373.30880707 407.73752425 -373.48531859 405.74071901 -373.662323 403.74395752 C-374.03087451 399.57182156 -374.39528765 395.39935336 -374.75634766 391.2265625 C-375.21924285 385.87725665 -375.68924114 380.52860669 -376.16191292 375.18015671 C-376.61294127 370.07343911 -377.0605419 364.96642287 -377.5078125 359.859375 C-377.59336521 358.88559654 -377.67891792 357.91181808 -377.76706314 356.90853119 C-378.00821773 354.15630334 -378.24694467 351.40387643 -378.48486328 348.65136719 C-378.5565271 347.83675018 -378.62819092 347.02213318 -378.70202637 346.18283081 C-378.99299975 342.78990019 -379.1875 339.47105407 -379.1875 336.0625 C-380.38238037 336.07821045 -381.57726074 336.0939209 -382.80834961 336.11010742 C-387.27556519 336.16473775 -391.74275169 336.1989697 -396.21020508 336.22729492 C-398.13733906 336.24230652 -400.06443932 336.26272216 -401.99145508 336.28881836 C-404.77433639 336.32553943 -407.55676288 336.34230292 -410.33984375 336.35546875 C-411.19021713 336.37095261 -412.04059052 336.38643646 -412.91673279 336.40238953 C-421.81965403 336.40484918 -428.9901171 334.22285118 -435.45703125 327.98828125 C-441.34003166 321.44128531 -441.83960889 315.35393005 -441.5625 306.625 C-440.70978671 298.52422378 -437.13821184 294.50091981 -430.9921875 289.41015625 C-429.1875 288.0625 -429.1875 288.0625 -427.1875 287.0625 C-427.18203156 285.14476021 -427.18203156 285.14476021 -427.17645264 283.1882782 C-427.13942948 271.10959852 -427.08157662 259.03117205 -427.00359726 246.95268536 C-426.96417428 240.74375577 -426.93196023 234.53496691 -426.91650391 228.32592773 C-426.90130348 222.32812468 -426.86679716 216.33070867 -426.81919098 210.33307838 C-426.80441219 208.05072211 -426.79646101 205.76831057 -426.79561615 203.4859066 C-426.79323425 200.27624146 -426.76605524 197.06763538 -426.73339844 193.8581543 C-426.7384288 192.92522552 -426.74345917 191.99229675 -426.74864197 191.03109741 C-426.60350472 181.74467748 -423.87019363 171.8390729 -417.1875 165.0625 C-410.59409238 159.8329674 -403.14263166 156.61170087 -395.4375 153.375 C-394.13250259 152.81892334 -392.82782668 152.26209172 -391.5234375 151.70458984 C-387.87433812 150.1483658 -384.22001376 148.60478849 -380.56420898 147.06439209 C-378.12864666 146.03769061 -375.6940725 145.00867828 -373.25976562 143.97900391 C-366.00059408 140.90869714 -358.74027138 137.84114408 -351.47680664 134.78100586 C-336.26064894 128.36954333 -321.06432849 121.91224487 -305.875 115.4375 C-303.56193086 114.45165894 -301.2488612 113.46581909 -298.93579102 112.47998047 C-295.54032584 111.03274292 -292.14488439 109.58544978 -288.74949646 108.13803101 C-278.70990968 103.8583561 -268.6687467 99.58240351 -258.625 95.3125 C-257.4291478 94.80408569 -257.4291478 94.80408569 -256.20913696 94.28540039 C-243.33629291 88.81384336 -230.4506661 83.37284802 -217.5625 77.9375 C-200.79798087 70.8673011 -184.0503416 63.75812014 -167.3125 56.625 C-166.1757785 56.14057434 -165.03905701 55.65614868 -163.8678894 55.15704346 C-158.17527041 52.73089637 -152.48284816 50.30428802 -146.79052734 47.87744141 C-114.7244342 34.20676115 -82.64525673 20.56802009 -50.51721191 7.04345703 C-48.33510301 6.12465026 -46.15333632 5.20503629 -43.97167969 4.28515625 C-40.5244177 2.83204011 -37.07505488 1.38397427 -33.625 -0.0625 C-32.68599854 -0.45840332 -31.74699707 -0.85430664 -30.77954102 -1.26220703 C-29.94350342 -1.61138184 -29.10746582 -1.96055664 -28.24609375 -2.3203125 C-27.54798584 -2.61309082 -26.84987793 -2.90586914 -26.13061523 -3.20751953 C-16.87357678 -6.68516057 -8.28080351 -5.03342959 0 0 Z M-26.96484375 14.41796875 C-27.82689423 14.78651474 -28.6889447 15.15506073 -29.57711792 15.53477478 C-32.43259868 16.75933361 -35.27851095 18.00469979 -38.125 19.25 C-40.13892102 20.11787439 -42.15350056 20.98422207 -44.16870117 21.84912109 C-48.38800807 23.66206802 -52.60387799 25.48269241 -56.81738281 27.30908203 C-62.93792275 29.95915626 -69.07160596 32.5773915 -75.2109375 35.18359375 C-76.18699448 35.59794678 -77.16305145 36.0122998 -78.16868591 36.43920898 C-80.13140381 37.27222245 -82.09416713 38.10512891 -84.05697632 38.93792725 C-88.98116183 41.02867768 -93.90263301 43.12579508 -98.82421875 45.22265625 C-109.31908384 49.69299424 -119.81469916 54.16155983 -130.3125 58.625 C-131.12214203 58.96926025 -131.93178406 59.31352051 -132.76596069 59.66821289 C-145.77198243 65.19720558 -158.79059606 70.696037 -171.8125 76.1875 C-188.7233486 83.31903968 -205.61635365 90.4918038 -222.5 97.6875 C-223.64800079 98.17675964 -224.79600159 98.66601929 -225.97879028 99.17010498 C-230.52771112 101.10888149 -235.07656966 103.04780408 -239.62535095 104.98690796 C-249.66499253 109.26659399 -259.7062029 113.54257506 -269.75 117.8125 C-270.9458522 118.32091431 -270.9458522 118.32091431 -272.16586304 118.83959961 C-285.95982316 124.70267378 -299.76865705 130.53024791 -313.5791626 136.35421753 C-330.10921993 143.32649187 -346.62030129 150.34293904 -363.125 157.375 C-364.85849701 158.11354218 -364.85849701 158.11354218 -366.62701416 158.86700439 C-367.75444031 159.34740173 -368.88186646 159.82779907 -370.04345703 160.32275391 C-371.14004135 160.78994339 -372.23662567 161.25713287 -373.36643982 161.73847961 C-375.48411725 162.64168208 -377.60121186 163.54625248 -379.71766663 164.45231628 C-384.03570957 166.30028418 -388.35451539 168.14080292 -392.7043457 169.9128418 C-393.35726089 170.18198898 -394.01017609 170.45113617 -394.68287659 170.72843933 C-396.31386152 171.39867892 -397.94917518 172.05836091 -399.58496094 172.71679688 C-404.76048511 175.39292157 -408.35538465 179.56615395 -410.1875 185.0625 C-410.25552967 186.79045352 -410.27245645 188.52085365 -410.25 190.25 C-410.24097656 191.15105469 -410.23195313 192.05210937 -410.22265625 192.98046875 C-410.21105469 193.66753906 -410.19945312 194.35460937 -410.1875 195.0625 C-405.19939237 194.3652309 -400.85278441 192.37441759 -396.26171875 190.40625 C-395.37934036 190.03242188 -394.49696198 189.65859375 -393.58784485 189.2734375 C-390.68164812 188.04091473 -387.77834696 186.80171902 -384.875 185.5625 C-382.83416642 184.69553489 -380.79314829 183.82900409 -378.75195312 182.96289062 C-373.54705527 180.75312684 -368.34444732 178.53802831 -363.14251709 176.32128906 C-358.7276772 174.44063931 -354.31117187 172.563916 -349.89453125 170.6875 C-345.02358202 168.61783197 -340.15274443 166.54790548 -335.28271484 164.47607422 C-322.86347138 159.19345155 -310.43404368 153.93518432 -298 148.6875 C-296.59701157 148.09536713 -296.59701157 148.09536713 -295.16567993 147.49127197 C-287.55185147 144.27808164 -279.93749558 141.06614186 -272.32312012 137.85424805 C-265.67350169 135.04924593 -259.02408945 132.24375581 -252.375 129.4375 C-251.43927155 129.04258362 -250.50354309 128.64766724 -249.53945923 128.24078369 C-236.41399023 122.70044594 -223.29717444 117.14010021 -210.1875 111.5625 C-196.13379572 105.58325587 -182.07095817 99.62603042 -168 93.6875 C-167.06467438 93.29274475 -166.12934875 92.8979895 -165.16567993 92.49127197 C-157.55185147 89.27808164 -149.93749558 86.06614186 -142.32312012 82.85424805 C-135.67350169 80.04924593 -129.02408945 77.24375581 -122.375 74.4375 C-121.43927155 74.04258362 -120.50354309 73.64766724 -119.53945923 73.24078369 C-105.6066818 67.3596763 -91.68396627 61.45526446 -77.76861572 55.53305054 C-67.85320284 51.31337157 -57.9325235 47.10649646 -48.00390625 42.91796875 C-46.9802597 42.4861026 -45.95661316 42.05423645 -44.90194702 41.60928345 C-39.9163575 39.50630936 -34.93020524 37.40468056 -29.94335938 35.3046875 C-28.1302028 34.54037771 -26.31705149 33.77605542 -24.50390625 33.01171875 C-23.69313126 32.67077682 -22.88235626 32.3298349 -22.04701233 31.9785614 C-16.73150087 29.73677436 -11.45113426 27.4234743 -6.1875 25.0625 C-7.17549025 18.97999392 -7.17549025 18.97999392 -9.9375 13.5625 C-16.04660546 9.48976303 -20.87606725 11.71279915 -26.96484375 14.41796875 Z M-66.91064453 67.53686523 C-67.68393097 67.86307358 -68.45721741 68.18928192 -69.25393677 68.52537537 C-70.10084076 68.88696243 -70.94774475 69.2485495 -71.8203125 69.62109375 C-72.70693573 69.99633682 -73.59355896 70.3715799 -74.50704956 70.75819397 C-77.44365511 72.00206042 -80.37806489 73.25102279 -83.3125 74.5 C-85.36705682 75.37140193 -87.42174591 76.24249205 -89.4765625 77.11328125 C-94.72284783 79.33763378 -99.96731645 81.56623164 -105.21105957 83.79656982 C-107.97739791 84.97314005 -110.74399802 86.1490915 -113.51074219 87.32470703 C-120.03814113 90.09827918 -126.56535006 92.87229567 -133.09155273 95.64868164 C-145.51108552 100.93127932 -157.94071993 106.18971591 -170.375 111.4375 C-171.31032562 111.83225525 -172.24565125 112.2270105 -173.20932007 112.63372803 C-180.82314853 115.84691836 -188.43750442 119.05885814 -196.05187988 122.27075195 C-202.70149831 125.07575407 -209.35091055 127.88124419 -216 130.6875 C-216.93572845 131.08241638 -217.87145691 131.47733276 -218.83554077 131.88421631 C-232.77871677 137.769713 -246.71147046 143.67934473 -260.63760376 149.6050415 C-273.97773358 155.28092285 -287.32990899 160.92784406 -300.6875 166.5625 C-315.50800703 172.81455461 -330.32171225 179.08227424 -345.125 185.375 C-345.94581055 185.72385254 -346.76662109 186.07270508 -347.61230469 186.43212891 C-357.4778395 190.62568046 -367.33719155 194.83329686 -377.1875 199.0625 C-377.1875 199.3925 -377.1875 199.7225 -377.1875 200.0625 C-342.8675 200.0625 -308.5475 200.0625 -273.1875 200.0625 C-270.8775 193.4625 -268.5675 186.8625 -266.1875 180.0625 C-262.88430481 174.55717469 -261.16195731 172.84374275 -255.1875 171.0625 C-250.63812305 170.50411071 -246.13378082 170.51567644 -241.5546875 170.54492188 C-240.18718727 170.53949346 -238.8196929 170.53236678 -237.45220947 170.52368164 C-233.7579016 170.50553039 -230.06404327 170.51248145 -226.36972809 170.52519798 C-222.49240461 170.53536847 -218.61511805 170.52592111 -214.73779297 170.51965332 C-208.22812026 170.51238864 -201.71862943 170.5219335 -195.20898438 170.54101562 C-187.69710398 170.56278223 -180.18565795 170.55573002 -172.67378807 170.53371 C-166.20897406 170.51552223 -159.74429034 170.51301412 -153.279459 170.52346468 C-149.42498283 170.52968113 -145.57071041 170.53058652 -141.71624756 170.51731873 C-138.09136507 170.50571138 -134.46703923 170.51387383 -130.84221649 170.53689575 C-128.88767753 170.54465446 -126.93309116 170.5328687 -124.97857666 170.52038574 C-117.91692045 170.58803423 -113.17144302 171.20856055 -107.1875 175.0625 C-101.8000393 181.56460774 -99.6134432 192.78467039 -97.1875 200.0625 C-61.5475 200.0625 -25.9075 200.0625 10.8125 200.0625 C4.80024142 187.96459975 4.80024142 187.96459975 -1.4140625 175.9765625 C-1.76417389 175.31526337 -2.11428528 174.65396423 -2.4750061 173.97262573 C-3.58553361 171.87653153 -4.6988581 169.78194094 -5.8125 167.6875 C-6.603902 166.19599583 -7.39524208 164.7044588 -8.18652344 163.21289062 C-14.57636385 151.17687183 -21.02380979 139.17231643 -27.50195312 127.18359375 C-29.8155555 122.89954208 -32.12354989 118.61248113 -34.43115234 114.32519531 C-35.59239475 112.16800272 -36.7541696 110.01109665 -37.91650391 107.85449219 C-40.64115001 102.79849539 -43.36182586 97.74047741 -46.06866455 92.67492676 C-47.02920061 90.87782595 -47.99097427 89.08139302 -48.953125 87.28515625 C-50.16132504 85.028665 -51.36718755 82.77092004 -52.5703125 80.51171875 C-56.49934875 73.04963679 -56.49934875 73.04963679 -61.1875 66.0625 C-63.49882663 66.0625 -64.78538619 66.63468023 -66.91064453 67.53686523 Z M-252.1875 186.0625 C-256.35837153 195.58161339 -256.35837153 195.58161339 -256.1875 200.0625 C-209.3275 200.0625 -162.4675 200.0625 -114.1875 200.0625 C-115.81152557 191.61303399 -115.81152557 191.61303399 -118.1875 186.0625 C-162.4075 186.0625 -206.6275 186.0625 -252.1875 186.0625 Z M-369.1875 271.0625 C-371.27981398 275.24712795 -370.1875 280.38394372 -370.1875 285.0625 C-356.9875 285.0625 -343.7875 285.0625 -330.1875 285.0625 C-330.1875 280.4425 -330.1875 275.8225 -330.1875 271.0625 C-343.0575 271.0625 -355.9275 271.0625 -369.1875 271.0625 Z M-315.1875 271.0625 C-315.1875 275.6825 -315.1875 280.3025 -315.1875 285.0625 C-301.9875 285.0625 -288.7875 285.0625 -275.1875 285.0625 C-275.1875 280.4425 -275.1875 275.8225 -275.1875 271.0625 C-288.3875 271.0625 -301.5875 271.0625 -315.1875 271.0625 Z M-260.1875 271.0625 C-260.1875 275.6825 -260.1875 280.3025 -260.1875 285.0625 C-246.9875 285.0625 -233.7875 285.0625 -220.1875 285.0625 C-220.1875 280.4425 -220.1875 275.8225 -220.1875 271.0625 C-233.3875 271.0625 -246.5875 271.0625 -260.1875 271.0625 Z M-205.1875 271.0625 C-205.1875 275.6825 -205.1875 280.3025 -205.1875 285.0625 C-191.9875 285.0625 -178.7875 285.0625 -165.1875 285.0625 C-165.1875 280.4425 -165.1875 275.8225 -165.1875 271.0625 C-178.3875 271.0625 -191.5875 271.0625 -205.1875 271.0625 Z M-150.1875 271.0625 C-150.1875 275.6825 -150.1875 280.3025 -150.1875 285.0625 C-136.9875 285.0625 -123.7875 285.0625 -110.1875 285.0625 C-110.1875 280.4425 -110.1875 275.8225 -110.1875 271.0625 C-123.3875 271.0625 -136.5875 271.0625 -150.1875 271.0625 Z M-95.1875 271.0625 C-95.1875 275.6825 -95.1875 280.3025 -95.1875 285.0625 C-81.9875 285.0625 -68.7875 285.0625 -55.1875 285.0625 C-55.1875 280.4425 -55.1875 275.8225 -55.1875 271.0625 C-68.3875 271.0625 -81.5875 271.0625 -95.1875 271.0625 Z M-40.1875 271.0625 C-40.1875 275.6825 -40.1875 280.3025 -40.1875 285.0625 C-26.9875 285.0625 -13.7875 285.0625 -0.1875 285.0625 C0.35865699 277.81553584 0.35865699 277.81553584 -1.1875 271.0625 C-14.0575 271.0625 -26.9275 271.0625 -40.1875 271.0625 Z M-363.1875 336.0625 C-362.86136719 339.92710937 -362.53523438 343.79171875 -362.19921875 347.7734375 C-362.08791122 349.0931102 -361.9766037 350.4127829 -361.86192322 351.77244568 C-361.30453313 358.37476095 -360.74403041 364.9767907 -360.17797852 371.57836914 C-359.94658808 374.28009451 -359.71541742 376.9818386 -359.484375 379.68359375 C-359.4271269 380.35254984 -359.36987881 381.02150593 -359.31089592 381.71073341 C-358.60765276 389.94106066 -357.94046976 398.17260398 -357.328125 406.41015625 C-357.14873313 408.73321055 -356.96767167 411.0561253 -356.78555298 413.37896729 C-356.67919477 414.78404398 -356.57931608 416.18962736 -356.48617554 417.59564209 C-356.35970856 419.50109327 -356.20987405 421.40495188 -356.05859375 423.30859375 C-355.98568115 424.33654053 -355.91276855 425.3644873 -355.83764648 426.42358398 C-355.04214898 429.65247342 -353.69552189 430.94788097 -351.1875 433.0625 C-347.46135847 431.94395414 -347.46135847 431.94395414 -345.1875 429.0625 C-344.85933799 426.24729866 -344.58189211 423.44424597 -344.33959961 420.62133789 C-344.26142502 419.74804337 -344.18325043 418.87474884 -344.10270691 417.97499084 C-343.84447137 415.0787145 -343.59209186 412.18195973 -343.33984375 409.28515625 C-343.16222871 407.27735122 -342.98429183 405.26957465 -342.80604553 403.26182556 C-342.43291494 399.04952048 -342.06245686 394.83699204 -341.6940918 390.62426758 C-341.22139545 385.21881352 -340.74402471 379.81378596 -340.26489925 374.40889835 C-339.80902346 369.26363317 -339.35564843 364.11814847 -338.90234375 358.97265625 C-338.77174214 357.49435679 -338.77174214 357.49435679 -338.63850212 355.9861927 C-338.39294658 353.20193379 -338.14918747 350.41752377 -337.90600586 347.63305664 C-337.832771 346.80541809 -337.75953613 345.97777954 -337.68408203 345.12506104 C-337.4208297 342.09356383 -337.1875 339.10706744 -337.1875 336.0625 C-345.7675 336.0625 -354.3475 336.0625 -363.1875 336.0625 Z M-33.1875 336.0625 C-32.86136719 339.92710937 -32.53523438 343.79171875 -32.19921875 347.7734375 C-32.08791122 349.0931102 -31.9766037 350.4127829 -31.86192322 351.77244568 C-31.30453313 358.37476095 -30.74403041 364.9767907 -30.17797852 371.57836914 C-29.94658808 374.28009451 -29.71541742 376.9818386 -29.484375 379.68359375 C-29.4271269 380.35254984 -29.36987881 381.02150593 -29.31089592 381.71073341 C-28.60765276 389.94106066 -27.94046976 398.17260398 -27.328125 406.41015625 C-27.14873313 408.73321055 -26.96767167 411.0561253 -26.78555298 413.37896729 C-26.67919477 414.78404398 -26.57931608 416.18962736 -26.48617554 417.59564209 C-26.35970856 419.50109327 -26.20987405 421.40495188 -26.05859375 423.30859375 C-25.98568115 424.33654053 -25.91276855 425.3644873 -25.83764648 426.42358398 C-25.04214898 429.65247342 -23.69552189 430.94788097 -21.1875 433.0625 C-17.46135847 431.94395414 -17.46135847 431.94395414 -15.1875 429.0625 C-14.85933799 426.24729866 -14.58189211 423.44424597 -14.33959961 420.62133789 C-14.26142502 419.74804337 -14.18325043 418.87474884 -14.10270691 417.97499084 C-13.84447137 415.0787145 -13.59209186 412.18195973 -13.33984375 409.28515625 C-13.16222871 407.27735122 -12.98429183 405.26957465 -12.80604553 403.26182556 C-12.43291494 399.04952048 -12.06245686 394.83699204 -11.6940918 390.62426758 C-11.22139545 385.21881352 -10.74402471 379.81378596 -10.26489925 374.40889835 C-9.80902346 369.26363317 -9.35564843 364.11814847 -8.90234375 358.97265625 C-8.77174214 357.49435679 -8.77174214 357.49435679 -8.63850212 355.9861927 C-8.39294658 353.20193379 -8.14918747 350.41752377 -7.90600586 347.63305664 C-7.832771 346.80541809 -7.75953613 345.97777954 -7.68408203 345.12506104 C-7.4208297 342.09356383 -7.1875 339.10706744 -7.1875 336.0625 C-15.7675 336.0625 -24.3475 336.0625 -33.1875 336.0625 Z " fill="#ffffff" transform="translate(441.1875,33.9375)"/>
</svg>
