<?xml version="1.0" encoding="UTF-8"?>
<svg version="1.1" xmlns="http://www.w3.org/2000/svg" width="512" height="512">
<path d="M0 0 C3.23652963 1.77633967 5.3945071 3.59415344 7.99236107 6.20109081 C8.90933769 7.11394344 9.82631432 8.02679607 10.77107811 8.96731091 C11.76950968 9.97635764 12.76779588 10.98554824 13.76595116 11.99486828 C14.83021729 13.0599813 15.89514578 14.12443283 16.96068382 15.18827343 C19.84302496 18.06975559 22.71603743 20.96037823 25.58744192 23.8527534 C28.59294686 26.87704126 31.60697773 29.89280773 34.62010765 32.90949535 C40.32083302 38.61953642 46.01386929 44.33718012 51.70417082 50.057607 C58.18434314 56.57133805 64.67305941 63.07652932 71.1625011 69.58102357 C84.50809666 82.9579574 97.84294548 96.34555755 111.17073631 109.74022961 C108.37883212 115.7085195 103.52898542 120.14017051 98.99788475 124.83300304 C97.86620685 126.0179211 96.74909218 127.21692676 95.64729881 128.42968273 C86.48381889 138.50293399 86.48381889 138.50293399 80.83186913 139.0827589 C77.76310575 138.57824372 75.08472162 137.80967479 72.17073631 136.74022961 C69.34255166 136.05079048 67.11762067 135.79285254 64.17073631 135.74022961 C62.85073631 137.39022961 61.53073631 139.04022961 60.17073631 140.74022961 C77.33073631 157.90022961 94.49073631 175.06022961 112.17073631 192.74022961 C116.10938642 190.77090455 118.1445049 189.00901775 121.21468163 185.92333508 C121.70294426 185.43536449 122.19120689 184.94739391 122.69426537 184.44463634 C124.30058593 182.83692686 125.89971344 181.2222586 127.49886131 179.60741711 C128.61371948 178.48882726 129.72902118 177.37067931 130.84474754 176.25295544 C133.7754424 173.31463636 136.70008053 170.37036006 139.6234951 167.42479992 C142.60956357 164.41824698 145.6013249 161.41737079 148.59261131 158.41601086 C154.45757087 152.52962275 160.31614363 146.63692861 166.17073631 140.74022961 C164.40708218 138.16554963 164.40708218 138.16554963 162.17073631 135.74022961 C158.26719799 135.80993565 155.24309267 136.32221488 151.60725975 137.73949718 C148.13476727 138.8391198 145.80814943 139.19100009 142.17073631 138.74022961 C136.52836941 135.49244794 132.2501388 130.12815661 127.92073631 125.36522961 C126.67796865 124.05217772 125.4319004 122.74224142 124.18245506 121.43554211 C121.1391763 118.23855457 118.14409305 115.00229256 115.17073631 111.74022961 C116.67890551 108.21579493 118.72261414 105.92810557 121.412817 103.21726513 C122.74790306 101.86504864 122.74790306 101.86504864 124.10996056 100.48551464 C125.09893427 99.4940504 126.08802829 98.50270615 127.07723045 97.51146984 C128.11748304 96.4619565 129.15733936 95.41205027 130.19682884 94.36178112 C133.02063399 91.51176433 135.85106162 88.66841732 138.68355298 85.82703567 C140.45444557 84.05027514 142.22416027 82.27234956 143.99351883 80.49406147 C149.53385184 74.92638684 155.07817253 69.36272933 160.62832934 63.80484718 C167.02742118 57.39679854 173.4132385 50.97590278 179.78776079 44.54341453 C184.72079909 39.56708796 189.66536051 34.60240451 194.61875433 29.64633995 C197.57459107 26.68841084 200.52540555 23.72586145 203.46433258 20.75112247 C206.23122024 17.95117863 209.0121993 15.16602831 211.80439949 12.39133358 C212.82340805 11.37386081 213.83736036 10.3512933 214.84563446 9.32318211 C221.72832771 2.3131559 227.10045968 -2.0670632 237.10823631 -2.38477039 C241.74508997 -1.57516102 244.99089749 1.28650852 248.69417381 4.03319836 C253.97425745 7.67262509 259.80668308 8.66260177 265.99886131 10.00951672 C287.92376788 14.86227538 306.26960136 24.88779645 322.17073631 40.74022961 C323.42563866 41.98546398 323.42563866 41.98546398 324.70589256 43.25585461 C342.69713803 61.38966145 353.33223032 81.20267473 358.93245506 106.13085461 C360.57313725 113.17971139 362.65979841 117.81080206 367.42073631 123.36522961 C370.01202356 128.36271215 370.38242427 133.2485471 369.17073631 138.74022961 C365.08013583 146.41746417 358.97611866 152.34593888 352.85091209 158.40063 C351.8149123 159.43578181 350.77957614 160.47159816 349.74484825 161.50802135 C346.95651214 164.29721216 344.15907708 167.07710732 341.35981798 169.85532975 C338.42760133 172.76869119 335.50397513 175.69064843 332.5793972 178.61167431 C327.05008721 184.13168968 321.51318019 189.64401813 315.97344959 195.15357345 C309.66275624 201.43064205 303.36066028 207.7163125 297.05924439 214.00269234 C284.10589954 226.92474675 271.14188671 239.83604971 258.17073631 252.74022961 C252.17279069 249.94899878 247.80117928 244.93586387 243.13289452 240.34765148 C241.9505328 239.19342962 240.75840202 238.04913041 239.55672264 236.91503429 C237.81574322 235.27158405 236.10649157 233.60028314 234.40120506 231.91991711 C233.86174751 231.42063702 233.32228996 230.92135693 232.76648521 230.40694714 C230.73206522 228.34843364 229.22294971 226.65852245 229.05441856 223.69451427 C229.31038475 221.56688976 229.31038475 221.56688976 230.17073631 217.74022961 C230.34733788 216.61616711 230.52393944 215.49210461 230.70589256 214.33397961 C230.96692772 212.80257336 230.96692772 212.80257336 231.23323631 211.24022961 C231.40983788 210.19866711 231.58643944 209.15710461 231.76839256 208.08397961 C231.901166 207.31054211 232.03393944 206.53710461 232.17073631 205.74022961 C230.52073631 204.42022961 228.87073631 203.10022961 227.17073631 201.74022961 C210.01073631 218.90022961 192.85073631 236.06022961 175.17073631 253.74022961 C178.01894241 259.43664179 182.50456845 263.40779232 186.97127342 267.85644054 C188.58031215 269.46235959 190.17566757 271.08100383 191.77034569 272.70116711 C206.14856988 287.16929091 219.11968278 294.14686431 239.3052578 297.22826672 C259.40349538 300.39308405 276.17623068 310.16284196 288.56599998 326.40551281 C299.80181721 341.98540411 304.2370804 361.49093058 301.66683006 380.45897961 C298.01406114 400.99797743 287.76339404 418.34868223 270.85823631 430.61522961 C253.77445591 441.80805125 234.59856643 445.92365846 214.47151756 442.45897961 C198.26369885 438.9297031 185.6858899 431.41193362 174.17073631 419.74022961 C173.56487694 419.13308117 172.95901756 418.52593273 172.33479881 417.90038586 C160.55849769 405.15830343 156.62391632 389.03701057 154.25911522 372.41063976 C153.37419285 366.42106059 152.01550186 361.13193326 149.17073631 355.74022961 C148.8239785 355.07378429 148.47722069 354.40733898 148.11995506 353.72069836 C142.15098865 343.32115894 132.54382784 334.9745075 124.10823631 326.61522961 C123.13729535 325.64932279 122.16659108 324.68317799 121.19612694 323.71679211 C118.85663129 321.38893574 116.5148158 319.06346855 114.17073631 316.74022961 C110.10298332 318.36429063 107.34192301 321.26302937 104.30354881 324.30663586 C103.74634148 324.85955807 103.18913414 325.41248028 102.61504173 325.98215771 C101.43753839 327.15392622 100.26263609 328.32831353 99.09016991 329.50512218 C97.31744858 331.28097894 95.53190644 333.04316048 93.74495506 334.80468273 C81.70897544 346.77345826 74.88211956 357.58061567 71.93636131 374.41991711 C69.00538472 391.14774463 64.81387555 405.75739861 53.17073631 418.74022961 C52.49268944 419.49948742 51.81464256 420.25874523 51.11604881 421.04101086 C37.5001702 435.45639835 18.93929597 443.0648378 -0.71207619 443.73632336 C-20.57751308 443.99340548 -39.02314547 436.71512914 -53.52530861 423.21044445 C-67.7500871 409.26569055 -75.55943049 390.48064029 -76.01676369 370.61522961 C-75.72752299 349.41388658 -67.67390792 330.80294836 -52.82926369 315.74022961 C-39.17971743 303.54713288 -23.10790605 298.37476986 -5.36295509 295.75731945 C11.85165931 293.12898543 22.25134652 284.74471738 34.17073631 272.74022961 C35.74539045 271.17685618 37.32094387 269.61438809 38.89729881 268.05272961 C43.00884205 263.96862762 47.09741293 259.86242986 51.17073631 255.74022961 C49.60129948 251.95721734 47.23972354 249.56766413 44.35384178 246.69628429 C43.8658712 246.20802166 43.37790062 245.71975903 42.87514305 245.21670055 C41.26743356 243.61037999 39.65276531 242.01125248 38.03792381 240.41210461 C36.91933397 239.29724644 35.80118602 238.18194474 34.68346214 237.06621838 C31.74514307 234.13552352 28.80086677 231.21088539 25.85530663 228.28747082 C22.84875369 225.30140235 19.8478775 222.30964102 16.84651756 219.31835461 C10.96012946 213.45339505 5.06743531 207.59482229 -0.82926369 201.74022961 C-3.30426369 203.72022961 -3.30426369 203.72022961 -5.82926369 205.74022961 C-5.69649025 206.51366711 -5.56371681 207.28710461 -5.42691994 208.08397961 C-5.16201759 209.64632336 -5.16201759 209.64632336 -4.89176369 211.24022961 C-4.71774025 212.26116711 -4.54371681 213.28210461 -4.36441994 214.33397961 C-4.18781837 215.45804211 -4.01121681 216.58210461 -3.82926369 217.74022961 C-3.53342384 218.99255383 -3.237584 220.24487804 -2.93277931 221.53515148 C-2.63538776 224.01114788 -2.58103555 225.28813878 -3.79006386 227.49010754 C-5.3124298 229.264704 -6.9188867 230.84278899 -8.63785744 232.42772961 C-9.2385656 233.01570324 -9.83927376 233.60367687 -10.4581852 234.20946789 C-12.37424229 236.07530082 -14.31919689 237.90736701 -16.26676369 239.74022961 C-17.57413971 241.00244555 -18.87950439 242.26674835 -20.18277931 243.53319836 C-23.37547438 246.62687326 -26.59445663 249.69063955 -29.82926369 252.74022961 C-33.34461859 251.2357502 -35.61703269 249.20600408 -38.3142643 246.51592541 C-39.2073278 245.62994671 -40.10039131 244.74396801 -41.02051735 243.83114147 C-42.0025249 242.84684018 -42.98442436 241.86243103 -43.96622658 240.87792492 C-45.00586447 239.84263521 -46.04591922 238.80776396 -47.08635902 237.77328014 C-49.90921393 234.96381618 -52.72562858 232.14797906 -55.54052854 229.33054733 C-57.89208593 226.97792013 -60.24661336 224.62827653 -62.60109991 222.27858138 C-68.15680958 216.7339676 -73.70717262 211.18404103 -79.25431252 205.63085461 C-84.97369742 199.90543126 -90.70219317 194.18924174 -96.43523794 188.47749925 C-101.35964345 183.57071863 -106.27821244 178.65814063 -111.1921863 173.74091315 C-114.12597177 170.80531583 -117.06193195 167.87198092 -120.00356674 164.94424725 C-122.77062631 162.18977547 -125.53031492 159.42812415 -128.28456116 156.66084194 C-129.29498443 155.6480553 -130.30795799 154.63780543 -131.3236866 153.63033962 C-132.71316059 152.25135423 -134.09244958 150.86212918 -135.47124672 149.47246838 C-136.63182642 148.31214029 -136.63182642 148.31214029 -137.81585217 147.12837124 C-142.39987293 141.69118628 -143.5339995 136.78002603 -143.38785744 129.83397961 C-142.58936117 125.41153876 -140.51754504 122.67354341 -137.65348244 119.28710461 C-133.57528984 113.59335391 -132.36677737 107.00285226 -131.07926369 100.24022961 C-124.5745522 68.92798392 -102.71604308 42.8027063 -76.86441994 25.06396008 C-64.78431173 17.2066728 -51.21605453 12.28132932 -37.18400002 9.28002453 C-29.5907445 7.65462055 -24.04177299 5.46226428 -17.82926369 0.74022961 C-11.66146038 -2.96311666 -6.43083592 -2.86342229 0 0 Z M-14.82926369 18.74022961 C-21.88758331 22.62927084 -29.27850836 24.36371113 -37.07926369 26.05272961 C-46.90138585 28.22114793 -55.16620279 31.68842752 -63.82926369 36.74022961 C-64.84504494 37.31901867 -65.86082619 37.89780773 -66.90738869 38.49413586 C-73.5795187 42.51045993 -79.22193529 47.35842447 -84.82926369 52.74022961 C-85.67488869 53.54460461 -86.52051369 54.34897961 -87.39176369 55.17772961 C-88.59832619 56.44616711 -88.59832619 56.44616711 -89.82926369 57.74022961 C-90.80959572 58.72829601 -90.80959572 58.72829601 -91.80973244 59.73632336 C-106.15914584 74.77727475 -112.80023694 92.92064175 -117.56754494 112.82226086 C-119.31104247 119.7865108 -121.65238424 126.56335016 -126.82926369 131.74022961 C-126.49193421 134.92938029 -125.37128461 136.56269355 -123.10660744 138.75585461 C-122.56842384 139.28437023 -122.03024025 139.81288586 -121.47574806 140.35741711 C-120.91178322 140.89624523 -120.34781837 141.43507336 -119.76676369 141.99022961 C-118.91501564 142.82167492 -118.91501564 142.82167492 -118.04606056 143.66991711 C-116.64713899 145.03357174 -115.23907255 146.38783377 -113.82926369 147.74022961 C-110.36296534 146.25369454 -108.13904332 144.2830061 -105.50113869 141.60741711 C-104.70191994 140.80175304 -103.90270119 139.99608898 -103.07926369 139.16601086 C-102.25426369 138.32425304 -101.42926369 137.48249523 -100.57926369 136.61522961 C-99.73879494 135.76573742 -98.89832619 134.91624523 -98.03238869 134.04101086 C-95.96010686 131.94518037 -93.89263976 129.84482247 -91.82926369 127.74022961 C-91.35223 128.15160168 -90.8751963 128.56297375 -90.38370705 128.98681164 C-89.75601418 129.52676769 -89.1283213 130.06672375 -88.48160744 130.62304211 C-87.86019875 131.15816418 -87.23879005 131.69328625 -86.5985508 132.24462414 C-84.73038987 133.82380916 -82.81443241 135.31090813 -80.82926369 136.74022961 C-82.31579875 140.20652795 -84.2864872 142.43044997 -86.96207619 145.06835461 C-88.17057228 146.26718273 -88.17057228 146.26718273 -89.40348244 147.49022961 C-90.24524025 148.31522961 -91.08699806 149.14022961 -91.95426369 149.99022961 C-92.80375587 150.83069836 -93.65324806 151.67116711 -94.52848244 152.53710461 C-96.62431292 154.60938643 -98.72467082 156.67685353 -100.82926369 158.74022961 C-99.31527914 162.52519098 -98.81482409 162.74744941 -94.82926369 164.74022961 C-55.88926369 125.80022961 -16.94926369 86.86022961 23.17073631 46.74022961 C21.50406965 42.40689627 21.50406965 42.40689627 17.17073631 40.74022961 C-11.86926369 69.78022961 -40.90926369 98.82022961 -70.82926369 128.74022961 C-74.32280207 126.99346042 -75.96872132 125.82617745 -78.57926369 123.11522961 C-79.49965431 122.16776867 -79.49965431 122.16776867 -80.43863869 121.20116711 C-80.89754494 120.71905773 -81.35645119 120.23694836 -81.82926369 119.74022961 C-80.42698304 116.56924633 -78.77320589 114.43652183 -76.32386208 111.99431896 C-75.5974955 111.26520306 -74.87112892 110.53608715 -74.12275124 109.78487682 C-73.32577827 108.99509441 -72.52880531 108.205312 -71.70768166 107.39159679 C-70.86858253 106.55220562 -70.02948341 105.71281445 -69.16495705 104.84798717 C-66.86708602 102.55126989 -64.56484112 100.25904864 -62.26057386 97.96875191 C-59.85200582 95.57269492 -57.44910853 93.17096473 -55.0456028 90.76983166 C-50.49517412 86.22561664 -45.9396717 81.68652351 -41.38232243 77.14925027 C-36.19342257 71.98271295 -31.01020743 66.8104886 -25.827461 61.63777971 C-15.16770666 50.99892477 -4.50083764 40.36722954 6.17073631 29.74022961 C4.3477825 25.79796674 1.78743875 23.02452199 -1.26676369 19.99022961 C-1.75725197 19.48362804 -2.24774025 18.97702648 -2.75309181 18.45507336 C-4.0521133 17.15429881 -5.43671492 15.94034593 -6.82926369 14.74022961 C-10.78483288 14.74022961 -11.8178163 16.271022 -14.82926369 18.74022961 Z M231.63680077 15.93358898 C231.10788231 16.47821789 230.57896385 17.02284679 230.03401756 17.58397961 C229.16873436 18.46376476 229.16873436 18.46376476 228.28597069 19.36132336 C227.39361717 20.29138195 227.39361717 20.29138195 226.48323631 21.24022961 C225.87673241 21.86026867 225.2702285 22.48030773 224.64534569 23.11913586 C223.14699888 24.65287668 221.65797138 26.19571159 220.17073631 27.74022961 C221.65727138 31.20652795 223.62795982 33.43044997 226.30354881 36.06835461 C227.10921288 36.86757336 227.91487694 37.66679211 228.74495506 38.49022961 C230.00759178 39.72772961 230.00759178 39.72772961 231.29573631 40.99022961 C232.1452285 41.83069836 232.99472069 42.67116711 233.86995506 43.53710461 C235.96578555 45.60938643 238.06614345 47.67685353 240.17073631 49.74022961 C239.23483127 50.8457485 238.29693773 51.94958414 237.35823631 53.05272961 C236.836166 53.66761242 236.31409569 54.28249523 235.77620506 54.91601086 C235.24640038 55.51800304 234.71659569 56.11999523 234.17073631 56.74022961 C233.69249413 57.33190929 233.21425194 57.92358898 232.72151756 58.53319836 C231.17073631 59.74022961 231.17073631 59.74022961 229.25374413 59.67992687 C226.53793043 58.45475494 224.9267871 56.83391006 222.84261131 54.70507336 C222.04339256 53.89618664 221.24417381 53.08729992 220.42073631 52.25390148 C219.59573631 51.40376476 218.77073631 50.55362804 217.92073631 49.67772961 C216.66003319 48.39672375 216.66003319 48.39672375 215.37386131 47.08983898 C213.29926034 44.97987549 211.23197799 42.86323252 209.17073631 40.74022961 C205.38577494 42.25421416 205.16351651 42.75466921 203.17073631 46.74022961 C242.11073631 85.68022961 281.05073631 124.62022961 321.17073631 164.74022961 C325.50406965 163.07356294 325.50406965 163.07356294 327.17073631 158.74022961 C298.13073631 129.70022961 269.09073631 100.66022961 239.17073631 70.74022961 C240.9175055 67.24669123 242.08478847 65.60077198 244.79573631 62.99022961 C245.42737694 62.37663586 246.05901756 61.76304211 246.70979881 61.13085461 C247.43296288 60.44249523 247.43296288 60.44249523 248.17073631 59.74022961 C251.34171959 61.14251025 253.47444409 62.7962874 255.91664696 65.24563122 C256.64576286 65.9719978 257.37487877 66.69836437 258.1260891 67.44674206 C258.91587151 68.24371502 259.70565392 69.04068798 260.51936913 69.86181164 C261.3587603 70.70091076 262.19815147 71.54000988 263.06297874 72.40453625 C265.35969603 74.70240728 267.65191728 77.00465218 269.94221401 79.30891943 C272.338271 81.71748747 274.74000119 84.12038476 277.14113426 86.5238905 C281.68534928 91.07431917 286.22444241 95.6298216 290.76171565 100.18717086 C295.92825297 105.37607072 301.10047732 110.55928586 306.27318621 115.74203229 C316.91204114 126.40178664 327.54373638 137.06865566 338.17073631 147.74022961 C342.09923995 145.91671365 344.927157 143.38554206 347.98323631 140.36522961 C348.49821678 139.88312023 349.01319725 139.40101086 349.54378319 138.90429211 C351.20387304 137.32651677 351.20387304 137.32651677 353.17073631 134.74022961 C353.12836526 131.40502227 351.85858104 130.32128437 349.79573631 127.55272961 C345.60205496 121.82096455 344.33718109 115.55993258 342.79500389 108.70189953 C338.51646703 89.74871352 330.87710778 74.39573378 318.17073631 59.74022961 C316.99511131 58.19335461 316.99511131 58.19335461 315.79573631 56.61522961 C311.69078431 52.1193298 306.97575025 48.46150398 302.17073631 44.74022961 C300.99511131 43.82370617 300.99511131 43.82370617 299.79573631 42.88866711 C287.17178869 33.5486518 272.54652871 27.30917235 257.17073631 24.36522961 C249.71028359 22.86484967 241.66838662 20.23787992 236.17073631 14.74022961 C233.24146401 14.43321147 233.24146401 14.43321147 231.63680077 15.93358898 Z M32.08179092 59.58307934 C31.21346193 60.45325191 30.34513294 61.32342449 29.45049095 62.21996593 C28.96692292 62.70182511 28.4833549 63.18368429 27.98513329 63.68014526 C26.35584183 65.30612603 24.73383007 66.93918321 23.11165428 68.57226086 C21.9492419 69.73523701 20.78638967 70.89777369 19.62312889 72.05990124 C16.45769641 75.22475788 13.29848525 78.39576065 10.14031553 81.56786251 C6.84201551 84.8786315 3.53808316 88.18376971 0.23473167 91.48949718 C-6.02367335 97.75412829 -12.27696103 104.02384199 -18.52844799 110.29537582 C-25.64413611 117.43338793 -32.76547722 124.56574867 -39.88731027 131.69762897 C-54.54094856 146.37219479 -69.18743604 161.05388009 -83.82926369 175.74022961 C-82.08185115 179.4743488 -79.94916886 181.862133 -77.01236916 184.78417492 C-76.28041328 185.51656887 -76.28041328 185.51656887 -75.53367043 186.26375866 C-73.92596094 187.87007922 -72.31129268 189.46920674 -70.69645119 191.06835461 C-69.57786134 192.18321277 -68.45971339 193.29851448 -67.34198952 194.41424084 C-64.40367044 197.34493569 -61.45939414 200.26957382 -58.513834 203.1929884 C-55.50728106 206.17905686 -52.50640487 209.1708182 -49.50504494 212.16210461 C-43.61865683 218.02706417 -37.72596269 223.88563693 -31.82926369 229.74022961 C-27.26910481 227.52033169 -23.61791927 225.07992418 -20.82926369 220.74022961 C-20.34090689 216.45435206 -21.48694433 212.31056994 -22.3979435 208.13149357 C-23.05401155 204.17422029 -23.51321735 201.08203652 -21.65040016 197.42748928 C-19.781063 195.08857403 -17.79194787 193.01239944 -15.65348244 190.91649914 C-14.87793007 190.11028118 -14.1023777 189.30406322 -13.30332375 188.47341442 C-10.73807333 185.82495747 -8.13083043 183.22326646 -5.51676369 180.62304211 C-3.71148016 178.79442712 -1.90754407 176.96448099 -0.10489845 175.1332655 C3.67841328 171.30521834 7.4835945 167.50088167 11.30550194 163.71142101 C15.71168401 159.34147788 20.0599308 154.91937119 24.38360119 150.46790135 C28.559189 146.17353436 32.78370163 141.93109729 37.02971458 137.70619869 C38.82353781 135.90930018 40.60326793 134.09821497 42.36815453 132.27288723 C55.86511813 118.37125224 55.86511813 118.37125224 61.38381004 117.31776714 C66.05222901 117.39088277 69.87193904 118.98101628 74.17073631 120.74022961 C77.86701792 121.12102021 78.6687429 121.1424628 81.62776756 118.77147961 C82.40507225 117.93616711 83.18237694 117.10085461 83.98323631 116.24022961 C85.16852928 114.98726086 85.16852928 114.98726086 86.37776756 113.70897961 C87.26528709 112.73444836 87.26528709 112.73444836 88.17073631 111.74022961 C86.60210088 107.96984962 84.25383411 105.56973779 81.38558006 102.69628429 C80.65844307 101.96389034 80.65844307 101.96389034 79.91661644 101.21670055 C78.31880556 99.61011275 76.7138209 98.0109208 75.10823631 96.41210461 C73.99458076 95.29710169 72.88122224 94.18180203 71.76814842 93.06621838 C69.43780957 90.73293411 67.103899 88.4032983 64.767416 86.07616711 C61.7676607 83.08783245 58.77700801 80.09057394 55.78894615 77.09055233 C53.49351034 74.78790481 51.19335133 72.49002321 48.8917141 70.19357586 C47.7866016 69.0898004 46.68298077 67.98452944 45.58086205 66.8777647 C44.04398153 65.33582741 42.50087532 63.80040984 40.95589256 62.26659679 C40.07812157 61.39041698 39.20035057 60.51423717 38.29598045 59.61150646 C35.4368912 57.09407919 34.93941747 57.06210567 32.08179092 59.58307934 Z M187.95610619 59.7143507 C187.03677299 60.63812511 186.1174398 61.56189953 185.17024803 62.51366711 C184.40903145 63.27444561 184.40903145 63.27444561 183.63243675 64.05059338 C181.95031755 65.73410984 180.27539934 67.42460798 178.60042381 69.11522961 C177.43786516 70.28151697 176.27486519 71.44736459 175.11144066 72.6127882 C172.04592186 75.68595458 168.98645543 78.76507915 165.9281826 81.84545422 C162.80821821 84.98585284 159.68260629 88.1206191 156.55745506 91.25585461 C150.42298599 97.41179341 144.29489511 103.57403376 138.17073631 109.74022961 C140.38297378 114.29560267 142.89348581 117.89418147 147.17073631 120.74022961 C151.15933899 121.31110306 154.93114209 120.12346629 158.73176003 118.94845581 C165.75402966 117.06636089 165.75402966 117.06636089 169.47971916 118.83851719 C171.82687175 120.70892762 173.88056395 122.70412589 175.9627285 124.86596203 C176.76573387 125.64779354 177.56873924 126.42962505 178.39607811 127.23514843 C181.03674629 129.82377346 183.6271987 132.45685402 186.21761131 135.09569836 C188.04077591 136.91264377 189.86594104 138.72758381 191.69301414 140.54059887 C195.51330743 144.34624443 199.30994603 148.17340082 203.08968163 152.01928234 C207.45107647 156.45624152 211.85551797 160.8466053 216.28536677 165.21514148 C220.55634213 169.42943507 224.79245985 173.67688859 229.01501274 177.93977833 C230.8100594 179.74533349 232.61390603 181.54218424 234.42661858 183.33000278 C236.95857847 185.83613842 239.44864865 188.3776736 241.9314785 190.93236828 C242.68455284 191.66272289 243.43762718 192.39307751 244.21352196 193.14556408 C247.11199184 196.19606087 249.03617514 198.27112938 249.42846489 202.55403614 C249.20184519 205.36685737 248.78857797 207.98849277 248.17073631 210.74022961 C246.98389139 215.70301929 246.98389139 215.70301929 247.17073631 220.74022961 C249.76775733 224.25169465 252.780565 227.00430188 256.17073631 229.74022961 C259.95374858 228.17079277 262.34330179 225.80921683 265.21468163 222.92333508 C265.70294426 222.43536449 266.19120689 221.94739391 266.69426537 221.44463634 C268.30058593 219.83692686 269.89971344 218.2222586 271.49886131 216.60741711 C272.61371948 215.48882726 273.72902118 214.37067931 274.84474754 213.25295544 C277.7754424 210.31463636 280.70008053 207.37036006 283.6234951 204.42479992 C286.60956357 201.41824698 289.6013249 198.41737079 292.59261131 195.41601086 C298.45757087 189.52962275 304.31614363 183.63692861 310.17073631 177.74022961 C308.61866365 174.0385673 306.36237219 171.6803992 303.53987694 168.85540295 C302.82889225 168.13973829 302.82889225 168.13973829 302.10354424 167.40961576 C300.51608339 165.81418562 298.92157912 164.2259901 297.32698631 162.63769054 C296.18667828 161.49467225 295.04679611 160.35122896 293.90730858 159.20739269 C290.81289347 156.10385758 287.71218256 153.00668482 284.61003685 149.91087914 C281.36751165 146.67341344 278.12986437 143.43107557 274.89143944 140.18950939 C269.45427858 134.74870979 264.01291348 129.31214159 258.56917381 123.87792492 C252.26811578 117.58776218 245.97431 111.2904119 239.68420219 104.98930049 C234.28827456 99.58431041 228.88847604 94.18321074 223.48539543 88.78537107 C220.25611502 85.55921469 217.02821541 82.331708 213.80379295 79.10069561 C210.77466771 76.0658123 207.74072879 73.03582654 204.70293236 70.00962353 C203.58613372 68.89547927 202.47105179 67.77961129 201.35777855 66.66194439 C199.84360892 65.14234874 198.32347833 63.62898673 196.80159569 62.1171217 C195.95061302 61.26689308 195.09963036 60.41666447 194.22286034 59.54067135 C191.32065602 56.99440722 190.83667652 57.14661057 187.95610619 59.7143507 Z M45.64581871 153.14489269 C44.66319809 154.13084423 44.66319809 154.13084423 43.66072655 155.13671398 C42.92003426 155.8774818 42.17934196 156.61824963 41.41620445 157.38146496 C40.6120359 158.19079479 39.80786736 159.00012463 38.97933006 159.83397961 C38.15949135 160.65523327 37.33965263 161.47648693 36.49497032 162.32262707 C33.86371544 164.95950252 31.23594914 167.59982483 28.60823631 170.24022961 C26.83046936 172.02300891 25.05247757 173.80556406 23.27425194 175.58788586 C18.90379634 179.96939774 14.53620392 184.35374829 10.17073631 188.74022961 C13.97662565 193.28859217 17.90919657 197.61904474 22.12213707 201.7916975 C22.68993844 202.3582366 23.2577398 202.92477569 23.84274727 203.50848264 C25.72631363 205.38671589 27.6134426 207.26132708 29.5005703 209.13598156 C30.85977743 210.4899897 32.21873904 211.84424434 33.57747459 213.1987257 C36.49478603 216.10612786 39.41355346 219.01205757 42.3333931 221.91692066 C46.95589746 226.51627529 51.57344735 231.12058225 56.19003868 235.72587109 C69.31544757 248.81791806 82.44498459 261.90580466 95.58504295 274.98314953 C102.84913758 282.2126578 110.10781079 289.44756375 117.36055809 296.68845624 C121.94220445 301.26203172 126.53032641 305.82897548 131.12339008 310.39108336 C133.98674524 313.23836091 136.84371033 316.0919845 139.69894218 318.94740582 C141.0172713 320.26332608 142.33815578 321.57669241 143.66186523 322.88720036 C159.16638535 338.24359556 168.56619925 353.04388038 171.04573631 375.17772961 C173.03445857 391.0066653 180.67190904 405.65636749 193.17073631 415.74022961 C207.16866517 425.44189068 222.12549777 429.67084332 239.17073631 426.74022961 C255.04142041 423.55845347 268.22024266 414.61297167 277.17073631 401.17772961 C285.93893064 386.15873008 288.18679683 371.17049877 284.20589256 354.22851086 C279.50933468 338.40199692 269.60338339 327.58911647 255.66683006 319.24022961 C247.41610517 314.79040045 238.70443197 313.10040784 229.51839256 311.72191906 C221.1232598 310.44641064 213.80450435 308.6416827 206.17073631 304.74022961 C205.3702285 304.35608898 204.56972069 303.97194836 203.74495506 303.57616711 C198.18069458 300.60734727 193.76221377 296.67994618 189.21501732 292.3799696 C188.55763773 291.76195142 187.90025815 291.14393325 187.22295797 290.50718725 C180.44898548 284.10938722 173.84823269 277.54443857 167.27474022 270.94188976 C165.96404784 269.62927108 164.65312232 268.31688515 163.3419857 267.0047102 C160.55463509 264.21423628 157.76883517 261.42222742 154.98429298 258.62895107 C150.58338094 254.21437111 146.17852606 249.80373892 141.77312279 245.39364147 C132.44433058 236.05382731 123.11983457 226.70972946 113.79573631 217.36522961 C103.67800039 207.22543878 93.55949528 197.0864218 83.43615282 186.95222795 C79.05285521 182.56394104 74.67200769 178.17322699 70.29300714 173.78065228 C67.58383464 171.06405521 64.87262304 168.34950045 62.16083527 165.63551426 C60.89934032 164.37213799 59.63871464 163.10789311 58.3789978 161.84274387 C56.66801918 160.12461499 54.95404437 158.4095337 53.23924828 156.69521618 C52.73489679 156.18726973 52.2305453 155.67932328 51.71091044 155.15598452 C48.91263012 151.62456547 48.91263012 151.62456547 45.64581871 153.14489269 Z M174.68286705 155.1036787 C173.94487625 155.84706242 173.94487625 155.84706242 173.19197655 156.60546398 C172.67489128 157.12240322 172.15780602 157.63934246 171.6250515 158.17194653 C169.90743175 159.8902659 168.19338626 161.61210608 166.47933006 163.33397961 C165.29270372 164.52246995 164.10585718 165.71074048 162.91879845 166.89879894 C159.78808461 170.03333935 156.66038472 173.17087069 153.53328514 176.30901623 C150.34457516 179.50793736 147.15304868 182.70404569 143.96175194 185.90038586 C137.69530686 192.1775707 131.43203949 198.45791615 125.17073631 204.74022961 C126.78849748 208.16505668 128.59416875 210.39713482 131.30354881 213.06835461 C132.51204491 214.26718273 132.51204491 214.26718273 133.74495506 215.49022961 C134.58671288 216.31522961 135.42847069 217.14022961 136.29573631 217.99022961 C137.56997459 219.25093273 137.56997459 219.25093273 138.86995506 220.53710461 C140.96578555 222.60938643 143.06614345 224.67685353 145.17073631 226.74022961 C148.10303824 225.41902132 150.1573853 223.99384764 152.40511131 221.70116711 C152.97874413 221.12108898 153.55237694 220.54101086 154.14339256 219.94335461 C154.729916 219.34007336 155.31643944 218.73679211 155.92073631 218.11522961 C156.5227285 217.50421398 157.12472069 216.89319836 157.74495506 216.26366711 C159.22478937 214.76034337 160.69838308 213.25088105 162.17073631 211.74022961 C165.38597936 213.14867678 167.49257499 214.84367746 169.92073631 217.36522961 C170.84112694 218.31269054 170.84112694 218.31269054 171.78011131 219.27929211 C172.23901756 219.76140148 172.69792381 220.24351086 173.17073631 220.74022961 C171.84952803 223.67253153 170.42435434 225.7268786 168.13167381 227.97460461 C167.55159569 228.54823742 166.97151756 229.12187023 166.37386131 229.71288586 C165.77058006 230.29940929 165.16729881 230.88593273 164.54573631 231.49022961 C163.93472069 232.09222179 163.32370506 232.69421398 162.69417381 233.31444836 C161.19085007 234.79428266 159.68138775 236.26787637 158.17073631 237.74022961 C158.83073631 239.06022961 159.49073631 240.38022961 160.17073631 241.74022961 C164.17625448 242.15798329 164.17625448 242.15798329 166.62587547 239.76610851 C167.54076744 238.8423341 168.45565941 237.91855968 169.39827538 236.96679211 C169.90604515 236.45960644 170.41381493 235.95242077 170.93697166 235.42986584 C172.61308977 233.75096085 174.27459642 232.05833263 175.93636131 230.36522961 C177.09562312 229.19850758 178.2557712 228.03266554 179.41676903 226.86767101 C182.47030655 223.79886002 185.51164251 220.71822695 188.55061913 217.635005 C191.65371114 214.49099754 194.76815567 211.35828129 197.88167381 208.22460461 C203.98921657 202.0741607 210.0839195 195.91118541 216.17073631 189.74022961 C211.93349653 184.68329902 207.50982006 179.93181813 202.83870506 175.27538586 C202.16148903 174.5972131 201.48427299 173.91904034 200.78653526 173.22031689 C199.36838529 171.80149128 197.94899126 170.38390814 196.52840233 168.96752453 C194.34355245 166.78808209 192.16415601 164.60328679 189.98518944 162.41796398 C188.60334895 161.03678341 187.22119878 159.65591258 185.83870506 158.27538586 C185.18460152 157.61925808 184.53049797 156.9631303 183.8565731 156.28711987 C179.3090685 151.15245758 179.3090685 151.15245758 174.68286705 155.1036787 Z M60.65559959 269.07592297 C59.59614622 270.15614431 58.54166207 271.24125226 57.49104881 272.33007336 C56.32192292 273.51966895 55.15264681 274.70911691 53.98323631 275.89843273 C52.15323258 277.77141824 50.32577797 279.64678441 48.501791 281.52563 C30.77833461 299.74356984 14.46571942 309.10767739 -10.70426369 313.24022961 C-21.89237746 315.11705893 -29.84076416 318.85156442 -38.82926369 325.74022961 C-39.66844337 326.36671398 -40.50762306 326.99319836 -41.37223244 327.63866711 C-53.16877329 337.7285542 -58.42377684 352.55363022 -60.14957619 367.51757336 C-60.84218474 382.87039626 -54.77673355 397.56592531 -44.76676369 408.92772961 C-33.39537201 421.14528258 -18.77660874 427.03893525 -2.23941994 427.77147961 C13.97026562 427.62293724 27.72929087 420.9106026 39.42073631 409.92772961 C49.22933996 399.62573544 53.83867102 386.67408109 55.67073631 372.80272961 C58.97459354 347.87320055 73.01774658 332.68763937 90.23323631 315.61522961 C91.30053048 314.55296755 92.36758909 313.49046877 93.43440819 312.42772961 C96.01048557 309.86250602 98.58969703 307.3004618 101.17073631 304.74022961 C100.18073631 302.76022961 100.18073631 302.76022961 99.17073631 300.74022961 C95.32172145 300.33954792 95.32172145 300.33954792 93.33968163 302.11718273 C92.73221092 302.7456007 92.12474022 303.37401867 91.49886131 304.02147961 C90.83499413 304.69823742 90.17112694 305.37499523 89.48714256 306.07226086 C88.46427147 307.14540539 88.46427147 307.14540539 87.42073631 308.24022961 C86.7233535 308.95565929 86.02597069 309.67108898 85.30745506 310.40819836 C83.5859061 312.17691305 81.87436191 313.95427266 80.17073631 315.74022961 C76.98987113 314.23076449 74.87203726 312.66081136 72.42073631 310.11522961 C71.50034569 309.16776867 71.50034569 309.16776867 70.56136131 308.20116711 C70.10245506 307.71905773 69.64354881 307.23694836 69.17073631 306.74022961 C70.52915651 303.69690195 72.05536655 301.6171381 74.42854881 299.28710461 C75.05374413 298.66835461 75.67893944 298.04960461 76.32308006 297.41210461 C76.97405663 296.77788586 77.62503319 296.14366711 78.29573631 295.49022961 C78.95444725 294.84054211 79.61315819 294.19085461 80.29183006 293.52147961 C81.91370274 291.92311233 83.54006441 290.32961063 85.17073631 288.74022961 C83.6884418 285.3041778 81.74121892 283.0532137 79.10823631 280.41210461 C78.31159569 279.61288586 77.51495506 278.81366711 76.69417381 277.99022961 C75.86143944 277.16522961 75.02870506 276.34022961 74.17073631 275.49022961 C73.33800194 274.64976086 72.50526756 273.80929211 71.64729881 272.94335461 C70.85065819 272.14929211 70.05401756 271.35522961 69.23323631 270.53710461 C68.50233788 269.80846203 67.77143944 269.07981945 67.01839256 268.32909679 C64.03321839 265.76203634 63.5357365 266.40127049 60.65559959 269.07592297 Z " fill="#ffffff" transform="translate(142.8292636871338,35.25977039337158)"/>
<path d="M0 0 C10.8807267 8.54684301 16.97652683 19.3685213 18.640625 33.07421875 C19.60998294 44.706514 16.40206465 55.64426425 9.640625 65.07421875 C9.021875 65.98171875 8.403125 66.88921875 7.765625 67.82421875 C-0.67114854 76.75727309 -12.11816982 82.14534681 -24.359375 83.07421875 C-38.18066315 83.20939027 -48.94919678 79.17096327 -59.359375 70.07421875 C-68.06834299 61.25022665 -72.40599283 49.75383995 -72.609375 37.44921875 C-72.4305766 24.29940912 -67.98929582 13.90177524 -59.046875 4.26171875 C-42.71420486 -10.90693036 -18.33895428 -12.49668742 0 0 Z M-50.359375 19.07421875 C-55.64857135 26.84395631 -57.25227897 33.71112855 -56.359375 43.07421875 C-53.90249799 52.40768088 -48.8686986 58.69727282 -40.74609375 63.8125 C-33.96151269 67.39911159 -26.77842661 67.83255667 -19.359375 66.07421875 C-13.37767745 63.81582274 -8.49341813 61.0350705 -4.359375 56.07421875 C-3.91851562 55.54957031 -3.47765625 55.02492188 -3.0234375 54.484375 C1.79386112 48.34440768 3.31068718 41.84694003 2.640625 34.07421875 C0.99285387 25.64150769 -2.58670095 19.8468928 -8.609375 13.82421875 C-23.17352092 4.55612589 -38.73784032 6.11076394 -50.359375 19.07421875 Z " fill="#ffffff" transform="translate(398.359375,367.92578125)"/>
<path d="M0 0 C10.19019891 8.82917919 16.44564421 19.24798101 17.5 32.78515625 C17.91717277 46.15206708 14.12524237 58.32076349 5.0625 68.28515625 C-5.11251052 77.94695352 -16.78655624 82.0791308 -30.71875 81.9765625 C-41.62998505 81.39340226 -52.57466063 76.17074093 -60.71875 68.9765625 C-62.9293377 66.45389183 -64.81575857 63.73642576 -66.71875 60.9765625 C-67.440625 59.9453125 -68.1625 58.9140625 -68.90625 57.8515625 C-74.59660263 47.3076738 -74.8283394 34.34967505 -71.9609375 22.96875 C-67.89162143 10.69240993 -60.16259467 1.1463703 -48.65625 -4.8984375 C-32.6296411 -12.1765764 -14.15088123 -10.7969386 0 0 Z M-51.71875 17.9765625 C-56.11420755 24.97430587 -58.38964696 31.6574402 -57.71875 39.9765625 C-55.365708 49.45960525 -50.92217794 56.31574734 -42.84375 61.8515625 C-35.77487936 65.88313419 -28.62492773 66.7237841 -20.71875 64.9765625 C-11.53375672 61.91489807 -5.0387704 56.59911334 -0.71875 47.9765625 C2.54900107 40.97423879 2.30040103 32.98001322 -0.28125 25.7890625 C-4.21175331 17.1309608 -10.125849 11.85669028 -18.71875 7.9765625 C-30.84048731 3.9359834 -43.61579058 8.46909012 -51.71875 17.9765625 Z " fill="#ffffff" transform="translate(168.71875,369.0234375)"/>
<path d="M0 0 C2.97525887 1.19050152 4.67525811 2.97828379 6.95185852 5.23176575 C7.41246674 5.68390442 7.87307495 6.13604309 8.34764099 6.60188293 C9.86447242 8.09535637 11.36988663 9.59973583 12.87446594 11.10554504 C13.92460217 12.14858107 14.97503671 13.19131683 16.02575684 14.23376465 C18.22395668 16.41852397 20.41613318 18.60912647 22.60469055 20.80354309 C25.41372371 23.61848442 28.24060721 26.41471574 31.07269764 29.2064333 C33.24571165 31.35364015 35.40719438 33.51216903 37.5655117 35.67413902 C38.60341552 36.71034631 39.64532233 37.74255974 40.69121742 38.77070045 C42.14931098 40.20673799 43.59011194 41.66027069 45.02998352 43.11457825 C45.85508926 43.93762955 46.68019501 44.76068085 47.53030396 45.6086731 C49.16743469 47.86726379 49.16743469 47.86726379 49.03271484 50.02832031 C47.85338931 52.53469122 46.29644864 54.20943332 44.35493469 56.17976379 C43.66786438 56.89777161 42.98079407 57.61577942 42.27290344 58.35554504 C40.16743469 59.86726379 40.16743469 59.86726379 38.33486938 59.73452759 C35.35961052 58.54402607 33.65961127 56.7562438 31.38301086 54.50276184 C30.92240265 54.05062317 30.46179443 53.5984845 29.98722839 53.13264465 C28.47039697 51.63917122 26.96498276 50.13479175 25.46040344 48.62898254 C24.41026722 47.58594652 23.35983267 46.54321076 22.30911255 45.50076294 C20.11091271 43.31600362 17.9187362 41.12540112 15.73017883 38.9309845 C12.92114568 36.11604316 10.09426218 33.31981185 7.26217175 30.52809429 C5.08915774 28.38088744 2.92767501 26.22235856 0.76935768 24.06038857 C-0.26854614 23.02418127 -1.31045294 21.99196785 -2.35634804 20.96382713 C-3.81444159 19.5277896 -5.25524256 18.07425689 -6.69511414 16.61994934 C-7.52021988 15.79689804 -8.34532562 14.97384674 -9.19543457 14.12585449 C-10.83256531 11.86726379 -10.83256531 11.86726379 -10.69784546 9.70620728 C-9.51851993 7.19983637 -7.96157925 5.52509427 -6.02006531 3.55476379 C-4.98945984 2.47775208 -4.98945984 2.47775208 -3.93803406 1.37898254 C-1.83256531 -0.13273621 -1.83256531 -0.13273621 0 0 Z " fill="#ffffff" transform="translate(185.8325653076172,226.1327362060547)"/>
<path d="M0 0 C10.79595349 5.12535166 18.89109262 24.24749966 22.93359375 34.91796875 C22.93359375 35.57796875 22.93359375 36.23796875 22.93359375 36.91796875 C20.83187508 37.75745695 18.7271275 38.58936531 16.62109375 39.41796875 C15.44933594 39.88203125 14.27757812 40.34609375 13.0703125 40.82421875 C9.93359375 41.91796875 9.93359375 41.91796875 6.93359375 41.91796875 C6.64226562 41.25152344 6.3509375 40.58507812 6.05078125 39.8984375 C-0.24179146 25.70848967 -0.24179146 25.70848967 -9.84375 13.671875 C-11.06640625 11.91796875 -11.06640625 11.91796875 -10.99609375 9.96484375 C-9.80420376 7.34068259 -8.27534122 5.65690646 -6.25390625 3.60546875 C-5.22330078 2.52845703 -5.22330078 2.52845703 -4.171875 1.4296875 C-2.06640625 -0.08203125 -2.06640625 -0.08203125 0 0 Z " fill="#ffffff" transform="translate(458.06640625,96.08203125)"/>
<path d="M0 0 C0.8680908 1.91040052 1.71901783 3.82860737 2.5625 5.75 C3.03816406 6.81734375 3.51382813 7.8846875 4.00390625 8.984375 C5.03959579 12.11987431 5.17826129 13.02802952 4 16 C1.52302724 17.44564595 -0.83443594 18.64544739 -3.4375 19.8125 C-11.338378 23.54603662 -18.9069118 27.59937423 -25 34 C-28.45201639 32.52278578 -30.64961936 30.56205999 -33.25 27.875 C-33.95640625 27.15054688 -34.6628125 26.42609375 -35.390625 25.6796875 C-35.92171875 25.12539062 -36.4528125 24.57109375 -37 24 C-31.82034359 12.59502885 -14.93866389 5.60057276 -4.07421875 0.77734375 C-2 0 -2 0 0 0 Z " fill="#ffffff" transform="translate(99,65)"/>
</svg>
