<?xml version="1.0" standalone="no"?>
<!DOCTYPE svg PUBLIC "-//W3C//DTD SVG 20010904//EN"
 "http://www.w3.org/TR/2001/REC-SVG-20010904/DTD/svg10.dtd">
<svg version="1.0" xmlns="http://www.w3.org/2000/svg"
 width="512.000000pt" height="512.000000pt" viewBox="0 0 512.000000 512.000000"
 preserveAspectRatio="xMidYMid meet">

<g transform="translate(0.000000,512.000000) scale(0.100000,-0.100000)"
fill="#ffffff" stroke="none">
<path d="M2 4818 c4 -283 6 -308 27 -373 59 -179 159 -313 305 -411 l56 -37 0
-418 0 -419 915 0 c1032 0 1001 -2 1160 75 140 67 273 204 328 338 l16 37 239
0 c238 0 239 0 249 -22 6 -13 27 -44 47 -71 l36 -47 0 -210 0 -210 75 0 75 0
2 -242 3 -243 72 -3 73 -3 2 243 3 243 73 3 72 3 0 -846 0 -845 -75 0 -75 0 0
525 0 526 -72 -3 -73 -3 -3 -522 -2 -523 -75 0 -75 0 0 -255 0 -254 -110 -185
-110 -185 0 -241 0 -240 300 0 300 0 0 75 0 75 -225 0 -225 0 0 146 0 146 96
159 95 159 262 0 262 0 147 -184 147 -184 203 -5 c130 -2 216 -9 240 -17 80
-28 171 -121 193 -197 l6 -23 -525 0 -526 0 0 -75 0 -75 605 0 605 0 0 63 c0
129 -49 247 -139 338 -107 107 -208 139 -443 139 l-146 0 -131 164 -131 164 0
246 0 246 -75 0 -75 0 0 845 0 845 75 0 75 0 0 206 0 206 34 41 c173 214 149
537 -54 720 -127 115 -315 163 -473 122 -131 -34 -258 -127 -322 -234 l-30
-51 -231 0 -231 0 -22 57 c-31 82 -103 184 -177 252 -109 100 -176 127 -569
235 -192 53 -355 99 -362 101 -7 2 -18 -18 -28 -53 -9 -31 -18 -64 -21 -73 -3
-13 59 -33 348 -112 204 -56 380 -110 417 -128 125 -61 239 -204 276 -344 19
-76 19 -204 0 -280 -37 -139 -150 -281 -276 -342 -130 -64 -109 -63 -1031 -63
l-838 0 0 775 c0 593 3 775 12 775 6 0 216 -56 467 -125 250 -69 459 -124 464
-122 9 3 49 128 43 135 -5 4 -132 40 -756 211 -562 155 -589 161 -678 161
l-94 0 4 -302z m286 116 l102 -27 0 -358 c0 -224 -4 -359 -10 -359 -40 0 -158
161 -197 270 -26 71 -27 87 -31 293 -4 209 -3 219 15 214 10 -3 64 -18 121
-33z m3583 -744 c167 -52 267 -201 257 -381 -15 -263 -294 -425 -533 -309
-144 70 -233 241 -204 395 43 231 259 364 480 295z m-634 -355 l0 -75 -194 0
-193 0 0 75 0 75 193 0 194 0 0 -75z m398 -507 c85 -24 202 -20 288 9 l57 20
0 -79 0 -78 -225 0 -225 0 0 81 c0 74 2 80 18 74 9 -5 49 -17 87 -27z m345
-2268 l0 -150 -222 2 -223 3 -3 148 -3 147 226 0 225 0 0 -150z"/>
<path d="M690 4435 l0 -76 73 3 72 3 3 73 3 72 -76 0 -75 0 0 -75z"/>
<path d="M990 4435 l0 -76 73 3 72 3 3 73 3 72 -76 0 -75 0 0 -75z"/>
</g>
</svg>
