<?xml version="1.0" encoding="UTF-8"?>
<svg version="1.1" xmlns="http://www.w3.org/2000/svg" width="1200" height="1091">
<path d="M0 0 C1.09957031 0.71542969 2.19914063 1.43085937 3.33203125 2.16796875 C15.746954 10.31983808 27.6228882 19.15432822 39.3828125 28.21484375 C40.02250977 28.70065918 40.66220703 29.18647461 41.32128906 29.68701172 C43 31 43 31 45.1796875 33.00390625 C47.03215367 34.28057843 47.03215367 34.28057843 49.45703125 33.42578125 C52.17359054 31.90267197 54.33507254 30.22930096 56.6875 28.1875 C69.04303936 17.84410097 82.45469275 8.70952995 96 0 C96.75023437 -0.48404297 97.50046875 -0.96808594 98.2734375 -1.46679688 C154.91328703 -37.80611781 222.74205926 -66.46474238 291.15527344 -52.56201172 C329.13824434 -44.15960537 360.3817187 -20.51542026 381.5234375 11.7734375 C413.71529823 62.85901907 419.44859837 126.48468959 416.25 185.4375 C416.20876007 186.21827911 416.16752014 186.99905823 416.12503052 187.80349731 C415.09087344 206.92392871 413.24661152 226.11890811 410 245 C410.72767578 245.12802002 411.45535156 245.25604004 412.20507812 245.38793945 C460.56186928 255.97760362 514.62948866 292.82439968 550.09375 326.28125 C552.47379805 328.50774656 554.88813685 330.64573118 557.375 332.75 C560.52555717 335.48876236 563.2731238 338.40538013 565.96484375 341.59375 C567.53754388 343.45321886 569.13206971 345.27790861 570.75390625 347.09375 C577.9883476 355.25493185 584.28542619 363.71233863 590 373 C590.58177002 373.93900146 590.58177002 373.93900146 591.17529297 374.89697266 C611.57739328 408.25034336 619.08598663 447.75924951 610.27734375 486.0390625 C602.05503104 519.07131007 583.31666703 546.72511378 560 571 C558.71609375 572.34578125 558.71609375 572.34578125 557.40625 573.71875 C552.48120247 578.76848227 547.3315954 583.34300533 541.81640625 587.73828125 C539.00761432 589.99388531 536.29065096 592.3353811 533.5625 594.6875 C521.29196576 604.91825712 507.89137441 613.88509553 494.0390625 621.82666016 C491.76718098 623.13397129 489.50893358 624.46341728 487.25 625.79296875 C462.95444279 639.99831368 437.46822536 652.36634444 411 662 C411.53477152 669.02679225 412.19602715 676.03549601 412.9375 683.04296875 C414.90288105 701.70005029 416.67706384 720.22887187 417 739 C417.03978887 740.37631885 417.08010671 741.75262256 417.12109375 743.12890625 C418.08826963 799.50957064 408.57540508 866.18881139 370 910 C369.28199219 910.82628906 368.56398438 911.65257812 367.82421875 912.50390625 C365.58463796 915.03745619 363.30394979 917.52494513 361 920 C360.32582031 920.73992188 359.65164063 921.47984375 358.95703125 922.2421875 C336.28941304 946.14312828 301.99113311 960.61628891 269.29150391 962.17700195 C189.66789145 963.45599381 120.29997363 927.6041491 58.50390625 879.7421875 C57.89691895 879.27522461 57.28993164 878.80826172 56.66455078 878.32714844 C55.17149112 877.13673008 53.74978334 875.85809873 52.33984375 874.5703125 C50.14878803 872.81297624 50.14878803 872.81297624 47.69140625 872.86328125 C43.56028766 874.60806428 40.39020361 877.36197923 36.9375 880.1875 C15.74671018 897.07489597 -7.01614521 911.50046957 -30.65771484 924.68945312 C-32.67169649 925.81630881 -34.67486172 926.9595887 -36.67578125 928.109375 C-62.74861559 942.66445207 -91.74148973 953.13807366 -121 959 C-121.78745605 959.16371094 -122.57491211 959.32742188 -123.38623047 959.49609375 C-146.06923832 964.03926602 -172.48836224 964.47902295 -195 959 C-196.20785156 958.74476563 -197.41570312 958.48953125 -198.66015625 958.2265625 C-221.80274993 952.83074921 -242.65584004 941.06217708 -260 925 C-260.54253418 924.50129395 -261.08506836 924.00258789 -261.64404297 923.48876953 C-305.01841957 883.16803047 -318.51541159 820.31655297 -320.79101562 763.34594727 C-320.87218351 760.89746141 -320.93897684 758.44906267 -321 756 C-321.02191406 755.2884375 -321.04382813 754.576875 -321.06640625 753.84375 C-321.77680537 728.45882132 -319.5333152 702.85691944 -316.32128906 677.70092773 C-316.23430756 677.01731171 -316.14732605 676.33369568 -316.05770874 675.62936401 C-315.82155805 673.79145599 -315.57875871 671.95440565 -315.33544922 670.11743164 C-315.04057574 667.3770827 -314.93357248 664.75222754 -315 662 C-315.54076172 661.78496826 -316.08152344 661.56993652 -316.63867188 661.34838867 C-361.72124476 643.34653565 -405.80371888 621.62765183 -443 590 C-444.08281757 589.10224214 -445.16618204 588.20514363 -446.25 587.30859375 C-458.97726514 576.69446037 -470.94869735 565.21493209 -481 552 C-481.64098633 551.17363037 -481.64098633 551.17363037 -482.29492188 550.33056641 C-489.48489908 541.03713843 -495.60353584 531.43594348 -501 521 C-501.31952637 520.38688965 -501.63905273 519.7737793 -501.96826172 519.14208984 C-519.48437489 485.0529684 -522.61467826 445.48795846 -511 409 C-504.42733473 389.50046528 -494.68497528 372.14494253 -482 356 C-481.19175781 354.96746094 -480.38351562 353.93492187 -479.55078125 352.87109375 C-475.79631735 348.18598175 -471.93275952 343.7741032 -467.609375 339.609375 C-465.9803368 337.9803368 -464.52597886 336.2782055 -463.0625 334.5 C-460.34778273 331.27672091 -457.36833876 328.57224962 -454.15625 325.8515625 C-452.732063 324.62861931 -451.33495911 323.37332685 -449.96875 322.0859375 C-415.80410456 289.96635887 -370.85564311 267.47626805 -328 249.4375 C-326.43100952 248.77403564 -326.43100952 248.77403564 -324.83032227 248.09716797 C-323.85506592 247.69256348 -322.87980957 247.28795898 -321.875 246.87109375 C-321.00617188 246.50943115 -320.13734375 246.14776855 -319.2421875 245.77514648 C-317 245 -317 245 -314 245 C-314.11069824 244.24195068 -314.22139648 243.48390137 -314.33544922 242.70288086 C-317.89108461 218.16677668 -320.32483505 193.80017671 -321 169 C-321.02336426 168.21302734 -321.04672852 167.42605469 -321.07080078 166.61523438 C-322.63460395 106.74391294 -311.93735896 40.76358731 -272 -6 C-271.29230469 -6.83015625 -270.58460938 -7.6603125 -269.85546875 -8.515625 C-199.26293312 -89.12216306 -81.15239214 -53.01333298 0 0 Z M-229 28 C-264.97725162 68.16564808 -268.393929 131.77132362 -265.6171875 182.71484375 C-264.82846293 204.56714596 -264.82846293 204.56714596 -261 226 C-253.59598024 224.20221885 -246.21480115 222.35031727 -238.875 220.3046875 C-208.71447421 211.94763158 -178.10025175 205.36963335 -147.25 200.125 C-146.40003448 199.97869141 -145.55006897 199.83238281 -144.67434692 199.68164062 C-136.48303142 198.27666695 -128.32927607 196.97413245 -120.0546875 196.17578125 C-107.17578666 195.32614792 -107.17578666 195.32614792 -96.88647461 188.43774414 C-95.12059738 186.01996091 -93.59436144 183.52032588 -92.12890625 180.91113281 C-90.23789018 177.70981927 -87.89507544 174.88664881 -85.5625 172 C-84.88610474 171.13822144 -84.88610474 171.13822144 -84.19604492 170.2590332 C-80.38195798 165.40097657 -76.38612033 160.71080804 -72.34228516 156.04345703 C-69.30659466 152.53815696 -66.34551476 148.98798803 -63.4375 145.375 C-59.33347933 140.31759522 -54.97686011 135.53867988 -50.55078125 130.765625 C-48.51598117 128.55944053 -46.52353762 126.33367739 -44.5625 124.0625 C-33.98997167 111.91351153 -22.66465298 100.53844441 -11.25 89.1875 C-9.66643078 87.60896056 -8.08309593 86.03018597 -6.5 84.45117188 C-2.66935718 80.63140662 1.16414123 76.81452694 5 73 C3.90406978 69.71220933 3.40044969 69.28379451 0.703125 67.35546875 C0.0028418 66.85080078 -0.69744141 66.34613281 -1.41894531 65.82617188 C-2.18819336 65.28541016 -2.95744141 64.74464844 -3.75 64.1875 C-4.55276367 63.61708984 -5.35552734 63.04667969 -6.18261719 62.45898438 C-26.90527785 47.82465259 -48.14244502 33.79349827 -71.11083984 22.91064453 C-72.99446806 22.0026666 -74.8505484 21.05194127 -76.70703125 20.08984375 C-124.49868364 -4.18460816 -188.62517172 -14.85723822 -229 28 Z M103.93310547 61.57080078 C101.09379706 63.66998131 98.23397717 65.7401968 95.375 67.8125 C93.91642846 68.87467297 92.4579839 69.93702055 91 71 C92.42882214 74.26233121 94.17053252 76.40993909 96.69604492 78.90722656 C97.83314156 80.03925507 97.83314156 80.03925507 98.99320984 81.19415283 C99.81400528 82.00148865 100.63480072 82.80882446 101.48046875 83.640625 C102.32668289 84.48163757 103.17289703 85.32265015 104.04475403 86.18914795 C106.75430529 88.88088337 109.47042077 91.56586526 112.1875 94.25 C114.88589762 96.92066362 117.58278724 99.59280522 120.27668762 102.26800537 C121.95233414 103.93152597 123.63064603 105.5923676 125.3120575 107.25006104 C129.54800503 111.4502581 133.61875818 115.72334152 137.49803162 120.25621033 C139.87604658 123.01709264 142.38259415 125.65533124 144.875 128.3125 C149.31018016 133.07930174 153.50805154 137.97195965 157.5859375 143.05078125 C160.50672496 146.61905719 163.52939036 150.0897278 166.5625 153.5625 C171.52711295 159.2637381 176.35379634 165.03440402 181 171 C181.54366211 171.69625488 182.08732422 172.39250977 182.64746094 173.10986328 C194.77676104 188.64551262 194.77676104 188.64551262 196.29077148 191.0496521 C198.44038166 193.50250592 199.65294027 193.68628426 202.84643555 194.15332031 C203.8398143 194.30771576 204.83319305 194.46211121 205.85667419 194.6211853 C206.9390889 194.7719754 208.0215036 194.9227655 209.13671875 195.078125 C210.26662735 195.2502652 211.39653595 195.4224054 212.5606842 195.59976196 C214.99615354 195.96994076 217.4327314 196.33288312 219.87023926 196.68939209 C226.30402419 197.63426617 232.72772716 198.64340989 239.15234375 199.6484375 C240.43505157 199.84805084 241.7177594 200.04766418 243.03933716 200.25332642 C279.04097879 205.89440892 314.95947884 213.8631915 349.82701111 224.49259949 C353.3499868 225.61409852 353.3499868 225.61409852 357 226 C359.22758434 214.76728748 360.10565668 203.4013282 361 192 C361.06074707 191.23945313 361.12149414 190.47890625 361.18408203 189.6953125 C365.54748654 132.80172769 360.44747537 70.09667696 322.265625 24.94921875 C310.9884389 12.80670401 294.79605359 5.03633802 279 1 C278.11570312 0.773125 277.23140625 0.54625 276.3203125 0.3125 C216.13203706 -12.2485314 149.91200313 27.52586358 103.93310547 61.57080078 Z M43.89567566 110.61657715 C43.14401627 111.37410278 42.39235687 112.13162842 41.61791992 112.91210938 C40.7599028 113.76720093 39.90188568 114.62229248 39.01786804 115.5032959 C38.09802628 116.44064575 37.17818451 117.37799561 36.23046875 118.34375 C35.26726928 119.31187746 34.30325153 120.27919143 33.3384552 121.24572754 C31.31417388 123.27765635 29.29652781 125.31586854 27.28393555 127.359375 C24.72380914 129.95878543 22.15329595 132.54757898 19.57833385 135.13228607 C17.10471401 137.61597282 14.63599379 140.10450541 12.16796875 142.59375 C10.79731514 143.97548401 10.79731514 143.97548401 9.39897156 145.38513184 C4.93537072 149.91477661 0.58313198 154.4912912 -3.55537415 159.32096863 C-5.76007607 161.88340629 -8.07101251 164.33899992 -10.375 166.8125 C-19.10828771 175.76609445 -19.10828771 175.76609445 -26 186 C-25.08903564 185.95554245 -25.08903564 185.95554245 -24.15966797 185.91018677 C-2.14767507 184.88246684 19.84914254 184.84468058 41.88085938 184.86962891 C46.97653984 184.87532559 52.07216801 184.87194686 57.16784668 184.86617661 C78.79956703 184.84554208 100.38971531 184.94535905 122 186 C121.05885847 184.73054725 120.11566627 183.46261467 119.17163086 182.1953125 C118.64661484 181.48906738 118.12159882 180.78282227 117.58067322 180.05517578 C115.38940886 177.2061154 113.01981709 174.62494249 110.5625 172 C107.51695747 168.72556918 104.48372927 165.44912118 101.5625 162.0625 C91.48589169 150.47919733 80.759098 139.51766474 69.93359375 128.63842773 C68.29244433 126.98558875 66.65581439 125.32825153 65.0234375 123.66674805 C62.63979334 121.24077528 60.24348184 118.82801594 57.84375 116.41796875 C57.11458374 115.6712944 56.38541748 114.92462006 55.63415527 114.15531921 C54.95244263 113.47653214 54.27072998 112.79774506 53.56835938 112.09838867 C52.97390015 111.4980632 52.37944092 110.89773773 51.76696777 110.27922058 C48.82323806 108.14806704 46.68644332 108.47266277 43.89567566 110.61657715 Z M-26.4375 240.4375 C-27.89731796 240.52966293 -27.89731796 240.52966293 -29.3866272 240.62368774 C-39.82035629 241.28996172 -50.24552902 242.05305197 -60.66015625 242.97265625 C-61.54126572 243.04520126 -62.42237518 243.11774628 -63.33018494 243.19248962 C-64.14814041 243.26826736 -64.96609589 243.3440451 -65.80883789 243.42211914 C-66.5240712 243.48548965 -67.2393045 243.54886017 -67.97621155 243.614151 C-71.97795224 244.37711001 -73.72925866 245.65021355 -76.234375 248.88671875 C-77.08164049 250.1478284 -77.9194829 251.41529809 -78.75 252.6875 C-79.72141268 254.14015528 -80.69415075 255.59192483 -81.66796875 257.04296875 C-82.19696777 257.83493652 -82.7259668 258.6269043 -83.27099609 259.44287109 C-85.79360182 263.17370594 -88.39009348 266.85144107 -90.98046875 270.53540039 C-97.53045085 279.86190515 -103.83120013 289.26906293 -109.76513672 298.99707031 C-111.57725699 301.93630217 -113.44102552 304.84193088 -115.29956055 307.75195312 C-132.09537263 334.09619928 -147.31992281 361.43145797 -162 389 C-162.5686377 390.06734375 -163.13727539 391.1346875 -163.72314453 392.234375 C-170.51277435 405.02912256 -177.02833211 417.92479564 -183.125 431.0625 C-183.65738281 432.20944336 -184.18976563 433.35638672 -184.73828125 434.53808594 C-185.73039045 436.69892019 -186.70134279 438.86962981 -187.64794922 441.05078125 C-189 444 -189 444 -190.51220703 446.43359375 C-192.03899812 449.12573151 -192.74486089 450.90046262 -193 454 C-191.27847394 460.00078192 -188.49165658 465.35101087 -185.625 470.875 C-184.82472825 472.47906253 -184.02764116 474.08471759 -183.23364258 475.69189453 C-181.62297631 478.93764313 -179.99263368 482.17218894 -178.34326172 485.3984375 C-176.2394053 489.51608745 -174.18849132 493.6572369 -172.16015625 497.8125 C-165.6333875 511.14263537 -158.7657389 524.2669034 -151.54052734 537.23095703 C-149.9296961 540.12636876 -148.33361009 543.02961511 -146.73828125 545.93359375 C-130.84358107 574.73815987 -113.47814734 602.78218837 -95 630 C-94.56623047 630.64098633 -94.13246094 631.28197266 -93.68554688 631.94238281 C-83.72393445 647.68544838 -83.72393445 647.68544838 -72 662 C-70.22325154 662.27788999 -68.43669262 662.49332659 -66.6484375 662.68359375 C-65.5027832 662.80557129 -64.35712891 662.92754883 -63.17675781 663.05322266 C-61.92217773 663.18003418 -60.66759766 663.3068457 -59.375 663.4375 C-57.43125488 663.63545166 -57.43125488 663.63545166 -55.44824219 663.83740234 C-46.05946307 664.77286926 -36.66584554 665.5135737 -27.25 666.125 C-25.5182251 666.23799438 -25.5182251 666.23799438 -23.75146484 666.35327148 C-19.83538549 666.59280599 -15.91841452 666.80339944 -12 667 C-11.15525116 667.04343536 -10.31050232 667.08687073 -9.44015503 667.13162231 C9.35182042 668.07069212 28.12755352 668.20055639 46.9375 668.1875 C47.7035128 668.18738041 48.4695256 668.18726082 49.25875092 668.1871376 C86.61337724 668.17977861 123.82410725 666.86802724 161 663 C162.22356201 662.90444824 163.44712402 662.80889648 164.70776367 662.71044922 C168.56740771 661.87755607 169.46441429 661.0868106 171.7578125 657.94921875 C172.4271582 657.04220215 173.09650391 656.13518555 173.78613281 655.20068359 C174.51670898 654.14445801 175.24728516 653.08823242 176 652 C176.407948 651.41027405 176.815896 650.8205481 177.23620605 650.21295166 C180.51120206 645.45353515 183.69717397 640.63709709 186.875 635.8125 C187.81336069 634.39489002 188.75216091 632.97757088 189.69140625 631.56054688 C191.55212595 628.75241849 193.40990774 625.94237862 195.26586914 623.13110352 C197.50330597 619.74520373 199.75675553 616.37032542 202.01524353 612.9984436 C206.22460661 606.7105548 210.35089501 600.38561635 214.3125 593.9375 C214.85390625 593.05884277 215.3953125 592.18018555 215.953125 591.27490234 C237.84212941 555.61680423 258.03742917 518.9343619 276.35693359 481.31640625 C278.01768892 477.96429624 279.74726219 474.65476464 281.48828125 471.34375 C282.55631155 469.22998648 283.62279136 467.1154386 284.6875 465 C285.45682861 463.59524414 285.45682861 463.59524414 286.24169922 462.16210938 C288.14112668 458.2783405 289.32387336 455.52255105 288.40625 451.20874023 C287.11507297 448.02396201 285.5993202 445.0416352 284 442 C283.12818374 440.14027302 282.28379151 438.26941826 281.4392395 436.39717102 C279.87089756 432.93527565 278.24546617 429.50022787 276.625 426.0625 C276.2785141 425.32655609 275.9320282 424.59061218 275.57504272 423.83236694 C265.11653336 401.6615198 253.80164309 380.0194113 241.57958984 358.76513672 C239.98853577 355.9799314 238.42235103 353.18212633 236.86328125 350.37890625 C225.37938878 329.76461038 212.98425229 309.701494 200 290 C199.61247559 289.40848145 199.22495117 288.81696289 198.82568359 288.20751953 C191.3571572 276.81415809 183.56550481 265.64102833 175.74365234 254.48828125 C174.64971217 252.92717256 173.56071381 251.3625767 172.47900391 249.79296875 C170.23832975 246.36174806 170.23832975 246.36174806 167 244 C165.53589026 243.80238257 164.06476582 243.6554504 162.59228516 243.53515625 C161.67597321 243.45837646 160.75966125 243.38159668 159.81558228 243.30249023 C158.31745499 243.18369507 158.31745499 243.18369507 156.7890625 243.0625 C155.75171967 242.97750244 154.71437683 242.89250488 153.64559937 242.80493164 C151.43479396 242.62478352 149.22381905 242.44670573 147.01269531 242.27050781 C143.70070818 242.00604531 140.38940752 241.73406368 137.078125 241.4609375 C118.23235126 239.92562057 99.39990328 238.94434396 80.5 238.4375 C79.73075195 238.41665344 78.96150391 238.39580688 78.16894531 238.37432861 C43.23984438 237.44538222 8.42679801 238.21728841 -26.4375 240.4375 Z M243 255 C244.58145354 259.14028797 246.52644422 262.41284168 249.0625 266.0625 C274.28433791 303.1100487 295.62788412 343.12872111 316 383 C319.37938613 379.24968256 320.56400098 374.93410242 322.07421875 370.22265625 C322.50170158 368.91714813 322.50170158 368.91714813 322.93782043 367.58526611 C323.86337273 364.747172 324.77631077 361.90523544 325.6875 359.0625 C326.00058105 358.09315521 326.31366211 357.12381042 326.63623047 356.12509155 C331.88525347 339.86282946 336.73824083 323.5513112 341 307 C341.2990625 305.84773926 341.598125 304.69547852 341.90625 303.50830078 C342.77921857 300.13260283 343.64302938 296.7547924 344.5 293.375 C344.75587891 292.36606689 345.01175781 291.35713379 345.27539062 290.31762695 C345.61860352 288.93450317 345.61860352 288.93450317 345.96875 287.5234375 C346.16919922 286.71825684 346.36964844 285.91307617 346.57617188 285.08349609 C347.09966953 282.86439588 347.09966953 282.86439588 347 280 C312.79520074 269.80087002 278.2387416 260.83988846 243 255 Z M-148 255 C-182.7178463 261.77554371 -217.27253189 269.21071891 -251 280 C-249.52519028 289.0580088 -247.40583023 297.92999446 -245.125 306.8125 C-244.83887344 307.93093292 -244.83887344 307.93093292 -244.54696655 309.07196045 C-241.33812563 321.54100381 -237.70655283 333.8537412 -233.8125 346.125 C-233.56687317 346.90026031 -233.32124634 347.67552063 -233.06817627 348.47427368 C-230.40454395 356.84888786 -227.63561401 365.18734687 -224.76171875 373.4921875 C-224.51476761 374.21737579 -224.26781647 374.94256409 -224.01338196 375.68972778 C-222.61251838 379.70210686 -222.61251838 379.70210686 -220 383 C-219.55309814 382.12077881 -219.10619629 381.24155762 -218.64575195 380.33569336 C-209.9399537 363.22901539 -201.11960146 346.24026481 -191.50878906 329.61914062 C-189.9992978 326.99878103 -188.50869698 324.368535 -187.0234375 321.734375 C-177.26941725 304.46340658 -166.94360157 287.55641553 -156.3125 270.8125 C-155.7242041 269.88574463 -155.1359082 268.95898926 -154.52978516 268.00415039 C-153.97983887 267.14297607 -153.42989258 266.28180176 -152.86328125 265.39453125 C-152.14072144 264.26301636 -152.14072144 264.26301636 -151.40356445 263.10864258 C-150.00743565 261.01117094 -148.53148892 259.00019076 -147 257 C-147.495 256.01 -147.495 256.01 -148 255 Z M399 299 C398.69932617 300.16418457 398.39865234 301.32836914 398.08886719 302.52783203 C387.29517322 344.19343875 375.4235634 385.76623249 359.09765625 425.65625 C358.60800385 426.85680779 358.60800385 426.85680779 358.10845947 428.08161926 C356.5245233 431.95603111 354.92043033 435.81990974 353.27978516 439.6706543 C352.70045878 441.06543153 352.1215007 442.46036181 351.54296875 443.85546875 C350.7698938 445.67534302 350.7698938 445.67534302 349.98120117 447.53198242 C348.275021 453.56241023 349.91081347 458.35371338 352.265625 463.98046875 C352.73669678 465.12483398 353.20776855 466.26919922 353.69311523 467.44824219 C353.94600311 468.05454468 354.19889099 468.66084717 354.45944214 469.28552246 C371.65303265 510.65102468 385.15773273 553.34674683 396.15307617 596.75073242 C397.04822704 600.18502557 398.01282839 603.5911688 399 607 C406.32531693 604.72899882 413.17700327 601.79885991 420.125 598.5625 C421.26155029 598.03390381 422.39810059 597.50530762 423.5690918 596.96069336 C447.59595793 585.6878201 470.78481684 573.02812767 492 557 C492.57266602 556.57009766 493.14533203 556.14019531 493.73535156 555.69726562 C502.11978127 549.36852254 509.99270613 542.61537442 517.58056641 535.35205078 C518.82505342 534.16664159 520.08878072 533.0014996 521.35546875 531.83984375 C542.92418064 511.44974999 558.39185071 482.98605329 559.375 453 C558.44275787 424.56661493 545.08687902 400.85212198 526.12109375 380.30859375 C524.17001655 378.18504564 522.30031718 376.01324319 520.4375 373.8125 C516.9338502 369.80490057 513.07839424 366.40922765 509 363 C507.74123047 361.90945313 507.74123047 361.90945313 506.45703125 360.796875 C482.56670335 340.36652562 431.90609909 299 399 299 Z M-416.421875 366.57421875 C-418.66719361 368.68685944 -420.9590021 370.69780616 -423.3125 372.6875 C-427.28123209 376.15097256 -430.67317306 379.92173371 -434 384 C-434.76183594 384.92425781 -435.52367187 385.84851563 -436.30859375 386.80078125 C-452.68777862 407.10488735 -465.40208424 432.176726 -463 459 C-459.47138459 488.75798997 -444.29540081 511.74811491 -424 533 C-423.23816406 533.80308594 -422.47632813 534.60617187 -421.69140625 535.43359375 C-416.16881507 541.11369199 -410.23998945 546.12671662 -404 551 C-403.13592529 551.67869141 -403.13592529 551.67869141 -402.25439453 552.37109375 C-386.80575647 564.44532715 -370.24349079 574.70089877 -353 584 C-352.16549316 584.45342773 -351.33098633 584.90685547 -350.47119141 585.37402344 C-327.67536186 599.61463254 -327.67536186 599.61463254 -303 607 C-302.76345703 606.10933838 -302.52691406 605.21867676 -302.28320312 604.30102539 C-290.37730451 559.55236892 -277.51185055 515.14723314 -259.85546875 472.26953125 C-259.38061035 471.11235596 -258.90575195 469.95518066 -258.41650391 468.76293945 C-257.54491538 466.66254625 -256.65895951 464.56802799 -255.75537109 462.48120117 C-255.3733252 461.56959229 -254.9912793 460.6579834 -254.59765625 459.71875 C-254.26258057 458.94466797 -253.92750488 458.17058594 -253.58227539 457.37304688 C-252.23296287 451.87396188 -254.69058791 446.78404747 -256.73828125 441.734375 C-257.31091972 440.29033424 -257.88342346 438.84624004 -258.45581055 437.40209961 C-258.75820648 436.64524872 -259.06060242 435.88839783 -259.37216187 435.10861206 C-275.44601771 394.79121041 -288.85912977 353.76396919 -299.52952576 311.6932373 C-300.61196909 307.43785327 -301.7759163 303.21617448 -303 299 C-337.59644448 299 -392.4591934 343.95370921 -416.421875 366.57421875 Z M-221 523 C-241.6557148 573.35708662 -241.6557148 573.35708662 -251 626 C-223.08424087 635.78387252 -193.90342311 642.40652825 -164.9375 648.25 C-163.81500351 648.47925171 -163.81500351 648.47925171 -162.66983032 648.71313477 C-160.58244281 649.13619937 -158.49315369 649.54735352 -156.40234375 649.953125 C-154.64651978 650.29585449 -154.64651978 650.29585449 -152.85522461 650.64550781 C-149.93188628 651.21657612 -149.93188628 651.21657612 -147 650 C-147.35602295 649.44352783 -147.7120459 648.88705566 -148.07885742 648.3137207 C-174.10335598 607.60596117 -198.10175434 566.06479805 -220 523 C-220.33 523 -220.66 523 -221 523 Z M316 523 C315.69932617 523.61182129 315.39865234 524.22364258 315.08886719 524.85400391 C307.73998085 539.77118779 300.09705576 554.47580959 292 569 C291.48856445 569.92103516 290.97712891 570.84207031 290.45019531 571.79101562 C278.31738806 593.60739054 265.47209158 614.98546862 252 636 C251.31405762 637.07121094 251.31405762 637.07121094 250.61425781 638.1640625 C248.08351451 642.11413555 245.54558927 646.05947924 243 650 C247.34657788 651.31297633 250.97062739 650.43958991 255.3203125 649.515625 C256.15551422 649.34434082 256.99071594 649.17305664 257.85122681 648.99658203 C260.61158847 648.42542248 263.36839376 647.83900224 266.125 647.25 C267.07040649 647.05047729 268.01581299 646.85095459 268.98986816 646.64538574 C283.67015475 643.53762772 298.2356725 640.05607713 312.75 636.25 C313.61465881 636.02429321 314.47931763 635.79858643 315.37017822 635.56604004 C326.0587531 632.76213633 336.56527064 629.64256957 347 626 C344.97979137 615.17132679 342.45631162 604.56284016 339.5625 593.9375 C339.24510361 592.76501709 339.24510361 592.76501709 338.92129517 591.56884766 C335.45173264 578.79259738 331.67262979 566.12440177 327.6875 553.5 C327.43928497 552.71084198 327.19106995 551.92168396 326.93533325 551.10861206 C323.93526135 541.60326253 320.71203874 532.2552553 317 523 C316.67 523 316.34 523 316 523 Z M-261 680 C-270.47113763 740.74156267 -273.20568885 818.46105311 -234.99316406 870.97729492 C-219.56683816 891.2878455 -198.70983789 903.44843317 -173.50463867 907.03369141 C-138.97869868 911.30316877 -104.73245655 899.79940308 -74 885 C-73.19675293 884.62149902 -72.39350586 884.24299805 -71.56591797 883.85302734 C-44.17433702 870.92586422 -18.578101 853.97234292 5 835 C3.45843889 831.17658006 1.14171779 829.12803672 -1.9375 826.4375 C-7.75305776 821.25129586 -13.30161688 815.82017881 -18.8125 810.3125 C-19.61228271 809.51706787 -20.41206543 808.72163574 -21.23608398 807.90209961 C-25.47466813 803.65381113 -29.5585612 799.33385304 -33.44995117 794.7644043 C-35.0629564 792.9283374 -36.75526445 791.21067569 -38.5 789.5 C-41.53594925 786.51127663 -44.34508659 783.38293521 -47.125 780.15625 C-49.17359094 777.80037042 -51.27203002 775.4949254 -53.375 773.1875 C-57.25033743 768.89391368 -60.9222131 764.46911998 -64.55859375 759.97265625 C-67.2772054 756.66247471 -70.07113617 753.42531113 -72.875 750.1875 C-76.85116655 745.57622944 -80.72743027 740.90412438 -84.5 736.125 C-85.13638649 735.33067818 -85.13638649 735.33067818 -85.78562927 734.52030945 C-88.23338487 731.42144248 -90.46775797 728.30936275 -92.50952148 724.92724609 C-96.66173652 718.29779974 -100.36779101 712.59562707 -108.33061218 710.76586914 C-111.53793693 710.26401197 -114.72981431 709.91906178 -117.96774292 709.68707275 C-121.57548656 709.42696727 -125.15953473 709.0025942 -128.75276184 708.59207153 C-130.64050306 708.37858874 -132.52920985 708.17348719 -134.41874695 707.97653198 C-144.69197949 706.89403269 -154.79611892 705.06245754 -164.9375 703.125 C-166.28618164 702.87059647 -166.28618164 702.87059647 -167.66210938 702.61105347 C-199.12545102 696.66255078 -230.23106352 688.85130434 -261 680 Z M346.140625 682.87109375 C344.72169581 683.28081209 343.30257834 683.68987876 341.88330078 684.09838867 C341.13083069 684.31643158 340.3783606 684.53447449 339.60308838 684.75912476 C312.7324454 692.50570119 285.48676091 698.56998882 258 703.6875 C257.23350128 703.83054565 256.46700256 703.97359131 255.67727661 704.12097168 C246.47028287 705.8230948 237.25695781 707.27204848 227.97265625 708.484375 C226.13213708 708.73199659 224.29164205 708.97979767 222.45117188 709.2277832 C218.93906145 709.69945973 215.42556165 710.12346632 211.90429688 710.52026367 C202.36289392 711.47620133 202.36289392 711.47620133 194.70703125 716.765625 C193.76694189 718.15222908 192.86180703 719.56343204 192 721 C191.09048245 722.16418884 190.16648676 723.31725046 189.2265625 724.45703125 C188.35742311 725.57400477 187.49025772 726.69251688 186.625 727.8125 C182.53889339 733.05612597 178.39140279 738.24002877 174.1640625 743.37109375 C172.73486776 745.10728158 171.31282724 746.8493864 169.8984375 748.59765625 C160.81609047 759.81022649 151.32756217 770.66171048 141.53125 781.25390625 C139.2467192 783.73234013 136.99347521 786.23446157 134.75 788.75 C125.42192671 799.12003892 115.84495535 809.24442146 106 819.125 C105.30648437 819.82310791 104.61296875 820.52121582 103.8984375 821.24047852 C99.75518689 825.37123138 95.48907406 829.24741465 91 833 C92.37912067 836.23844751 93.82108429 837.92212462 96.6484375 839.99609375 C97.39641602 840.54821533 98.14439453 841.10033691 98.91503906 841.66918945 C99.72682617 842.25273193 100.53861328 842.83627441 101.375 843.4375 C102.21772461 844.05004639 103.06044922 844.66259277 103.92871094 845.29370117 C113.06543863 851.87096291 122.46958125 858.01191531 132 864 C132.64855957 864.41056641 133.29711914 864.82113281 133.96533203 865.24414062 C175.40547384 891.35131877 229.02019032 916.59111479 279.16113281 905.52294922 C293.23608099 901.98618418 306.21607743 895.81145934 317 886 C317.89332031 885.19949219 318.78664063 884.39898438 319.70703125 883.57421875 C348.29009251 856.59020986 357.68300875 814.7211331 361 777 C361.11085938 775.82179688 361.22171875 774.64359375 361.3359375 773.4296875 C363.74839025 742.71981604 362.02633142 711.3590418 357 681 C352.89936901 681 350.06072014 681.72094296 346.140625 682.87109375 Z M-25 721 C-23.4186938 724.73922129 -21.06769602 727.29649737 -18.3125 730.25 C-15.35459165 733.44483718 -12.40880654 736.64214025 -9.5625 739.9375 C-5.31683237 744.81508096 -0.93869164 749.57050648 3.44921875 754.31982422 C4.49250847 755.45016425 5.53414813 756.58202927 6.57421875 757.71533203 C13.68810098 765.46438231 20.94911077 773.04883962 28.375 780.5 C29.11177979 781.24137207 29.84855957 781.98274414 30.60766602 782.74658203 C38.96390259 791.49915436 38.96390259 791.49915436 49 798 C49.4846875 797.50371094 49.969375 797.00742187 50.46875 796.49609375 C51.1390625 795.81675781 51.809375 795.13742187 52.5 794.4375 C53.1496875 793.77621094 53.799375 793.11492187 54.46875 792.43359375 C56.48693231 790.49327341 58.53088163 788.66615138 60.65234375 786.84375 C65.68066791 782.47458043 70.36468175 777.78155932 75.0625 773.0625 C75.92166016 772.20720703 76.78082031 771.35191406 77.66601562 770.47070312 C82.10473953 766.02519737 86.4071327 761.52549999 90.47631836 756.73803711 C92.07924961 754.90960135 93.76413304 753.20203981 95.5 751.5 C98.53124133 748.51591131 101.33610647 745.39214957 104.11328125 742.171875 C106.23269384 739.73213712 108.39457161 737.33420476 110.5625 734.9375 C112.04267801 733.29257615 113.5219024 731.64679352 115 730 C115.94359375 728.95005859 115.94359375 728.95005859 116.90625 727.87890625 C119.94368151 724.88444302 119.94368151 724.88444302 121 721 C113.80923436 720.89808364 106.63455239 720.90864424 99.44921875 721.22265625 C64.25765447 722.75946624 28.8904426 722.63595765 -6.29833984 721.09814453 C-12.5303854 720.87174996 -18.76530973 720.91163431 -25 721 Z " fill="#ffffff" transform="translate(552,92)"/>
<path d="M0 0 C18.14109563 15.96280272 29.92585027 35.68706904 36 59 C36.36931641 60.39992188 36.36931641 60.39992188 36.74609375 61.828125 C42.65451645 89.69958103 35.7322889 119.09124301 21 143 C18.50916263 146.50146401 15.81780163 149.7584688 13 153 C12.33484375 153.80953125 11.6696875 154.6190625 10.984375 155.453125 C-5.72919057 175.13799112 -30.33335747 188.19666817 -56 191 C-71.65344835 192.08195 -86.97823848 191.76852318 -102 187 C-103.01876221 186.68651611 -103.01876221 186.68651611 -104.05810547 186.36669922 C-131.74510486 177.61826272 -153.33686701 157.83050281 -166.94140625 132.44140625 C-180.05862241 106.74265445 -181.74984265 75.98957525 -173.10083008 48.65844727 C-168.36282333 34.56873395 -161.06767235 21.95647167 -151 11 C-150.55285645 10.51047852 -150.10571289 10.02095703 -149.64501953 9.51660156 C-110.83010814 -32.50956752 -43.93683958 -36.83394325 0 0 Z " fill="#ffffff" transform="translate(670,462)"/>
</svg>
