<?xml version="1.0" encoding="UTF-8"?>
<svg version="1.1" xmlns="http://www.w3.org/2000/svg" width="920" height="920">
<path d="M0 0 C0.88724762 -0.00073517 1.77449524 -0.00147034 2.68862915 -0.00222778 C31.39060319 0.05972747 59.38510021 5.01058061 85.21875 17.95703125 C88.20414704 19.38564928 91.15348093 20.46220044 94.3125 21.4375 C94.3125 22.0975 94.3125 22.7575 94.3125 23.4375 C95.58480469 23.82035156 95.58480469 23.82035156 96.8828125 24.2109375 C100.55002093 25.52244484 103.77824557 27.18393123 107.1875 29.0625 C108.33992188 29.69414063 109.49234375 30.32578125 110.6796875 30.9765625 C111.98292969 31.69972656 111.98292969 31.69972656 113.3125 32.4375 C113.3125 33.0975 113.3125 33.7575 113.3125 34.4375 C113.90345459 34.55681885 114.49440918 34.6761377 115.10327148 34.79907227 C117.38201048 35.45758729 118.75941084 36.25767916 120.66015625 37.65234375 C121.56797852 38.31073242 121.56797852 38.31073242 122.49414062 38.98242188 C123.11482422 39.44197266 123.73550781 39.90152344 124.375 40.375 C125.61568327 41.28022505 126.85656177 42.18518257 128.09765625 43.08984375 C129.68900391 44.25193359 129.68900391 44.25193359 131.3125 45.4375 C132.3025 46.0975 133.2925 46.7575 134.3125 47.4375 C134.3125 48.0975 134.3125 48.7575 134.3125 49.4375 C135.18068359 49.83001953 135.18068359 49.83001953 136.06640625 50.23046875 C138.44820631 51.51042739 140.23566646 52.95106054 142.25 54.75 C142.94867187 55.37390625 143.64734375 55.9978125 144.3671875 56.640625 C146.74932928 58.84099692 149.01960381 61.14460381 151.3125 63.4375 C152.39320517 64.31574395 153.47678853 65.19045257 154.5625 66.0625 C158.59748313 69.46865459 161.73062733 73.48416013 165.0078125 77.60546875 C167.10306809 80.18014723 169.28631649 82.58624495 171.5625 85 C181.24076876 95.64609563 189.44719498 107.81604788 196.3125 120.4375 C196.72371094 121.16453125 197.13492187 121.8915625 197.55859375 122.640625 C198.83177329 124.89477894 200.07306697 127.16461421 201.3125 129.4375 C201.89644531 130.489375 202.48039062 131.54125 203.08203125 132.625 C220.97906773 165.17816093 232.2229234 201.06756225 239.3125 237.4375 C239.46170898 238.19627441 239.61091797 238.95504883 239.76464844 239.73681641 C242.74901089 255.25199015 245.3125 271.64013463 245.3125 287.4375 C241.72254976 286.77520907 238.2910512 285.88031973 234.8046875 284.80078125 C233.74435303 284.47360107 232.68401855 284.1464209 231.59155273 283.80932617 C230.46821533 283.45974854 229.34487793 283.1101709 228.1875 282.75 C227.0312915 282.39204346 225.87508301 282.03408691 224.68383789 281.6652832 C217.70119214 279.5002527 210.72274694 277.32170742 203.75 275.125 C203.02087402 274.89530518 202.29174805 274.66561035 201.54052734 274.42895508 C196.44730822 272.81600399 191.37681124 271.13891337 186.3125 269.4375 C186.27721191 268.8098877 186.24192383 268.18227539 186.20556641 267.53564453 C183.34173404 221.78274595 164.21423745 175.03179205 139.67578125 136.7734375 C138.3125 134.4375 138.3125 134.4375 138.3125 132.4375 C137.6525 132.4375 136.9925 132.4375 136.3125 132.4375 C136.3125 131.4475 136.3125 130.4575 136.3125 129.4375 C135.6525 129.4375 134.9925 129.4375 134.3125 129.4375 C132.83984375 127.57421875 132.83984375 127.57421875 131.25 125.125 C130.72277344 124.32449219 130.19554687 123.52398437 129.65234375 122.69921875 C128.3125 120.4375 128.3125 120.4375 127.3125 117.4375 C126.3225 117.1075 125.3325 116.7775 124.3125 116.4375 C123.35663863 115.03627026 122.40772442 113.62950459 121.50439453 112.19384766 C119.25841144 108.88421997 116.48270123 106.03447272 113.75 103.125 C113.12939697 102.46419434 112.50879395 101.80338867 111.86938477 101.12255859 C106.71534033 95.71627384 101.31941724 90.88928361 95.3125 86.4375 C93.87583984 85.35275391 93.87583984 85.35275391 92.41015625 84.24609375 C56.57624215 58.26311694 17.72556147 53.00943082 -25.13720703 59.82714844 C-48.21932549 63.83477934 -74.33799847 71.96346755 -93.6875 85.4375 C-94.84471276 86.12044523 -96.00963296 86.7908279 -97.1875 87.4375 C-99.54289651 88.75359739 -101.78035486 90.15373061 -104 91.6875 C-106.6875 93.4375 -106.6875 93.4375 -108.6875 93.4375 C-108.6875 94.0975 -108.6875 94.7575 -108.6875 95.4375 C-109.6775 95.4375 -110.6675 95.4375 -111.6875 95.4375 C-111.6875 96.0975 -111.6875 96.7575 -111.6875 97.4375 C-113.76073677 99.12635564 -115.85083653 100.72559187 -118 102.3125 C-125.6997934 108.16800206 -134.81616288 115.33985776 -138.6875 124.4375 C-139.3475 124.4375 -140.0075 124.4375 -140.6875 124.4375 C-140.92855469 125.15421875 -141.16960937 125.8709375 -141.41796875 126.609375 C-142.86709712 129.83758712 -144.6803175 132.02083978 -147 134.6875 C-150.36804871 138.70015133 -153.05136137 142.56006512 -155.44921875 147.19921875 C-156.84135931 149.71561163 -158.44060259 151.98223343 -160.125 154.3125 C-167.00594455 163.99624309 -171.83471222 174.75574379 -176.79296875 185.50439453 C-177.54071563 187.12029513 -178.30018957 188.73076235 -179.0625 190.33984375 C-193.94979592 222.12226169 -202.40905904 256.5678049 -205.6875 291.4375 C-205.79046387 292.50919434 -205.89342773 293.58088867 -205.99951172 294.68505859 C-213.17417217 372.63156714 -201.61382605 455.24001521 -165.6875 525.4375 C-165.0770671 526.67592286 -164.46898631 527.91550792 -163.86328125 529.15625 C-160.02926641 536.95412499 -156.01027614 544.59868047 -151.6574707 552.12109375 C-149.72301869 555.48520703 -148.01362791 558.78715844 -146.6875 562.4375 C-145.6975 562.1075 -144.7075 561.7775 -143.6875 561.4375 C-125.86657769 560.0592632 -107.61640634 563.98236742 -93.6875 575.4375 C-92.74777344 576.20320312 -91.80804688 576.96890625 -90.83984375 577.7578125 C-84.66161616 583.06293929 -80.38614644 588.21091388 -76.6875 595.4375 C-76.01267578 596.58798828 -76.01267578 596.58798828 -75.32421875 597.76171875 C-66.57885421 613.36922774 -67.24492423 631.63960621 -71.6875 648.4375 C-72.76272379 651.61538366 -74.07631118 654.49816905 -75.6875 657.4375 C-76.1309375 658.25734375 -76.574375 659.0771875 -77.03125 659.921875 C-81.31619625 667.44332321 -86.46809982 674.48705416 -93.6875 679.4375 C-94.3475 679.4375 -95.0075 679.4375 -95.6875 679.4375 C-95.6875 680.0975 -95.6875 680.7575 -95.6875 681.4375 C-113.32010745 691.10962366 -132.55859223 696.19601506 -152.61328125 691.12109375 C-162.72094562 687.78994259 -173.62540329 682.50846767 -180.6875 674.4375 C-181.83223903 673.3530104 -182.97817578 672.26978432 -184.125 671.1875 C-192.63287369 662.53230382 -196.01329715 652.75931073 -199.6875 641.4375 C-200.1825 639.9525 -200.1825 639.9525 -200.6875 638.4375 C-201.8526226 623.76285462 -202.07959507 610.02564261 -193.6875 597.4375 C-194.01839692 593.71340561 -195.23052157 591.22300097 -197.25 588.125 C-201.165923 581.81653216 -204.37765785 575.20945251 -207.64648438 568.55175781 C-209.01696692 565.7683669 -210.40471708 562.99379737 -211.79443359 560.2199707 C-212.47053646 558.870197 -213.14535183 557.51977759 -213.81884766 556.16870117 C-215.32225493 553.15332339 -216.83759292 550.14665174 -218.3828125 547.15234375 C-221.20705238 541.65288167 -223.62521502 536.21211571 -225.63378906 530.36450195 C-226.67121773 527.48272895 -227.8238792 524.68325102 -229.02734375 521.8671875 C-231.62768885 515.66976973 -233.94240232 509.39589892 -236.1875 503.0625 C-236.97381458 500.85281342 -237.76027167 498.64317755 -238.546875 496.43359375 C-238.91748047 495.39058105 -239.28808594 494.34756836 -239.66992188 493.27294922 C-240.49401356 490.97664383 -241.33615632 488.69047708 -242.203125 486.41015625 C-245.58719879 477.40380797 -247.87054718 468.22325273 -250.10107422 458.87988281 C-250.97844654 455.22574761 -251.89537728 451.58182074 -252.8125 447.9375 C-253.26068485 446.1447606 -253.70876066 444.35199142 -254.15332031 442.55834961 C-254.55974181 440.94473739 -254.97788116 439.33407147 -255.40136719 437.72485352 C-257.23590649 430.64852671 -258.61274229 423.60385752 -259.6875 416.375 C-259.85483643 415.26447266 -260.02217285 414.15394531 -260.19458008 413.00976562 C-261.39748609 404.83527714 -262.44206294 396.64699456 -263.375 388.4375 C-263.49423828 387.40230225 -263.61347656 386.36710449 -263.73632812 385.30053711 C-265.54324912 368.65310245 -265.9256949 351.98321552 -265.9375 335.25 C-265.93850708 334.24748199 -265.93951416 333.24496399 -265.94055176 332.21206665 C-265.92878243 314.76628861 -265.02211217 297.7382844 -262.6875 280.4375 C-262.54828125 279.36419434 -262.4090625 278.29088867 -262.265625 277.18505859 C-259.97837161 259.98035979 -256.03026037 243.22713367 -251.6875 226.4375 C-251.40551758 225.34518066 -251.12353516 224.25286133 -250.83300781 223.12744141 C-250.04572045 220.10267406 -249.2461344 217.08162479 -248.4375 214.0625 C-248.20369629 213.18376221 -247.96989258 212.30502441 -247.72900391 211.3996582 C-246.39547422 206.54043639 -244.72133685 202.05891553 -242.6875 197.4375 C-241.53258233 194.30909642 -240.45647367 191.15442532 -239.375 188 C-238.14938279 184.47792577 -236.91887883 180.9575637 -235.6875 177.4375 C-235.4306543 176.70192871 -235.17380859 175.96635742 -234.90917969 175.20849609 C-229.6500491 160.27242443 -222.55688424 146.75464267 -214.625 133.0625 C-213.75875 131.56493164 -213.75875 131.56493164 -212.875 130.03710938 C-204.6448767 116.01230742 -194.63880084 103.26252633 -184.6875 90.4375 C-184.03007812 89.58542969 -183.37265625 88.73335938 -182.6953125 87.85546875 C-180.49495351 85.20562009 -178.14787374 82.85023165 -175.6875 80.4375 C-174.25483656 78.9847217 -172.82403899 77.53010231 -171.39453125 76.07421875 C-169.76315366 74.42434781 -168.1316395 72.77461192 -166.5 71.125 C-165.70013672 70.30837891 -164.90027344 69.49175781 -164.07617188 68.65039062 C-158.64021215 63.17076857 -153.0525489 57.83973162 -146.6875 53.4375 C-146.0275 53.4375 -145.3675 53.4375 -144.6875 53.4375 C-144.6875 52.7775 -144.6875 52.1175 -144.6875 51.4375 C-142.81640625 49.921875 -142.81640625 49.921875 -140.25 48.1875 C-139.34378906 47.57261719 -138.43757813 46.95773438 -137.50390625 46.32421875 C-136.57449219 45.70160156 -135.64507812 45.07898438 -134.6875 44.4375 C-133.83027344 43.84582031 -132.97304688 43.25414062 -132.08984375 42.64453125 C-125.94418052 38.4375 -125.94418052 38.4375 -123.6875 38.4375 C-123.6875 37.7775 -123.6875 37.1175 -123.6875 36.4375 C-99.72413541 23.08561445 -76.41500469 12.15170382 -49.6875 5.4375 C-48.39813626 5.09749448 -47.10902149 4.75654133 -45.8203125 4.4140625 C-30.80510857 0.63217822 -15.41178218 -0.00561515 0 0 Z " fill="#ffffff" transform="translate(449.6875,23.5625)"/>
<path d="M0 0 C0.98162109 -0.00773437 1.96324219 -0.01546875 2.97460938 -0.0234375 C13.03499597 0.00319489 21.30787753 1.53970292 30.1875 6.3125 C30.88875 6.67666016 31.59 7.04082031 32.3125 7.41601562 C34.10937334 8.35073532 35.8990082 9.29934139 37.6875 10.25 C38.6775 10.745 38.6775 10.745 39.6875 11.25 C39.6875 11.91 39.6875 12.57 39.6875 13.25 C40.368125 13.415 41.04875 13.58 41.75 13.75 C49.29575349 17.60315072 54.96806262 26.81112524 58.6875 34.25 C59.97922119 34.26981934 61.27094238 34.28963867 62.60180664 34.31005859 C134.83677876 35.45587536 206.60570461 42.2025804 273.6875 71.25 C274.74590088 71.70826172 275.80430176 72.16652344 276.89477539 72.63867188 C293.66066168 79.95325528 310.31162317 87.28387223 326.03515625 96.67578125 C328.35208861 98.05092667 330.68997342 99.34949488 333.0625 100.625 C337.83514433 103.23942649 342.36572829 106.21860028 346.90380859 109.21630859 C349.48922269 110.91025049 351.73967229 112.26739076 354.6875 113.25 C354.6875 113.91 354.6875 114.57 354.6875 115.25 C355.6775 115.25 356.6675 115.25 357.6875 115.25 C357.6875 115.91 357.6875 116.57 357.6875 117.25 C358.40292969 117.50265625 359.11835937 117.7553125 359.85546875 118.015625 C362.93230285 119.35670028 365.31275953 120.99331971 368 123 C369.44632813 124.07507813 369.44632813 124.07507813 370.921875 125.171875 C371.83453125 125.85765625 372.7471875 126.5434375 373.6875 127.25 C374.74710938 128.03117187 374.74710938 128.03117187 375.828125 128.828125 C398.68024024 145.73497449 424.71881239 165.99171293 441.23046875 189.35546875 C443.17026068 191.87771831 445.43475985 194.00388555 447.6875 196.25 C449.50573913 198.27376479 451.25717968 200.34869757 453 202.4375 C453.45439453 202.97052734 453.90878906 203.50355469 454.37695312 204.05273438 C457.6875 208.01045583 457.6875 208.01045583 457.6875 210.25 C458.3475 210.25 459.0075 210.25 459.6875 210.25 C461.10449219 211.94311523 461.10449219 211.94311523 462.734375 214.30859375 C463.3325 215.17033203 463.930625 216.03207031 464.546875 216.91992188 C465.17078125 217.83322266 465.7946875 218.74652344 466.4375 219.6875 C467.0459375 220.56599609 467.654375 221.44449219 468.28125 222.34960938 C475.47728329 232.76694389 482.35186408 243.2883442 488.6875 254.25 C489.0577832 254.88905273 489.42806641 255.52810547 489.80957031 256.18652344 C497.12478816 268.97360185 502.52237291 282.47632777 507.6875 296.25 C507.99316895 297.06082031 508.29883789 297.87164063 508.61376953 298.70703125 C527.99164103 350.93010913 530.70939712 413.86141642 510.6875 466.25 C509.73807222 468.26673668 508.74216635 470.25242332 507.72265625 472.23461914 C506.73619805 474.15518812 505.79375916 476.09087437 504.86328125 478.0390625 C500.41837383 487.23350166 495.39390109 495.78511041 489.6875 504.25 C489.0275 505.24 488.3675 506.23 487.6875 507.25 C487.0275 507.25 486.3675 507.25 485.6875 507.25 C485.5328125 508.1471875 485.5328125 508.1471875 485.375 509.0625 C484.57277338 511.61503924 483.59924913 512.41490119 481.6875 514.25 C480.61532173 515.44975391 479.55351667 516.65882636 478.5 517.875 C477.88253906 518.58011719 477.26507812 519.28523437 476.62890625 520.01171875 C475.35316059 521.48254826 474.08966776 522.96411251 472.83984375 524.45703125 C468.39211819 529.67192097 463.59590608 533.97755009 458.203125 538.20703125 C455.65588104 540.19484454 455.65588104 540.19484454 453.484375 542.51171875 C451.6875 544.25 451.6875 544.25 449.6875 544.25 C449.3575 545.24 449.0275 546.23 448.6875 547.25 C446.7890625 548.79296875 446.7890625 548.79296875 444.3125 550.4375 C440.54883241 552.97516492 436.8795188 555.58644415 433.25 558.3125 C428.75472668 561.60141466 424.14554186 564.31507768 419.21484375 566.89453125 C417.06813244 568.04585865 415.08262496 569.27075142 413.0625 570.625 C387.97723971 586.62588619 356.39291612 595.72713919 327.375 601 C325.64056641 601.31638428 325.64056641 601.31638428 323.87109375 601.63916016 C290.68051496 607.41246431 254.82990847 605.82871396 221.6875 600.25 C221.01730835 600.13827454 220.3471167 600.02654907 219.65661621 599.91143799 C187.20845503 594.43223159 155.03562487 584.20356839 125.6875 569.25 C129.1930778 565.60186636 132.8124963 562.48059283 136.875 559.4375 C137.92042969 558.64730469 138.96585938 557.85710938 140.04296875 557.04296875 C142.6875 555.25 142.6875 555.25 144.6875 555.25 C144.6875 554.59 144.6875 553.93 144.6875 553.25 C146.59269002 551.64018828 148.49005662 550.15496732 150.5 548.6875 C151.32081055 548.0697168 151.32081055 548.0697168 152.15820312 547.43945312 C154.65743101 545.58850981 156.71712285 544.24012572 159.6875 543.25 C159.6875 542.59 159.6875 541.93 159.6875 541.25 C161.92378097 539.36230708 164.16810919 537.57462833 166.5 535.8125 C167.77873456 534.83645486 169.05612397 533.85864438 170.33203125 532.87890625 C170.90284424 532.44650635 171.47365723 532.01410645 172.06176758 531.56860352 C173.74080172 530.26526845 173.74080172 530.26526845 175.24658203 528.60546875 C176.6875 527.25 176.6875 527.25 179.09765625 526.93359375 C181.90700942 527.27681789 183.6256103 528.00169022 186.125 529.3125 C231.2201373 550.54429541 295.65828761 558.48981674 343.6875 544.25 C345.16106029 543.85787611 346.63506044 543.46740336 348.109375 543.078125 C364.7446521 538.54588262 381.0247923 531.95000585 394.6875 521.25 C396.51844727 519.93417347 398.35189943 518.62182728 400.1875 517.3125 C410.36937427 510.04122849 410.36937427 510.04122849 419.1875 501.25 C420.0125 500.26 420.8375 499.27 421.6875 498.25 C422.3475 498.25 423.0075 498.25 423.6875 498.25 C424.0278125 497.43982422 424.0278125 497.43982422 424.375 496.61328125 C426.0866742 493.53124883 428.36143331 491.05961881 430.6875 488.4375 C448.81877187 467.44386799 460.45173485 443.16059538 466.6875 416.25 C467.04328125 414.73212891 467.04328125 414.73212891 467.40625 413.18359375 C473.77154191 381.02950887 468.39029648 342.97688512 453.85546875 313.625 C452.5564226 310.98346135 451.46879432 308.29516886 450.375 305.5625 C446.08590605 295.19044576 441.03246714 285.12052206 435.1015625 275.58984375 C433.60231062 273.10903746 432.2738305 270.57187631 430.9375 268 C426.72556228 260.16825374 421.38450759 252.94143045 415.88671875 245.96484375 C414.6875 244.25 414.6875 244.25 414.6875 242.25 C414.0275 242.25 413.3675 242.25 412.6875 242.25 C411.09046788 240.32390077 409.600559 238.39114076 408.125 236.375 C404.27411875 231.2397929 400.26124955 226.37927768 395.90625 221.65625 C393.60430332 219.15977261 391.36759458 216.61229931 389.125 214.0625 C385.81403013 210.37724657 382.36739711 207.0796084 378.578125 203.89453125 C376.70641191 202.26645024 375.01936144 200.5485853 373.3125 198.75 C369.86938892 195.22755456 366.01495246 192.54836903 361.921875 189.828125 C359.6875 188.25 359.6875 188.25 358.27929688 186.82543945 C356.61152501 185.17480574 354.88467378 183.84005997 352.984375 182.46484375 C352.25887451 181.93914795 351.53337402 181.41345215 350.78588867 180.87182617 C350.01092041 180.31599854 349.23595215 179.7601709 348.4375 179.1875 C347.63481689 178.61040283 346.83213379 178.03330566 346.00512695 177.4387207 C335.57222817 169.97574863 324.93606128 162.8779124 313.9609375 156.234375 C311.74483851 154.89096416 309.54191129 153.52562306 307.3515625 152.140625 C297.09396684 145.71094095 286.29424754 140.57849695 275.32568359 135.48095703 C273.06989593 134.42842313 270.82352805 133.35985585 268.58203125 132.27734375 C226.97186558 112.35710086 181.54956664 100.24216655 135.875 94.5625 C134.92206055 94.44293945 133.96912109 94.32337891 132.98730469 94.20019531 C123.9104559 93.13902526 114.81129335 92.67221044 105.6875 92.25 C104.78883209 92.20563812 103.89016418 92.16127625 102.96426392 92.11557007 C97.13936169 91.83403407 91.31852819 91.63499792 85.48803711 91.51538086 C83.47559695 91.46292817 81.46364351 91.38726399 79.45288086 91.28979492 C69.97524631 90.70729969 69.97524631 90.70729969 60.6875 92.25 C56.87214139 95.7439031 55.45769653 99.47050742 53.6875 104.25 C52.03996736 106.7084389 50.15193595 108.848335 48.125 111 C47.62033203 111.53874756 47.11566406 112.07749512 46.59570312 112.63256836 C35.20279198 124.23587972 18.04462137 130.78853074 1.921875 131.390625 C-15.51148321 131.18724938 -32.62608223 123.90064101 -44.98046875 111.75 C-59.23577279 96.46793202 -64.12010441 79.03508841 -63.43994141 58.52587891 C-62.81801429 47.41935667 -59.00948267 38.66296909 -53.3125 29.25 C-52.7865625 28.30253906 -52.260625 27.35507812 -51.71875 26.37890625 C-51.2546875 25.67636719 -50.790625 24.97382813 -50.3125 24.25 C-49.6525 24.25 -48.9925 24.25 -48.3125 24.25 C-48.0753125 23.67765625 -47.838125 23.1053125 -47.59375 22.515625 C-46.03656762 19.7620708 -44.18757203 18.08204366 -41.8125 16 C-41.0184375 15.29359375 -40.224375 14.5871875 -39.40625 13.859375 C-37.3125 12.25 -37.3125 12.25 -35.3125 12.25 C-35.3125 11.59 -35.3125 10.93 -35.3125 10.25 C-32.6280851 8.95157659 -29.94027896 7.66117141 -27.25 6.375 C-26.49783203 6.01019531 -25.74566406 5.64539063 -24.97070312 5.26953125 C-16.50116869 1.23641962 -9.34503957 -0.07277124 0 0 Z " fill="#ffffff" transform="translate(396.3125,291.75)"/>
<path d="M0 0 C0.17539307 0.81339844 0.35078613 1.62679688 0.53149414 2.46484375 C1.366401 6.31185224 2.21062079 10.15672036 3.0625 14 C3.29418381 15.04543976 3.29418381 15.04543976 3.5305481 16.11199951 C5.90044489 26.73965575 8.61892654 37.19775705 11.86547852 47.59765625 C12.14576904 48.50644531 12.42605957 49.41523438 12.71484375 50.3515625 C12.96355225 51.13354004 13.21226074 51.91551758 13.46850586 52.72119141 C14.05723385 55.24539309 14.18464753 57.41656859 14 60 C12.63671875 61.703125 12.63671875 61.703125 10.6875 63.25 C9.96433594 63.83652344 9.24117187 64.42304688 8.49609375 65.02734375 C7.67238281 65.67832031 6.84867188 66.32929688 6 67 C5.06285156 67.78503906 4.12570313 68.57007813 3.16015625 69.37890625 C-4.50263088 75.7868477 -4.50263088 75.7868477 -9 78 C-9.68486725 79.32407669 -10.34870203 80.65909241 -11 82 C-13.05688561 84.23319009 -15.1342998 86.32422382 -17.53125 88.1953125 C-22.27730007 91.93394628 -25.80090476 96.40184073 -29.36010742 101.2421875 C-31.99773371 104.80939481 -34.84446258 107.89049149 -38 111 C-51.79912426 127.76269457 -64.40926693 148.28084624 -71.796875 168.70703125 C-72.7886437 171.42151506 -73.8499798 174.07855424 -74.94921875 176.75 C-90.02813374 214.33481073 -89.27341432 255.17043177 -76 293 C-75.70496582 293.8569043 -75.40993164 294.71380859 -75.10595703 295.59667969 C-68.83090204 313.50261327 -59.56180425 330.70553309 -47 345 C-44 348.71232877 -44 348.71232877 -44 351 C-43.01 351.33 -42.02 351.66 -41 352 C-41 352.66 -41 353.32 -41 354 C-40.34 354 -39.68 354 -39 354 C-37.28769752 355.61974559 -35.62836738 357.2958946 -34 359 C-4.28674505 389.64179416 41.60262751 404.29566 83.60375977 405.1081543 C89.13167307 405.18400919 94.65913858 405.19476422 100.1875 405.1875 C101.17342133 405.18623108 102.15934265 405.18496216 103.17514038 405.18365479 C139.18511112 405.09516292 173.28428718 400.08710865 207.4375 388.1875 C208.06618988 387.96934631 208.69487976 387.75119263 209.34262085 387.52642822 C219.12070921 384.12542131 228.66507682 380.48853371 238 376 C238.67305176 375.67789551 239.34610352 375.35579102 240.03955078 375.02392578 C247.27453911 371.54386808 254.32083581 367.92098559 261.140625 363.67578125 C264.24130162 361.85858143 267.4053526 360.21868064 270.6015625 358.57739258 C280.14101764 353.6742262 289.12720502 348.25361803 298.04052734 342.29638672 C300.47015967 340.68894245 302.9330583 339.13860085 305.39941406 337.58837891 C321.97011831 327.13673778 340.53090736 314.86457859 354.15234375 300.7734375 C356 299 356 299 358 299 C358 298.34 358 297.68 358 297 C359.6405786 295.80977631 361.28555263 294.62319969 362.98046875 293.51171875 C365.58169111 291.56457552 367.73042853 289.32597895 370 287 C371.06196063 285.94605795 372.12585801 284.89406479 373.19140625 283.84375 C374.31513607 282.72919883 375.43883355 281.61461505 376.5625 280.5 C377.12646484 279.94441406 377.69042969 279.38882812 378.27148438 278.81640625 C381.41818396 275.68810842 384.23812461 272.47917228 387 269 C388.66125545 267.32793963 390.32831329 265.66163145 392 264 C409.01095949 245.4636182 423.29453849 224.53080711 435.92675781 202.82324219 C437.05158058 200.91237403 438.2071607 199.02248761 439.3671875 197.1328125 C440.12034289 195.88053969 440.87296676 194.62794702 441.625 193.375 C442.29789063 192.26898437 442.97078125 191.16296875 443.6640625 190.0234375 C445.18695892 187.15584803 445.18695892 187.15584803 444.94140625 184.41015625 C443.80375809 181.49758813 442.27912774 179.49362648 440.3125 177.0625 C429.51577441 162.66040464 426.1658626 145.66108946 428 128 C430.98763795 111.14926929 440.61417001 95.50499406 454.43359375 85.38671875 C461.16459954 80.75243793 468.11322686 77.23047803 476 75 C476.721875 74.77699219 477.44375 74.55398438 478.1875 74.32421875 C494.52097553 69.91057738 512.56760828 73.53692732 527.01953125 81.70703125 C531.90740386 84.71042285 536.14290524 87.71433916 540 92 C540.54011719 92.49886719 541.08023438 92.99773437 541.63671875 93.51171875 C552.53254482 103.6512185 558.54064617 118.24521831 559.30859375 132.984375 C559.79570378 149.0870007 557.30663165 162.13153672 549 176 C548.34 176 547.68 176 547 176 C546.60554687 176.86818359 546.60554687 176.86818359 546.203125 177.75390625 C540.01418702 189.30793008 527.69361262 197.40340683 515.47387695 201.19921875 C504.89231821 204.32679532 504.89231821 204.32679532 500 204 C499.64421875 204.96679688 499.64421875 204.96679688 499.28125 205.953125 C486.35486606 236.69269655 465.99396957 266.27919347 445 292 C443.68725742 293.66647561 442.37476035 295.33314464 441.0625 297 C437.64838773 301.27098751 434.06216604 305.34984504 430.37109375 309.3828125 C429.10493169 310.78038841 427.84415235 312.18360551 426.6237793 313.62133789 C421.29519036 319.87264042 415.50796597 325.64358855 409.69311523 331.43725586 C407.93421804 333.19077192 406.18075759 334.9495981 404.42773438 336.70898438 C403.29459147 337.84146675 402.16113855 338.97363902 401.02734375 340.10546875 C400.51155258 340.62328415 399.99576141 341.14109955 399.46434021 341.67460632 C390.07948317 351 390.07948317 351 387 351 C386.67 351.99 386.34 352.98 386 354 C384.01542433 355.73986108 382.03620403 357.34642372 379.9375 358.9375 C379.31480225 359.41695068 378.69210449 359.89640137 378.05053711 360.39038086 C376.03922041 361.93429825 374.01975364 363.46714266 372 365 C370.67957131 366.01286938 369.35925801 367.0258892 368.0390625 368.0390625 C359.80956221 374.31648644 351.39151983 380.20323038 342.71435547 385.84326172 C340.8493825 387.10162713 339.05716349 388.44015406 337.25390625 389.78515625 C334 392 334 392 331 392 C331 392.66 331 393.32 331 394 C330.3915625 394.32871094 329.783125 394.65742187 329.15625 394.99609375 C324.84127645 397.33760145 320.53354212 399.68780878 316.26953125 402.12109375 C301.60637775 410.48589383 286.7359328 417.72458331 271.11376953 424.12890625 C268.29458602 425.29070421 265.49262923 426.49223854 262.6875 427.6875 C256.85527834 430.10887755 250.93332063 432.22474919 244.96972656 434.29785156 C242.9438509 435.02001547 240.93738025 435.7835145 238.9296875 436.5546875 C223.43152955 442.39087836 207.38972695 446.11735019 191.31054688 449.96289062 C187.5180667 450.87116139 183.73500948 451.81411078 179.953125 452.765625 C107.38520308 470.70673113 25.7769569 464.76989057 -39.17895508 425.70214844 C-57.64953884 414.27088675 -75.73538066 400.51221249 -89.16015625 383.3125 C-90.68833911 381.39172664 -92.24176688 379.70265678 -94 378 C-97 374.33333333 -97 374.33333333 -97 372 C-97.66 372 -98.32 372 -99 372 C-99.53625 371.05125 -100.0725 370.1025 -100.625 369.125 C-101.82360425 367.01696525 -103.04213923 364.9320536 -104.3203125 362.87109375 C-112.16144263 350.20959674 -118.01553243 336.99767883 -123 323 C-123.51321058 321.62800069 -124.02886482 320.25691314 -124.546875 318.88671875 C-131.05270741 301.57270867 -134.16227371 283.3579184 -136 265 C-136.11214844 263.91074219 -136.22429687 262.82148437 -136.33984375 261.69921875 C-137.97091522 242.32745207 -138.19353818 222.21490201 -135 203 C-134.83870605 202.01966797 -134.67741211 201.03933594 -134.51123047 200.02929688 C-132.07497984 185.61644685 -128.84226809 171.78871419 -124 158 C-123.58878906 156.78570313 -123.17757812 155.57140625 -122.75390625 154.3203125 C-114.83042163 131.40715369 -103.95500234 111.43431136 -91 91 C-90.60780273 90.37399902 -90.21560547 89.74799805 -89.81152344 89.10302734 C-85.27174091 81.8705516 -80.12476662 75.42290088 -74.55078125 68.984375 C-71.52227242 65.44106605 -68.74703572 61.76146395 -66 58 C-63.21952494 54.37695674 -60.24197165 51.21406371 -57 48 C-56.1028125 47.1028125 -55.205625 46.205625 -54.28125 45.28125 C-51.52083333 42.52083333 -48.76041667 39.76041667 -46 37 C-45.1853125 36.1646875 -44.370625 35.329375 -43.53125 34.46875 C-39.8679437 30.89589571 -35.89899981 27.73387739 -31.9375 24.5 C-29.14064716 22.11969971 -26.58880446 19.60157817 -24 17 C-22.69067886 15.90804663 -21.35753019 14.84390477 -20 13.8125 C-17.18567793 11.66735063 -14.37828494 9.51671892 -11.59765625 7.328125 C-10.41930889 6.40620136 -9.24092364 5.48432614 -8.0625 4.5625 C-7.49466797 4.11302002 -6.92683594 3.66354004 -6.34179688 3.20043945 C-2.22597092 0 -2.22597092 0 0 0 Z " fill="#ffffff" transform="translate(137,430)"/>

</svg>
