<?xml version="1.0" standalone="no"?>
<!DOCTYPE svg PUBLIC "-//W3C//DTD SVG 20010904//EN"
 "http://www.w3.org/TR/2001/REC-SVG-20010904/DTD/svg10.dtd">
<svg version="1.0" xmlns="http://www.w3.org/2000/svg"
 width="758.000000pt" height="473.000000pt" viewBox="0 0 758.000000 473.000000"
 preserveAspectRatio="xMidYMid meet">

<g transform="translate(0.000000,473.000000) scale(0.100000,-0.100000)"
fill="#ffffff" stroke="none">
<path d="M1760 4276 c0 -3 148 -202 328 -443 180 -241 415 -555 522 -698 106
-143 312 -419 458 -613 l264 -352 -25 -29 c-21 -26 -187 -205 -637 -691 -74
-80 -211 -229 -305 -330 -93 -102 -232 -252 -309 -335 -77 -82 -164 -177 -195
-210 -30 -33 -68 -75 -85 -92 l-30 -33 180 0 179 0 142 153 c78 83 150 161
160 172 10 11 92 100 183 199 91 98 203 220 250 271 473 513 654 705 660 698
6 -7 794 -1062 1039 -1390 l76 -103 608 0 c334 0 607 2 607 5 0 2 -248 336
-552 742 -303 406 -651 871 -771 1033 -121 162 -247 330 -279 373 l-59 79 108
116 c59 65 110 119 113 122 5 5 548 591 670 725 384 417 555 600 568 608 33
22 1 27 -162 27 l-174 0 -69 -72 c-39 -40 -214 -229 -389 -419 -175 -190 -400
-432 -499 -539 -99 -107 -211 -228 -249 -269 -38 -42 -72 -76 -76 -76 -5 0
-144 182 -311 405 -166 223 -397 532 -513 687 l-211 283 -607 0 c-335 0 -608
-2 -608 -4z m1382 -663 c168 -225 448 -599 622 -833 174 -234 353 -472 396
-530 44 -58 274 -366 513 -685 238 -319 476 -638 530 -710 53 -71 97 -133 97
-137 0 -5 -123 -8 -274 -8 l-274 0 -188 253 c-104 138 -395 529 -648 867 -253
338 -646 865 -875 1170 -228 305 -488 654 -579 775 -90 121 -167 226 -169 233
-4 9 54 12 270 12 l274 0 305 -407z"/>
</g>
</svg>
